<mxfile host="Electron" agent="Mozilla/5.0 (Windows NT 10.0; Win64; x64) AppleWebKit/537.36 (KHTML, like Gecko) draw.io/26.0.16 Chrome/132.0.6834.196 Electron/34.2.0 Safari/537.36" version="26.0.16">
  <diagram name="Page-1" id="xRaDJkeIEivt3dW1Uzlx">
    <mxGraphModel dx="1098" dy="604" grid="1" gridSize="10" guides="1" tooltips="1" connect="1" arrows="1" fold="1" page="1" pageScale="1" pageWidth="850" pageHeight="1100" math="0" shadow="0">
      <root>
        <mxCell id="0" />
        <mxCell id="1" parent="0" />
        <mxCell id="0HKVdMSKqpRLsOIAbaeS-1" value="TAHAP 1: MANAJEMEN PERSEDIAAN" style="swimlane;fontStyle=1;align=center;verticalAlign=middle;startSize=25;container=0;collapsible=0;rounded=1;arcSize=14;dropTarget=0;" vertex="1" parent="1">
          <mxGeometry x="401" y="20" width="11391" height="1337" as="geometry" />
        </mxCell>
        <mxCell id="0HKVdMSKqpRLsOIAbaeS-2" value="" style="ellipse;fillColor=strokeColor;" vertex="1" parent="1">
          <mxGeometry x="426" y="1172" width="14" height="14" as="geometry" />
        </mxCell>
        <mxCell id="0HKVdMSKqpRLsOIAbaeS-3" value="AnalisisPasar" style="rounded=1;arcSize=20;strokeWidth=2" vertex="1" parent="1">
          <mxGeometry x="4004" y="1072" width="107" height="40" as="geometry" />
        </mxCell>
        <mxCell id="0HKVdMSKqpRLsOIAbaeS-4" value="PrediksiPermintaan" style="swimlane;fontStyle=1;align=center;verticalAlign=middle;startSize=25;container=0;collapsible=0;rounded=1;arcSize=14;dropTarget=0;verticalAlign=top;" vertex="1" parent="1">
          <mxGeometry x="5733" y="1036" width="790" height="111" as="geometry" />
        </mxCell>
        <mxCell id="0HKVdMSKqpRLsOIAbaeS-5" value="" style="ellipse;fillColor=strokeColor;" vertex="1" parent="0HKVdMSKqpRLsOIAbaeS-4">
          <mxGeometry x="46" y="56" width="14" height="14" as="geometry" />
        </mxCell>
        <mxCell id="0HKVdMSKqpRLsOIAbaeS-6" value="EvaluasiTren" style="rounded=1;arcSize=20;strokeWidth=2" vertex="1" parent="0HKVdMSKqpRLsOIAbaeS-4">
          <mxGeometry x="135" y="43" width="105" height="40" as="geometry" />
        </mxCell>
        <mxCell id="0HKVdMSKqpRLsOIAbaeS-7" value="AnalisaHistoris" style="rounded=1;arcSize=20;strokeWidth=2" vertex="1" parent="0HKVdMSKqpRLsOIAbaeS-4">
          <mxGeometry x="314" y="43" width="120" height="40" as="geometry" />
        </mxCell>
        <mxCell id="0HKVdMSKqpRLsOIAbaeS-8" value="ModelingPermintaan" style="rounded=1;arcSize=20;strokeWidth=2" vertex="1" parent="0HKVdMSKqpRLsOIAbaeS-4">
          <mxGeometry x="510" y="43" width="161" height="40" as="geometry" />
        </mxCell>
        <mxCell id="0HKVdMSKqpRLsOIAbaeS-9" value="" style="ellipse;shape=endState;fillColor=strokeColor;" vertex="1" parent="0HKVdMSKqpRLsOIAbaeS-4">
          <mxGeometry x="746" y="56" width="14" height="14" as="geometry" />
        </mxCell>
        <mxCell id="0HKVdMSKqpRLsOIAbaeS-10" value="" style="curved=1;startArrow=none;;exitX=0.96;exitY=0.5;entryX=0;entryY=0.5;rounded=0;" edge="1" parent="0HKVdMSKqpRLsOIAbaeS-4" source="0HKVdMSKqpRLsOIAbaeS-5" target="0HKVdMSKqpRLsOIAbaeS-6">
          <mxGeometry relative="1" as="geometry">
            <Array as="points" />
          </mxGeometry>
        </mxCell>
        <mxCell id="0HKVdMSKqpRLsOIAbaeS-11" value="" style="curved=1;startArrow=none;;exitX=0.99;exitY=0.5;entryX=0;entryY=0.5;rounded=0;" edge="1" parent="0HKVdMSKqpRLsOIAbaeS-4" source="0HKVdMSKqpRLsOIAbaeS-6" target="0HKVdMSKqpRLsOIAbaeS-7">
          <mxGeometry relative="1" as="geometry">
            <Array as="points" />
          </mxGeometry>
        </mxCell>
        <mxCell id="0HKVdMSKqpRLsOIAbaeS-12" value="" style="curved=1;startArrow=none;;exitX=1.01;exitY=0.5;entryX=0;entryY=0.5;rounded=0;" edge="1" parent="0HKVdMSKqpRLsOIAbaeS-4" source="0HKVdMSKqpRLsOIAbaeS-7" target="0HKVdMSKqpRLsOIAbaeS-8">
          <mxGeometry relative="1" as="geometry">
            <Array as="points" />
          </mxGeometry>
        </mxCell>
        <mxCell id="0HKVdMSKqpRLsOIAbaeS-13" value="" style="curved=1;startArrow=none;;exitX=1;exitY=0.5;entryX=0.01;entryY=0.5;rounded=0;" edge="1" parent="0HKVdMSKqpRLsOIAbaeS-4" source="0HKVdMSKqpRLsOIAbaeS-8" target="0HKVdMSKqpRLsOIAbaeS-9">
          <mxGeometry relative="1" as="geometry">
            <Array as="points" />
          </mxGeometry>
        </mxCell>
        <mxCell id="0HKVdMSKqpRLsOIAbaeS-14" value="DecisionPasar" style="rounded=1;arcSize=20;strokeWidth=2" vertex="1" parent="1">
          <mxGeometry x="6757" y="1072" width="113" height="40" as="geometry" />
        </mxCell>
        <mxCell id="0HKVdMSKqpRLsOIAbaeS-15" value="TargetPremium" style="rounded=1;arcSize=20;strokeWidth=2" vertex="1" parent="1">
          <mxGeometry x="7374" y="445" width="124" height="40" as="geometry" />
        </mxCell>
        <mxCell id="0HKVdMSKqpRLsOIAbaeS-16" value="TargetStandar" style="rounded=1;arcSize=20;strokeWidth=2" vertex="1" parent="1">
          <mxGeometry x="7378" y="1072" width="116" height="40" as="geometry" />
        </mxCell>
        <mxCell id="0HKVdMSKqpRLsOIAbaeS-17" value="TargetEkonomi" style="rounded=1;arcSize=20;strokeWidth=2" vertex="1" parent="1">
          <mxGeometry x="7375" y="1162" width="121" height="40" as="geometry" />
        </mxCell>
        <mxCell id="0HKVdMSKqpRLsOIAbaeS-18" value="ForkBudget" style="rounded=1;arcSize=20;strokeWidth=2" vertex="1" parent="1">
          <mxGeometry x="7968" y="1072" width="97" height="40" as="geometry" />
        </mxCell>
        <mxCell id="0HKVdMSKqpRLsOIAbaeS-19" value="PerencanaanBudgetOperasional" style="rounded=1;arcSize=20;strokeWidth=2" vertex="1" parent="1">
          <mxGeometry x="8127" y="1067" width="242" height="40" as="geometry" />
        </mxCell>
        <mxCell id="0HKVdMSKqpRLsOIAbaeS-20" value="PerencanaanBudgetPengadaan" style="rounded=1;arcSize=20;strokeWidth=2" vertex="1" parent="1">
          <mxGeometry x="8131" y="1157" width="234" height="40" as="geometry" />
        </mxCell>
        <mxCell id="0HKVdMSKqpRLsOIAbaeS-21" value="JoinBudget" style="rounded=1;arcSize=20;strokeWidth=2" vertex="1" parent="1">
          <mxGeometry x="8439" y="1112" width="95" height="40" as="geometry" />
        </mxCell>
        <mxCell id="0HKVdMSKqpRLsOIAbaeS-22" value="ApprovalBudget" style="rounded=1;arcSize=20;strokeWidth=2" vertex="1" parent="1">
          <mxGeometry x="8739" y="5070" width="129" height="40" as="geometry" />
        </mxCell>
        <mxCell id="0HKVdMSKqpRLsOIAbaeS-23" value="PersetujuanKampanye" style="swimlane;fontStyle=1;align=center;verticalAlign=middle;startSize=25;container=0;collapsible=0;rounded=1;arcSize=14;dropTarget=0;" vertex="1" parent="1">
          <mxGeometry x="7931" y="4984" width="2169" height="279" as="geometry" />
        </mxCell>
        <mxCell id="0HKVdMSKqpRLsOIAbaeS-24" value="PemilihanSupplier" style="swimlane;fontStyle=1;align=center;verticalAlign=middle;startSize=25;container=0;collapsible=0;rounded=1;arcSize=14;dropTarget=0;verticalAlign=top;" vertex="1" parent="1">
          <mxGeometry x="9052" y="255" width="471" height="680" as="geometry" />
        </mxCell>
        <mxCell id="0HKVdMSKqpRLsOIAbaeS-25" value="" style="ellipse;fillColor=strokeColor;" vertex="1" parent="0HKVdMSKqpRLsOIAbaeS-24">
          <mxGeometry x="220" y="46" width="14" height="14" as="geometry" />
        </mxCell>
        <mxCell id="0HKVdMSKqpRLsOIAbaeS-26" value="EvaluasiSupplier" style="rounded=1;arcSize=20;strokeWidth=2" vertex="1" parent="0HKVdMSKqpRLsOIAbaeS-24">
          <mxGeometry x="161" y="135" width="132" height="40" as="geometry" />
        </mxCell>
        <mxCell id="0HKVdMSKqpRLsOIAbaeS-27" value="DecisionSupplier" style="rounded=1;arcSize=20;strokeWidth=2" vertex="1" parent="0HKVdMSKqpRLsOIAbaeS-24">
          <mxGeometry x="211" y="250" width="134" height="40" as="geometry" />
        </mxCell>
        <mxCell id="0HKVdMSKqpRLsOIAbaeS-28" value="NegosiasiBaru" style="rounded=1;arcSize=20;strokeWidth=2" vertex="1" parent="0HKVdMSKqpRLsOIAbaeS-24">
          <mxGeometry x="122" y="405" width="114" height="40" as="geometry" />
        </mxCell>
        <mxCell id="0HKVdMSKqpRLsOIAbaeS-29" value="NegosiasiBerlanjut" style="rounded=1;arcSize=20;strokeWidth=2" vertex="1" parent="0HKVdMSKqpRLsOIAbaeS-24">
          <mxGeometry x="295" y="405" width="149" height="40" as="geometry" />
        </mxCell>
        <mxCell id="0HKVdMSKqpRLsOIAbaeS-30" value="TemukanSupplierBaru" style="rounded=1;arcSize=20;strokeWidth=2" vertex="1" parent="0HKVdMSKqpRLsOIAbaeS-24">
          <mxGeometry x="43" y="520" width="170" height="40" as="geometry" />
        </mxCell>
        <mxCell id="0HKVdMSKqpRLsOIAbaeS-31" value="FinalizeKontrak" style="rounded=1;arcSize=20;strokeWidth=2" vertex="1" parent="0HKVdMSKqpRLsOIAbaeS-24">
          <mxGeometry x="306" y="520" width="127" height="40" as="geometry" />
        </mxCell>
        <mxCell id="0HKVdMSKqpRLsOIAbaeS-32" value="" style="ellipse;shape=endState;fillColor=strokeColor;" vertex="1" parent="0HKVdMSKqpRLsOIAbaeS-24">
          <mxGeometry x="362" y="635" width="14" height="14" as="geometry" />
        </mxCell>
        <mxCell id="0HKVdMSKqpRLsOIAbaeS-33" value="" style="curved=1;startArrow=none;;exitX=0.52;exitY=0.96;entryX=0.5;entryY=-0.01;rounded=0;" edge="1" parent="0HKVdMSKqpRLsOIAbaeS-24" source="0HKVdMSKqpRLsOIAbaeS-25" target="0HKVdMSKqpRLsOIAbaeS-26">
          <mxGeometry relative="1" as="geometry">
            <Array as="points" />
          </mxGeometry>
        </mxCell>
        <mxCell id="0HKVdMSKqpRLsOIAbaeS-34" value="" style="curved=1;startArrow=none;;exitX=0.64;exitY=0.99;entryX=0.5;entryY=-0.01;rounded=0;" edge="1" parent="0HKVdMSKqpRLsOIAbaeS-24" source="0HKVdMSKqpRLsOIAbaeS-26" target="0HKVdMSKqpRLsOIAbaeS-27">
          <mxGeometry relative="1" as="geometry">
            <Array as="points">
              <mxPoint x="278" y="212" />
            </Array>
          </mxGeometry>
        </mxCell>
        <mxCell id="0HKVdMSKqpRLsOIAbaeS-35" value="[Tidak Ada Supplier Memenuhi]" style="curved=1;startArrow=none;;exitX=0.31;exitY=0.99;entryX=0.5;entryY=0;rounded=0;" edge="1" parent="0HKVdMSKqpRLsOIAbaeS-24" source="0HKVdMSKqpRLsOIAbaeS-27" target="0HKVdMSKqpRLsOIAbaeS-28">
          <mxGeometry relative="1" as="geometry">
            <Array as="points">
              <mxPoint x="179" y="347" />
            </Array>
          </mxGeometry>
        </mxCell>
        <mxCell id="0HKVdMSKqpRLsOIAbaeS-36" value="[Supplier Potensial Ditemukan]" style="curved=1;startArrow=none;;exitX=0.68;exitY=0.99;entryX=0.5;entryY=0;rounded=0;" edge="1" parent="0HKVdMSKqpRLsOIAbaeS-24" source="0HKVdMSKqpRLsOIAbaeS-27" target="0HKVdMSKqpRLsOIAbaeS-29">
          <mxGeometry relative="1" as="geometry">
            <Array as="points">
              <mxPoint x="369" y="347" />
            </Array>
          </mxGeometry>
        </mxCell>
        <mxCell id="0HKVdMSKqpRLsOIAbaeS-37" value="" style="curved=1;startArrow=none;;exitX=0.5;exitY=1;entryX=0.6;entryY=0;rounded=0;" edge="1" parent="0HKVdMSKqpRLsOIAbaeS-24" source="0HKVdMSKqpRLsOIAbaeS-28" target="0HKVdMSKqpRLsOIAbaeS-30">
          <mxGeometry relative="1" as="geometry">
            <Array as="points">
              <mxPoint x="179" y="483" />
            </Array>
          </mxGeometry>
        </mxCell>
        <mxCell id="0HKVdMSKqpRLsOIAbaeS-38" value="" style="curved=1;startArrow=none;;exitX=0.4;exitY=0;entryX=0.11;entryY=0.99;rounded=0;" edge="1" parent="0HKVdMSKqpRLsOIAbaeS-24" source="0HKVdMSKqpRLsOIAbaeS-30" target="0HKVdMSKqpRLsOIAbaeS-26">
          <mxGeometry relative="1" as="geometry">
            <Array as="points">
              <mxPoint x="78" y="483" />
              <mxPoint x="78" y="212" />
            </Array>
          </mxGeometry>
        </mxCell>
        <mxCell id="0HKVdMSKqpRLsOIAbaeS-39" value="" style="curved=1;startArrow=none;;exitX=0.5;exitY=1;entryX=0.5;entryY=0;rounded=0;" edge="1" parent="0HKVdMSKqpRLsOIAbaeS-24" source="0HKVdMSKqpRLsOIAbaeS-29" target="0HKVdMSKqpRLsOIAbaeS-31">
          <mxGeometry relative="1" as="geometry">
            <Array as="points" />
          </mxGeometry>
        </mxCell>
        <mxCell id="0HKVdMSKqpRLsOIAbaeS-40" value="" style="curved=1;startArrow=none;;exitX=0.5;exitY=1;entryX=0.51;entryY=0.01;rounded=0;" edge="1" parent="0HKVdMSKqpRLsOIAbaeS-24" source="0HKVdMSKqpRLsOIAbaeS-31" target="0HKVdMSKqpRLsOIAbaeS-32">
          <mxGeometry relative="1" as="geometry">
            <Array as="points" />
          </mxGeometry>
        </mxCell>
        <mxCell id="0HKVdMSKqpRLsOIAbaeS-41" value="RevisiRencana" style="rounded=1;arcSize=20;strokeWidth=2" vertex="1" parent="1">
          <mxGeometry x="9229" y="999" width="116" height="40" as="geometry" />
        </mxCell>
        <mxCell id="0HKVdMSKqpRLsOIAbaeS-42" value="ForkPenerimaan" style="rounded=1;arcSize=20;strokeWidth=2" vertex="1" parent="1">
          <mxGeometry x="9727" y="575" width="131" height="40" as="geometry" />
        </mxCell>
        <mxCell id="0HKVdMSKqpRLsOIAbaeS-43" value="PersiapanGudang" style="rounded=1;arcSize=20;strokeWidth=2" vertex="1" parent="1">
          <mxGeometry x="9927" y="270" width="138" height="40" as="geometry" />
        </mxCell>
        <mxCell id="0HKVdMSKqpRLsOIAbaeS-44" value="PersiapanSOP" style="rounded=1;arcSize=20;strokeWidth=2" vertex="1" parent="1">
          <mxGeometry x="9940" y="575" width="112" height="40" as="geometry" />
        </mxCell>
        <mxCell id="0HKVdMSKqpRLsOIAbaeS-45" value="PersiapanQC" style="rounded=1;arcSize=20;strokeWidth=2" vertex="1" parent="1">
          <mxGeometry x="9944" y="879" width="105" height="40" as="geometry" />
        </mxCell>
        <mxCell id="0HKVdMSKqpRLsOIAbaeS-46" value="JoinPenerimaan" style="rounded=1;arcSize=20;strokeWidth=2" vertex="1" parent="1">
          <mxGeometry x="10150" y="575" width="130" height="40" as="geometry" />
        </mxCell>
        <mxCell id="0HKVdMSKqpRLsOIAbaeS-47" value="OtorisasiPenerimaan" style="rounded=1;arcSize=20;strokeWidth=2" vertex="1" parent="1">
          <mxGeometry x="10577" y="575" width="162" height="40" as="geometry" />
        </mxCell>
        <mxCell id="0HKVdMSKqpRLsOIAbaeS-48" value="MonitoringInventori" style="swimlane;fontStyle=1;align=center;verticalAlign=middle;startSize=25;container=0;collapsible=0;rounded=1;arcSize=14;dropTarget=0;verticalAlign=top;" vertex="1" parent="1">
          <mxGeometry x="11048" y="55" width="642" height="1079" as="geometry" />
        </mxCell>
        <mxCell id="0HKVdMSKqpRLsOIAbaeS-49" value="" style="ellipse;fillColor=strokeColor;" vertex="1" parent="0HKVdMSKqpRLsOIAbaeS-48">
          <mxGeometry x="299" y="46" width="14" height="14" as="geometry" />
        </mxCell>
        <mxCell id="0HKVdMSKqpRLsOIAbaeS-50" value="PenetapanThreshold" style="rounded=1;arcSize=20;strokeWidth=2" vertex="1" parent="0HKVdMSKqpRLsOIAbaeS-48">
          <mxGeometry x="226" y="135" width="162" height="40" as="geometry" />
        </mxCell>
        <mxCell id="0HKVdMSKqpRLsOIAbaeS-51" value="ReviewStok" style="rounded=1;arcSize=20;strokeWidth=2" vertex="1" parent="0HKVdMSKqpRLsOIAbaeS-48">
          <mxGeometry x="316" y="250" width="97" height="40" as="geometry" />
        </mxCell>
        <mxCell id="0HKVdMSKqpRLsOIAbaeS-52" value="DecisionStok" style="rounded=1;arcSize=20;strokeWidth=2" vertex="1" parent="0HKVdMSKqpRLsOIAbaeS-48">
          <mxGeometry x="311" y="365" width="106" height="40" as="geometry" />
        </mxCell>
        <mxCell id="0HKVdMSKqpRLsOIAbaeS-53" value="AdjustmentStok" style="rounded=1;arcSize=20;strokeWidth=2" vertex="1" parent="0HKVdMSKqpRLsOIAbaeS-48">
          <mxGeometry x="388" y="503" width="130" height="40" as="geometry" />
        </mxCell>
        <mxCell id="0HKVdMSKqpRLsOIAbaeS-54" value="PemeliharaanStok" style="rounded=1;arcSize=20;strokeWidth=2" vertex="1" parent="0HKVdMSKqpRLsOIAbaeS-48">
          <mxGeometry x="111" y="641" width="144" height="40" as="geometry" />
        </mxCell>
        <mxCell id="0HKVdMSKqpRLsOIAbaeS-55" value="PromosiClearance" style="rounded=1;arcSize=20;strokeWidth=2" vertex="1" parent="0HKVdMSKqpRLsOIAbaeS-48">
          <mxGeometry x="467" y="641" width="143" height="40" as="geometry" />
        </mxCell>
        <mxCell id="0HKVdMSKqpRLsOIAbaeS-56" value="OrderDarurat" style="rounded=1;arcSize=20;strokeWidth=2" vertex="1" parent="0HKVdMSKqpRLsOIAbaeS-48">
          <mxGeometry x="305" y="641" width="111" height="40" as="geometry" />
        </mxCell>
        <mxCell id="0HKVdMSKqpRLsOIAbaeS-57" value="ReviewUlang" style="rounded=1;arcSize=20;strokeWidth=2" vertex="1" parent="0HKVdMSKqpRLsOIAbaeS-48">
          <mxGeometry x="307" y="756" width="107" height="40" as="geometry" />
        </mxCell>
        <mxCell id="0HKVdMSKqpRLsOIAbaeS-58" value="DecisionOptimalisasi" style="rounded=1;arcSize=20;strokeWidth=2" vertex="1" parent="0HKVdMSKqpRLsOIAbaeS-48">
          <mxGeometry x="279" y="871" width="163" height="40" as="geometry" />
        </mxCell>
        <mxCell id="0HKVdMSKqpRLsOIAbaeS-59" value="AnalisisBaru" style="rounded=1;arcSize=20;strokeWidth=2" vertex="1" parent="0HKVdMSKqpRLsOIAbaeS-48">
          <mxGeometry x="73" y="1009" width="102" height="40" as="geometry" />
        </mxCell>
        <mxCell id="0HKVdMSKqpRLsOIAbaeS-60" value="" style="ellipse;shape=endState;fillColor=strokeColor;" vertex="1" parent="0HKVdMSKqpRLsOIAbaeS-48">
          <mxGeometry x="532" y="1022" width="14" height="14" as="geometry" />
        </mxCell>
        <mxCell id="0HKVdMSKqpRLsOIAbaeS-61" value="" style="curved=1;startArrow=none;;exitX=0.52;exitY=0.96;entryX=0.5;entryY=-0.01;rounded=0;" edge="1" parent="0HKVdMSKqpRLsOIAbaeS-48" source="0HKVdMSKqpRLsOIAbaeS-49" target="0HKVdMSKqpRLsOIAbaeS-50">
          <mxGeometry relative="1" as="geometry">
            <Array as="points" />
          </mxGeometry>
        </mxCell>
        <mxCell id="0HKVdMSKqpRLsOIAbaeS-62" value="" style="curved=1;startArrow=none;;exitX=0.62;exitY=0.99;entryX=0.5;entryY=-0.01;rounded=0;" edge="1" parent="0HKVdMSKqpRLsOIAbaeS-48" source="0HKVdMSKqpRLsOIAbaeS-50" target="0HKVdMSKqpRLsOIAbaeS-51">
          <mxGeometry relative="1" as="geometry">
            <Array as="points">
              <mxPoint x="365" y="212" />
            </Array>
          </mxGeometry>
        </mxCell>
        <mxCell id="0HKVdMSKqpRLsOIAbaeS-63" value="" style="curved=1;startArrow=none;;exitX=0.5;exitY=0.99;entryX=0.51;entryY=-0.01;rounded=0;" edge="1" parent="0HKVdMSKqpRLsOIAbaeS-48" source="0HKVdMSKqpRLsOIAbaeS-51" target="0HKVdMSKqpRLsOIAbaeS-52">
          <mxGeometry relative="1" as="geometry">
            <Array as="points" />
          </mxGeometry>
        </mxCell>
        <mxCell id="0HKVdMSKqpRLsOIAbaeS-64" value="[Stok Tidak Sesuai Target]" style="curved=1;startArrow=none;;exitX=0.75;exitY=0.99;entryX=0.5;entryY=-0.01;rounded=0;" edge="1" parent="0HKVdMSKqpRLsOIAbaeS-48" source="0HKVdMSKqpRLsOIAbaeS-52" target="0HKVdMSKqpRLsOIAbaeS-53">
          <mxGeometry relative="1" as="geometry">
            <Array as="points">
              <mxPoint x="453" y="454" />
            </Array>
          </mxGeometry>
        </mxCell>
        <mxCell id="0HKVdMSKqpRLsOIAbaeS-65" value="[Stok Sesuai Target]" style="curved=1;startArrow=none;;exitX=0.01;exitY=0.99;entryX=0.5;entryY=-0.01;rounded=0;" edge="1" parent="0HKVdMSKqpRLsOIAbaeS-48" source="0HKVdMSKqpRLsOIAbaeS-52" target="0HKVdMSKqpRLsOIAbaeS-54">
          <mxGeometry relative="1" as="geometry">
            <Array as="points">
              <mxPoint x="183" y="454" />
            </Array>
          </mxGeometry>
        </mxCell>
        <mxCell id="0HKVdMSKqpRLsOIAbaeS-66" value="[Kelebihan Stok]" style="curved=1;startArrow=none;;exitX=0.69;exitY=0.99;entryX=0.5;entryY=-0.01;rounded=0;" edge="1" parent="0HKVdMSKqpRLsOIAbaeS-48" source="0HKVdMSKqpRLsOIAbaeS-53" target="0HKVdMSKqpRLsOIAbaeS-55">
          <mxGeometry relative="1" as="geometry">
            <Array as="points">
              <mxPoint x="539" y="592" />
            </Array>
          </mxGeometry>
        </mxCell>
        <mxCell id="0HKVdMSKqpRLsOIAbaeS-67" value="[Kekurangan Stok]" style="curved=1;startArrow=none;;exitX=0.29;exitY=0.99;entryX=0.5;entryY=-0.01;rounded=0;" edge="1" parent="0HKVdMSKqpRLsOIAbaeS-48" source="0HKVdMSKqpRLsOIAbaeS-53" target="0HKVdMSKqpRLsOIAbaeS-56">
          <mxGeometry relative="1" as="geometry">
            <Array as="points">
              <mxPoint x="360" y="592" />
            </Array>
          </mxGeometry>
        </mxCell>
        <mxCell id="0HKVdMSKqpRLsOIAbaeS-68" value="" style="curved=1;startArrow=none;;exitX=0.5;exitY=0.99;entryX=1;entryY=0.06;rounded=0;" edge="1" parent="0HKVdMSKqpRLsOIAbaeS-48" source="0HKVdMSKqpRLsOIAbaeS-55" target="0HKVdMSKqpRLsOIAbaeS-57">
          <mxGeometry relative="1" as="geometry">
            <Array as="points">
              <mxPoint x="539" y="718" />
            </Array>
          </mxGeometry>
        </mxCell>
        <mxCell id="0HKVdMSKqpRLsOIAbaeS-69" value="" style="curved=1;startArrow=none;;exitX=0.5;exitY=0.99;entryX=0.5;entryY=-0.01;rounded=0;" edge="1" parent="0HKVdMSKqpRLsOIAbaeS-48" source="0HKVdMSKqpRLsOIAbaeS-56" target="0HKVdMSKqpRLsOIAbaeS-57">
          <mxGeometry relative="1" as="geometry">
            <Array as="points" />
          </mxGeometry>
        </mxCell>
        <mxCell id="0HKVdMSKqpRLsOIAbaeS-70" value="" style="curved=1;startArrow=none;;exitX=0.5;exitY=0.99;entryX=0;entryY=0.06;rounded=0;" edge="1" parent="0HKVdMSKqpRLsOIAbaeS-48" source="0HKVdMSKqpRLsOIAbaeS-54" target="0HKVdMSKqpRLsOIAbaeS-57">
          <mxGeometry relative="1" as="geometry">
            <Array as="points">
              <mxPoint x="183" y="718" />
            </Array>
          </mxGeometry>
        </mxCell>
        <mxCell id="0HKVdMSKqpRLsOIAbaeS-71" value="" style="curved=1;startArrow=none;;exitX=0.5;exitY=0.99;entryX=0.5;entryY=-0.01;rounded=0;" edge="1" parent="0HKVdMSKqpRLsOIAbaeS-48" source="0HKVdMSKqpRLsOIAbaeS-57" target="0HKVdMSKqpRLsOIAbaeS-58">
          <mxGeometry relative="1" as="geometry">
            <Array as="points" />
          </mxGeometry>
        </mxCell>
        <mxCell id="0HKVdMSKqpRLsOIAbaeS-72" value="[Perlu Strategi Baru]" style="curved=1;startArrow=none;;exitX=0.18;exitY=0.99;entryX=0.66;entryY=-0.01;rounded=0;" edge="1" parent="0HKVdMSKqpRLsOIAbaeS-48" source="0HKVdMSKqpRLsOIAbaeS-58" target="0HKVdMSKqpRLsOIAbaeS-59">
          <mxGeometry relative="1" as="geometry">
            <Array as="points">
              <mxPoint x="182" y="960" />
            </Array>
          </mxGeometry>
        </mxCell>
        <mxCell id="0HKVdMSKqpRLsOIAbaeS-73" value="[Strategi Berjalan Baik]" style="curved=1;startArrow=none;;exitX=0.82;exitY=0.99;entryX=0.51;entryY=-0.04;rounded=0;" edge="1" parent="0HKVdMSKqpRLsOIAbaeS-48" source="0HKVdMSKqpRLsOIAbaeS-58" target="0HKVdMSKqpRLsOIAbaeS-60">
          <mxGeometry relative="1" as="geometry">
            <Array as="points">
              <mxPoint x="539" y="960" />
            </Array>
          </mxGeometry>
        </mxCell>
        <mxCell id="0HKVdMSKqpRLsOIAbaeS-74" value="" style="curved=1;startArrow=none;;exitX=0.36;exitY=-0.01;entryX=0;entryY=0.99;rounded=0;" edge="1" parent="0HKVdMSKqpRLsOIAbaeS-48" source="0HKVdMSKqpRLsOIAbaeS-59" target="0HKVdMSKqpRLsOIAbaeS-50">
          <mxGeometry relative="1" as="geometry">
            <Array as="points">
              <mxPoint x="76" y="960" />
              <mxPoint x="76" y="212" />
            </Array>
          </mxGeometry>
        </mxCell>
        <mxCell id="0HKVdMSKqpRLsOIAbaeS-75" value="" style="ellipse;shape=endState;fillColor=strokeColor;" vertex="1" parent="1">
          <mxGeometry x="11753" y="588" width="14" height="14" as="geometry" />
        </mxCell>
        <mxCell id="0HKVdMSKqpRLsOIAbaeS-76" value="TAHAP 2: TRANSAKSI DAN LAYANAN" style="swimlane;fontStyle=1;align=center;verticalAlign=middle;startSize=25;container=0;collapsible=0;rounded=1;arcSize=14;dropTarget=0;verticalAlign=top;" vertex="1" parent="1">
          <mxGeometry x="1002" y="1871" width="992" height="4353" as="geometry" />
        </mxCell>
        <mxCell id="0HKVdMSKqpRLsOIAbaeS-77" value="" style="ellipse;fillColor=strokeColor;" vertex="1" parent="0HKVdMSKqpRLsOIAbaeS-76">
          <mxGeometry x="499" y="46" width="14" height="14" as="geometry" />
        </mxCell>
        <mxCell id="0HKVdMSKqpRLsOIAbaeS-78" value="ForkLayanan" style="rounded=1;arcSize=20;strokeWidth=2" vertex="1" parent="0HKVdMSKqpRLsOIAbaeS-76">
          <mxGeometry x="453" y="1491" width="106" height="40" as="geometry" />
        </mxCell>
        <mxCell id="0HKVdMSKqpRLsOIAbaeS-79" value="PerencanaanLayananRegular" style="rounded=1;arcSize=20;strokeWidth=2" vertex="1" parent="0HKVdMSKqpRLsOIAbaeS-76">
          <mxGeometry x="122" y="1606" width="219" height="40" as="geometry" />
        </mxCell>
        <mxCell id="0HKVdMSKqpRLsOIAbaeS-80" value="PerencanaanLayananPremium" style="rounded=1;arcSize=20;strokeWidth=2" vertex="1" parent="0HKVdMSKqpRLsOIAbaeS-76">
          <mxGeometry x="391" y="1606" width="229" height="40" as="geometry" />
        </mxCell>
        <mxCell id="0HKVdMSKqpRLsOIAbaeS-81" value="PerencanaanLayananKhusus" style="rounded=1;arcSize=20;strokeWidth=2" vertex="1" parent="0HKVdMSKqpRLsOIAbaeS-76">
          <mxGeometry x="670" y="1606" width="214" height="40" as="geometry" />
        </mxCell>
        <mxCell id="0HKVdMSKqpRLsOIAbaeS-82" value="JoinLayanan" style="rounded=1;arcSize=20;strokeWidth=2" vertex="1" parent="0HKVdMSKqpRLsOIAbaeS-76">
          <mxGeometry x="454" y="1721" width="104" height="40" as="geometry" />
        </mxCell>
        <mxCell id="0HKVdMSKqpRLsOIAbaeS-83" value="DecisionImplementasi" style="rounded=1;arcSize=20;strokeWidth=2" vertex="1" parent="0HKVdMSKqpRLsOIAbaeS-76">
          <mxGeometry x="420" y="1836" width="172" height="40" as="geometry" />
        </mxCell>
        <mxCell id="0HKVdMSKqpRLsOIAbaeS-84" value="ImplementasiBertahap" style="rounded=1;arcSize=20;strokeWidth=2" vertex="1" parent="0HKVdMSKqpRLsOIAbaeS-76">
          <mxGeometry x="154" y="1974" width="177" height="40" as="geometry" />
        </mxCell>
        <mxCell id="0HKVdMSKqpRLsOIAbaeS-85" value="ImplementasiSerentak" style="rounded=1;arcSize=20;strokeWidth=2" vertex="1" parent="0HKVdMSKqpRLsOIAbaeS-76">
          <mxGeometry x="677" y="1974" width="176" height="40" as="geometry" />
        </mxCell>
        <mxCell id="0HKVdMSKqpRLsOIAbaeS-86" value="DesainProsesTransaksi" style="swimlane;fontStyle=1;align=center;verticalAlign=middle;startSize=25;container=0;collapsible=0;rounded=1;arcSize=14;dropTarget=0;verticalAlign=top;" vertex="1" parent="0HKVdMSKqpRLsOIAbaeS-76">
          <mxGeometry x="238" y="135" width="535" height="1281" as="geometry" />
        </mxCell>
        <mxCell id="0HKVdMSKqpRLsOIAbaeS-87" value="" style="ellipse;fillColor=strokeColor;" vertex="1" parent="0HKVdMSKqpRLsOIAbaeS-86">
          <mxGeometry x="271" y="58" width="14" height="14" as="geometry" />
        </mxCell>
        <mxCell id="0HKVdMSKqpRLsOIAbaeS-88" value="ForkPembayaran" style="rounded=1;arcSize=20;strokeWidth=2" vertex="1" parent="0HKVdMSKqpRLsOIAbaeS-86">
          <mxGeometry x="210" y="172" width="134" height="40" as="geometry" />
        </mxCell>
        <mxCell id="0HKVdMSKqpRLsOIAbaeS-89" value="EvaluasiCash" style="rounded=1;arcSize=20;strokeWidth=2" vertex="1" parent="0HKVdMSKqpRLsOIAbaeS-86">
          <mxGeometry x="394" y="312" width="107" height="40" as="geometry" />
        </mxCell>
        <mxCell id="0HKVdMSKqpRLsOIAbaeS-90" value="EvaluasiDigital" style="rounded=1;arcSize=20;strokeWidth=2" vertex="1" parent="0HKVdMSKqpRLsOIAbaeS-86">
          <mxGeometry x="222" y="312" width="120" height="40" as="geometry" />
        </mxCell>
        <mxCell id="0HKVdMSKqpRLsOIAbaeS-91" value="EvaluasiKredit" style="rounded=1;arcSize=20;strokeWidth=2" vertex="1" parent="0HKVdMSKqpRLsOIAbaeS-86">
          <mxGeometry x="47" y="312" width="118" height="40" as="geometry" />
        </mxCell>
        <mxCell id="0HKVdMSKqpRLsOIAbaeS-92" value="JoinPembayaran" style="rounded=1;arcSize=20;strokeWidth=2" vertex="1" parent="0HKVdMSKqpRLsOIAbaeS-86">
          <mxGeometry x="215" y="452" width="133" height="40" as="geometry" />
        </mxCell>
        <mxCell id="0HKVdMSKqpRLsOIAbaeS-93" value="DecisionMetode" style="rounded=1;arcSize=20;strokeWidth=2" vertex="1" parent="0HKVdMSKqpRLsOIAbaeS-86">
          <mxGeometry x="218" y="592" width="128" height="40" as="geometry" />
        </mxCell>
        <mxCell id="0HKVdMSKqpRLsOIAbaeS-94" value="PenyesuaianSistem" style="rounded=1;arcSize=20;strokeWidth=2" vertex="1" parent="0HKVdMSKqpRLsOIAbaeS-86">
          <mxGeometry x="355" y="755" width="151" height="40" as="geometry" />
        </mxCell>
        <mxCell id="0HKVdMSKqpRLsOIAbaeS-95" value="IntegrasiBerlanjut" style="rounded=1;arcSize=20;strokeWidth=2" vertex="1" parent="0HKVdMSKqpRLsOIAbaeS-86">
          <mxGeometry x="43" y="755" width="145" height="40" as="geometry" />
        </mxCell>
        <mxCell id="0HKVdMSKqpRLsOIAbaeS-96" value="TestingIntegrasi" style="rounded=1;arcSize=20;strokeWidth=2" vertex="1" parent="0HKVdMSKqpRLsOIAbaeS-86">
          <mxGeometry x="218" y="895" width="128" height="40" as="geometry" />
        </mxCell>
        <mxCell id="0HKVdMSKqpRLsOIAbaeS-97" value="DeploymentDecision" style="rounded=1;arcSize=20;strokeWidth=2" vertex="1" parent="0HKVdMSKqpRLsOIAbaeS-86">
          <mxGeometry x="290" y="1035" width="161" height="40" as="geometry" />
        </mxCell>
        <mxCell id="0HKVdMSKqpRLsOIAbaeS-98" value="RevisiSistem" style="rounded=1;arcSize=20;strokeWidth=2" vertex="1" parent="0HKVdMSKqpRLsOIAbaeS-86">
          <mxGeometry x="57" y="1198" width="104" height="40" as="geometry" />
        </mxCell>
        <mxCell id="0HKVdMSKqpRLsOIAbaeS-99" value="" style="ellipse;shape=endState;fillColor=strokeColor;" vertex="1" parent="0HKVdMSKqpRLsOIAbaeS-86">
          <mxGeometry x="442" y="1211" width="14" height="14" as="geometry" />
        </mxCell>
        <mxCell id="0HKVdMSKqpRLsOIAbaeS-100" value="" style="curved=1;startArrow=none;;exitX=0.47;exitY=1;entryX=0.5;entryY=0;rounded=0;" edge="1" parent="0HKVdMSKqpRLsOIAbaeS-86" source="0HKVdMSKqpRLsOIAbaeS-87" target="0HKVdMSKqpRLsOIAbaeS-88">
          <mxGeometry relative="1" as="geometry">
            <Array as="points" />
          </mxGeometry>
        </mxCell>
        <mxCell id="0HKVdMSKqpRLsOIAbaeS-101" value="" style="curved=1;startArrow=none;;exitX=0.87;exitY=1;entryX=0.5;entryY=0;rounded=0;" edge="1" parent="0HKVdMSKqpRLsOIAbaeS-86" source="0HKVdMSKqpRLsOIAbaeS-88" target="0HKVdMSKqpRLsOIAbaeS-89">
          <mxGeometry relative="1" as="geometry">
            <Array as="points">
              <mxPoint x="448" y="262" />
            </Array>
          </mxGeometry>
        </mxCell>
        <mxCell id="0HKVdMSKqpRLsOIAbaeS-102" value="" style="curved=1;startArrow=none;;exitX=0.51;exitY=1;entryX=0.5;entryY=0;rounded=0;" edge="1" parent="0HKVdMSKqpRLsOIAbaeS-86" source="0HKVdMSKqpRLsOIAbaeS-88" target="0HKVdMSKqpRLsOIAbaeS-90">
          <mxGeometry relative="1" as="geometry">
            <Array as="points">
              <mxPoint x="282" y="262" />
            </Array>
          </mxGeometry>
        </mxCell>
        <mxCell id="0HKVdMSKqpRLsOIAbaeS-103" value="" style="curved=1;startArrow=none;;exitX=0.14;exitY=1;entryX=0.5;entryY=0;rounded=0;" edge="1" parent="0HKVdMSKqpRLsOIAbaeS-86" source="0HKVdMSKqpRLsOIAbaeS-88" target="0HKVdMSKqpRLsOIAbaeS-91">
          <mxGeometry relative="1" as="geometry">
            <Array as="points">
              <mxPoint x="106" y="262" />
            </Array>
          </mxGeometry>
        </mxCell>
        <mxCell id="0HKVdMSKqpRLsOIAbaeS-104" value="" style="curved=1;startArrow=none;;exitX=0.5;exitY=1;entryX=0.86;entryY=0;rounded=0;" edge="1" parent="0HKVdMSKqpRLsOIAbaeS-86" source="0HKVdMSKqpRLsOIAbaeS-89" target="0HKVdMSKqpRLsOIAbaeS-92">
          <mxGeometry relative="1" as="geometry">
            <Array as="points">
              <mxPoint x="448" y="402" />
            </Array>
          </mxGeometry>
        </mxCell>
        <mxCell id="0HKVdMSKqpRLsOIAbaeS-105" value="" style="curved=1;startArrow=none;;exitX=0.5;exitY=1;entryX=0.5;entryY=0;rounded=0;" edge="1" parent="0HKVdMSKqpRLsOIAbaeS-86" source="0HKVdMSKqpRLsOIAbaeS-90" target="0HKVdMSKqpRLsOIAbaeS-92">
          <mxGeometry relative="1" as="geometry">
            <Array as="points" />
          </mxGeometry>
        </mxCell>
        <mxCell id="0HKVdMSKqpRLsOIAbaeS-106" value="" style="curved=1;startArrow=none;;exitX=0.5;exitY=1;entryX=0.12;entryY=0;rounded=0;" edge="1" parent="0HKVdMSKqpRLsOIAbaeS-86" source="0HKVdMSKqpRLsOIAbaeS-91" target="0HKVdMSKqpRLsOIAbaeS-92">
          <mxGeometry relative="1" as="geometry">
            <Array as="points">
              <mxPoint x="106" y="402" />
            </Array>
          </mxGeometry>
        </mxCell>
        <mxCell id="0HKVdMSKqpRLsOIAbaeS-107" value="" style="curved=1;startArrow=none;;exitX=0.5;exitY=1;entryX=0.5;entryY=0;rounded=0;" edge="1" parent="0HKVdMSKqpRLsOIAbaeS-86" source="0HKVdMSKqpRLsOIAbaeS-92" target="0HKVdMSKqpRLsOIAbaeS-93">
          <mxGeometry relative="1" as="geometry">
            <Array as="points" />
          </mxGeometry>
        </mxCell>
        <mxCell id="0HKVdMSKqpRLsOIAbaeS-108" value="[Perlu Metode Baru]" style="curved=1;startArrow=none;;exitX=0.78;exitY=1;entryX=0.5;entryY=0;rounded=0;" edge="1" parent="0HKVdMSKqpRLsOIAbaeS-86" source="0HKVdMSKqpRLsOIAbaeS-93" target="0HKVdMSKqpRLsOIAbaeS-94">
          <mxGeometry relative="1" as="geometry">
            <Array as="points">
              <mxPoint x="430" y="694" />
            </Array>
          </mxGeometry>
        </mxCell>
        <mxCell id="0HKVdMSKqpRLsOIAbaeS-109" value="[Metode Cukup]" style="curved=1;startArrow=none;;exitX=0.18;exitY=1;entryX=0.5;entryY=0;rounded=0;" edge="1" parent="0HKVdMSKqpRLsOIAbaeS-86" source="0HKVdMSKqpRLsOIAbaeS-93" target="0HKVdMSKqpRLsOIAbaeS-95">
          <mxGeometry relative="1" as="geometry">
            <Array as="points">
              <mxPoint x="115" y="694" />
            </Array>
          </mxGeometry>
        </mxCell>
        <mxCell id="0HKVdMSKqpRLsOIAbaeS-110" value="" style="curved=1;startArrow=none;;exitX=0.5;exitY=1;entryX=0.83;entryY=0;rounded=0;" edge="1" parent="0HKVdMSKqpRLsOIAbaeS-86" source="0HKVdMSKqpRLsOIAbaeS-94" target="0HKVdMSKqpRLsOIAbaeS-96">
          <mxGeometry relative="1" as="geometry">
            <Array as="points">
              <mxPoint x="430" y="845" />
            </Array>
          </mxGeometry>
        </mxCell>
        <mxCell id="0HKVdMSKqpRLsOIAbaeS-111" value="" style="curved=1;startArrow=none;;exitX=0.5;exitY=1;entryX=0.13;entryY=0;rounded=0;" edge="1" parent="0HKVdMSKqpRLsOIAbaeS-86" source="0HKVdMSKqpRLsOIAbaeS-95" target="0HKVdMSKqpRLsOIAbaeS-96">
          <mxGeometry relative="1" as="geometry">
            <Array as="points">
              <mxPoint x="115" y="845" />
            </Array>
          </mxGeometry>
        </mxCell>
        <mxCell id="0HKVdMSKqpRLsOIAbaeS-112" value="" style="curved=1;startArrow=none;;exitX=0.7;exitY=1;entryX=0.5;entryY=0;rounded=0;" edge="1" parent="0HKVdMSKqpRLsOIAbaeS-86" source="0HKVdMSKqpRLsOIAbaeS-96" target="0HKVdMSKqpRLsOIAbaeS-97">
          <mxGeometry relative="1" as="geometry">
            <Array as="points">
              <mxPoint x="371" y="985" />
            </Array>
          </mxGeometry>
        </mxCell>
        <mxCell id="0HKVdMSKqpRLsOIAbaeS-113" value="[Gagal Testing]" style="curved=1;startArrow=none;;exitX=0.27;exitY=1;entryX=0.76;entryY=0;rounded=0;" edge="1" parent="0HKVdMSKqpRLsOIAbaeS-86" source="0HKVdMSKqpRLsOIAbaeS-97" target="0HKVdMSKqpRLsOIAbaeS-98">
          <mxGeometry relative="1" as="geometry">
            <Array as="points">
              <mxPoint x="219" y="1137" />
            </Array>
          </mxGeometry>
        </mxCell>
        <mxCell id="0HKVdMSKqpRLsOIAbaeS-114" value="[Lulus Testing]" style="curved=1;startArrow=none;;exitX=0.62;exitY=1;entryX=0.46;entryY=0;rounded=0;" edge="1" parent="0HKVdMSKqpRLsOIAbaeS-86" source="0HKVdMSKqpRLsOIAbaeS-97" target="0HKVdMSKqpRLsOIAbaeS-99">
          <mxGeometry relative="1" as="geometry">
            <Array as="points">
              <mxPoint x="449" y="1137" />
            </Array>
          </mxGeometry>
        </mxCell>
        <mxCell id="0HKVdMSKqpRLsOIAbaeS-115" value="" style="curved=1;startArrow=none;;exitX=0.41;exitY=0;entryX=0.03;entryY=1;rounded=0;" edge="1" parent="0HKVdMSKqpRLsOIAbaeS-86" source="0HKVdMSKqpRLsOIAbaeS-98" target="0HKVdMSKqpRLsOIAbaeS-96">
          <mxGeometry relative="1" as="geometry">
            <Array as="points">
              <mxPoint x="72" y="1137" />
              <mxPoint x="72" y="985" />
            </Array>
          </mxGeometry>
        </mxCell>
        <mxCell id="0HKVdMSKqpRLsOIAbaeS-116" value="EvaluasiKepuasan" style="swimlane;fontStyle=1;align=center;verticalAlign=middle;startSize=25;container=0;collapsible=0;rounded=1;arcSize=14;dropTarget=0;verticalAlign=top;" vertex="1" parent="0HKVdMSKqpRLsOIAbaeS-76">
          <mxGeometry x="194" y="2089" width="623" height="1258" as="geometry" />
        </mxCell>
        <mxCell id="0HKVdMSKqpRLsOIAbaeS-117" value="" style="ellipse;fillColor=strokeColor;" vertex="1" parent="0HKVdMSKqpRLsOIAbaeS-116">
          <mxGeometry x="406" y="58" width="14" height="14" as="geometry" />
        </mxCell>
        <mxCell id="0HKVdMSKqpRLsOIAbaeS-118" value="PengumpulanFeedback" style="rounded=1;arcSize=20;strokeWidth=2" vertex="1" parent="0HKVdMSKqpRLsOIAbaeS-116">
          <mxGeometry x="323" y="172" width="179" height="40" as="geometry" />
        </mxCell>
        <mxCell id="0HKVdMSKqpRLsOIAbaeS-119" value="AnalisisFeedback" style="rounded=1;arcSize=20;strokeWidth=2" vertex="1" parent="0HKVdMSKqpRLsOIAbaeS-116">
          <mxGeometry x="286" y="312" width="137" height="40" as="geometry" />
        </mxCell>
        <mxCell id="0HKVdMSKqpRLsOIAbaeS-120" value="DecisionFeedback" style="rounded=1;arcSize=20;strokeWidth=2" vertex="1" parent="0HKVdMSKqpRLsOIAbaeS-116">
          <mxGeometry x="283" y="452" width="143" height="40" as="geometry" />
        </mxCell>
        <mxCell id="0HKVdMSKqpRLsOIAbaeS-121" value="PerbaikanLayanan" style="rounded=1;arcSize=20;strokeWidth=2" vertex="1" parent="0HKVdMSKqpRLsOIAbaeS-116">
          <mxGeometry x="120" y="615" width="145" height="40" as="geometry" />
        </mxCell>
        <mxCell id="0HKVdMSKqpRLsOIAbaeS-122" value="PertahankanLayanan" style="rounded=1;arcSize=20;strokeWidth=2" vertex="1" parent="0HKVdMSKqpRLsOIAbaeS-116">
          <mxGeometry x="360" y="615" width="164" height="40" as="geometry" />
        </mxCell>
        <mxCell id="0HKVdMSKqpRLsOIAbaeS-123" value="ForkPerbaikan" style="rounded=1;arcSize=20;strokeWidth=2" vertex="1" parent="0HKVdMSKqpRLsOIAbaeS-116">
          <mxGeometry x="134" y="755" width="118" height="40" as="geometry" />
        </mxCell>
        <mxCell id="0HKVdMSKqpRLsOIAbaeS-124" value="PelatihanStaff" style="rounded=1;arcSize=20;strokeWidth=2" vertex="1" parent="0HKVdMSKqpRLsOIAbaeS-116">
          <mxGeometry x="43" y="895" width="117" height="40" as="geometry" />
        </mxCell>
        <mxCell id="0HKVdMSKqpRLsOIAbaeS-125" value="RevisiSOP" style="rounded=1;arcSize=20;strokeWidth=2" vertex="1" parent="0HKVdMSKqpRLsOIAbaeS-116">
          <mxGeometry x="210" y="895" width="84" height="40" as="geometry" />
        </mxCell>
        <mxCell id="0HKVdMSKqpRLsOIAbaeS-126" value="UpgradeFasilitas" style="rounded=1;arcSize=20;strokeWidth=2" vertex="1" parent="0HKVdMSKqpRLsOIAbaeS-116">
          <mxGeometry x="360" y="895" width="134" height="40" as="geometry" />
        </mxCell>
        <mxCell id="0HKVdMSKqpRLsOIAbaeS-127" value="JoinPerbaikan" style="rounded=1;arcSize=20;strokeWidth=2" vertex="1" parent="0HKVdMSKqpRLsOIAbaeS-116">
          <mxGeometry x="199" y="1035" width="116" height="40" as="geometry" />
        </mxCell>
        <mxCell id="0HKVdMSKqpRLsOIAbaeS-128" value="ReEvaluasi" style="rounded=1;arcSize=20;strokeWidth=2" vertex="1" parent="0HKVdMSKqpRLsOIAbaeS-116">
          <mxGeometry x="383" y="1175" width="91" height="40" as="geometry" />
        </mxCell>
        <mxCell id="0HKVdMSKqpRLsOIAbaeS-129" value="" style="ellipse;shape=endState;fillColor=strokeColor;" vertex="1" parent="0HKVdMSKqpRLsOIAbaeS-116">
          <mxGeometry x="435" y="768" width="14" height="14" as="geometry" />
        </mxCell>
        <mxCell id="0HKVdMSKqpRLsOIAbaeS-130" value="" style="curved=1;startArrow=none;;exitX=0.48;exitY=1;entryX=0.5;entryY=0;rounded=0;" edge="1" parent="0HKVdMSKqpRLsOIAbaeS-116" source="0HKVdMSKqpRLsOIAbaeS-117" target="0HKVdMSKqpRLsOIAbaeS-118">
          <mxGeometry relative="1" as="geometry">
            <Array as="points" />
          </mxGeometry>
        </mxCell>
        <mxCell id="0HKVdMSKqpRLsOIAbaeS-131" value="" style="curved=1;startArrow=none;;exitX=0.41;exitY=1;entryX=0.5;entryY=0;rounded=0;" edge="1" parent="0HKVdMSKqpRLsOIAbaeS-116" source="0HKVdMSKqpRLsOIAbaeS-118" target="0HKVdMSKqpRLsOIAbaeS-119">
          <mxGeometry relative="1" as="geometry">
            <Array as="points">
              <mxPoint x="354" y="262" />
            </Array>
          </mxGeometry>
        </mxCell>
        <mxCell id="0HKVdMSKqpRLsOIAbaeS-132" value="" style="curved=1;startArrow=none;;exitX=0.5;exitY=1;entryX=0.5;entryY=0;rounded=0;" edge="1" parent="0HKVdMSKqpRLsOIAbaeS-116" source="0HKVdMSKqpRLsOIAbaeS-119" target="0HKVdMSKqpRLsOIAbaeS-120">
          <mxGeometry relative="1" as="geometry">
            <Array as="points" />
          </mxGeometry>
        </mxCell>
        <mxCell id="0HKVdMSKqpRLsOIAbaeS-133" value="[Kepuasan &amp;lt; 80%]" style="curved=1;startArrow=none;;exitX=0.22;exitY=1;entryX=0.5;entryY=0;rounded=0;" edge="1" parent="0HKVdMSKqpRLsOIAbaeS-116" source="0HKVdMSKqpRLsOIAbaeS-120" target="0HKVdMSKqpRLsOIAbaeS-121">
          <mxGeometry relative="1" as="geometry">
            <Array as="points">
              <mxPoint x="192" y="554" />
            </Array>
          </mxGeometry>
        </mxCell>
        <mxCell id="0HKVdMSKqpRLsOIAbaeS-134" value="[Kepuasan &gt;= 80%]" style="curved=1;startArrow=none;;exitX=0.65;exitY=1;entryX=0.5;entryY=0;rounded=0;" edge="1" parent="0HKVdMSKqpRLsOIAbaeS-116" source="0HKVdMSKqpRLsOIAbaeS-120" target="0HKVdMSKqpRLsOIAbaeS-122">
          <mxGeometry relative="1" as="geometry">
            <Array as="points">
              <mxPoint x="442" y="554" />
            </Array>
          </mxGeometry>
        </mxCell>
        <mxCell id="0HKVdMSKqpRLsOIAbaeS-135" value="" style="curved=1;startArrow=none;;exitX=0.5;exitY=1;entryX=0.5;entryY=0;rounded=0;" edge="1" parent="0HKVdMSKqpRLsOIAbaeS-116" source="0HKVdMSKqpRLsOIAbaeS-121" target="0HKVdMSKqpRLsOIAbaeS-123">
          <mxGeometry relative="1" as="geometry">
            <Array as="points" />
          </mxGeometry>
        </mxCell>
        <mxCell id="0HKVdMSKqpRLsOIAbaeS-136" value="" style="curved=1;startArrow=none;;exitX=0.28;exitY=1;entryX=0.5;entryY=0;rounded=0;" edge="1" parent="0HKVdMSKqpRLsOIAbaeS-116" source="0HKVdMSKqpRLsOIAbaeS-123" target="0HKVdMSKqpRLsOIAbaeS-124">
          <mxGeometry relative="1" as="geometry">
            <Array as="points">
              <mxPoint x="102" y="845" />
            </Array>
          </mxGeometry>
        </mxCell>
        <mxCell id="0HKVdMSKqpRLsOIAbaeS-137" value="" style="curved=1;startArrow=none;;exitX=0.64;exitY=1;entryX=0.5;entryY=0;rounded=0;" edge="1" parent="0HKVdMSKqpRLsOIAbaeS-116" source="0HKVdMSKqpRLsOIAbaeS-123" target="0HKVdMSKqpRLsOIAbaeS-125">
          <mxGeometry relative="1" as="geometry">
            <Array as="points">
              <mxPoint x="252" y="845" />
            </Array>
          </mxGeometry>
        </mxCell>
        <mxCell id="0HKVdMSKqpRLsOIAbaeS-138" value="" style="curved=1;startArrow=none;;exitX=0.99;exitY=0.94;entryX=0.5;entryY=0;rounded=0;" edge="1" parent="0HKVdMSKqpRLsOIAbaeS-116" source="0HKVdMSKqpRLsOIAbaeS-123" target="0HKVdMSKqpRLsOIAbaeS-126">
          <mxGeometry relative="1" as="geometry">
            <Array as="points">
              <mxPoint x="427" y="845" />
            </Array>
          </mxGeometry>
        </mxCell>
        <mxCell id="0HKVdMSKqpRLsOIAbaeS-139" value="" style="curved=1;startArrow=none;;exitX=0.5;exitY=1;entryX=0.11;entryY=0;rounded=0;" edge="1" parent="0HKVdMSKqpRLsOIAbaeS-116" source="0HKVdMSKqpRLsOIAbaeS-124" target="0HKVdMSKqpRLsOIAbaeS-127">
          <mxGeometry relative="1" as="geometry">
            <Array as="points">
              <mxPoint x="102" y="985" />
            </Array>
          </mxGeometry>
        </mxCell>
        <mxCell id="0HKVdMSKqpRLsOIAbaeS-140" value="" style="curved=1;startArrow=none;;exitX=0.5;exitY=1;entryX=0.48;entryY=0;rounded=0;" edge="1" parent="0HKVdMSKqpRLsOIAbaeS-116" source="0HKVdMSKqpRLsOIAbaeS-125" target="0HKVdMSKqpRLsOIAbaeS-127">
          <mxGeometry relative="1" as="geometry">
            <Array as="points">
              <mxPoint x="252" y="985" />
            </Array>
          </mxGeometry>
        </mxCell>
        <mxCell id="0HKVdMSKqpRLsOIAbaeS-141" value="" style="curved=1;startArrow=none;;exitX=0.5;exitY=1;entryX=0.91;entryY=0;rounded=0;" edge="1" parent="0HKVdMSKqpRLsOIAbaeS-116" source="0HKVdMSKqpRLsOIAbaeS-126" target="0HKVdMSKqpRLsOIAbaeS-127">
          <mxGeometry relative="1" as="geometry">
            <Array as="points">
              <mxPoint x="427" y="985" />
            </Array>
          </mxGeometry>
        </mxCell>
        <mxCell id="0HKVdMSKqpRLsOIAbaeS-142" value="" style="curved=1;startArrow=none;;exitX=0.5;exitY=1;entryX=0;entryY=0.04;rounded=0;" edge="1" parent="0HKVdMSKqpRLsOIAbaeS-116" source="0HKVdMSKqpRLsOIAbaeS-127" target="0HKVdMSKqpRLsOIAbaeS-128">
          <mxGeometry relative="1" as="geometry">
            <Array as="points">
              <mxPoint x="256" y="1125" />
            </Array>
          </mxGeometry>
        </mxCell>
        <mxCell id="0HKVdMSKqpRLsOIAbaeS-143" value="" style="curved=1;startArrow=none;;exitX=0.5;exitY=1;entryX=0.5;entryY=0;rounded=0;" edge="1" parent="0HKVdMSKqpRLsOIAbaeS-116" source="0HKVdMSKqpRLsOIAbaeS-122" target="0HKVdMSKqpRLsOIAbaeS-129">
          <mxGeometry relative="1" as="geometry">
            <Array as="points" />
          </mxGeometry>
        </mxCell>
        <mxCell id="0HKVdMSKqpRLsOIAbaeS-144" value="" style="curved=1;startArrow=none;;exitX=0.91;exitY=0;entryX=0.73;entryY=1;rounded=0;" edge="1" parent="0HKVdMSKqpRLsOIAbaeS-116" source="0HKVdMSKqpRLsOIAbaeS-128" target="0HKVdMSKqpRLsOIAbaeS-118">
          <mxGeometry relative="1" as="geometry">
            <Array as="points">
              <mxPoint x="559" y="1125" />
              <mxPoint x="559" y="262" />
            </Array>
          </mxGeometry>
        </mxCell>
        <mxCell id="0HKVdMSKqpRLsOIAbaeS-145" value="OtorisasiLaporan" style="swimlane;fontStyle=1;align=center;verticalAlign=middle;startSize=25;container=0;collapsible=0;rounded=1;arcSize=14;dropTarget=0;verticalAlign=top;" vertex="1" parent="0HKVdMSKqpRLsOIAbaeS-76">
          <mxGeometry x="289" y="3422" width="434" height="812" as="geometry" />
        </mxCell>
        <mxCell id="0HKVdMSKqpRLsOIAbaeS-146" value="" style="ellipse;fillColor=strokeColor;" vertex="1" parent="0HKVdMSKqpRLsOIAbaeS-145">
          <mxGeometry x="198" y="58" width="14" height="14" as="geometry" />
        </mxCell>
        <mxCell id="0HKVdMSKqpRLsOIAbaeS-147" value="PenyusunanLaporan" style="rounded=1;arcSize=20;strokeWidth=2" vertex="1" parent="0HKVdMSKqpRLsOIAbaeS-145">
          <mxGeometry x="127" y="172" width="157" height="40" as="geometry" />
        </mxCell>
        <mxCell id="0HKVdMSKqpRLsOIAbaeS-148" value="ReviewLaporan" style="rounded=1;arcSize=20;strokeWidth=2" vertex="1" parent="0HKVdMSKqpRLsOIAbaeS-145">
          <mxGeometry x="143" y="312" width="124" height="40" as="geometry" />
        </mxCell>
        <mxCell id="0HKVdMSKqpRLsOIAbaeS-149" value="DecisionLaporan" style="rounded=1;arcSize=20;strokeWidth=2" vertex="1" parent="0HKVdMSKqpRLsOIAbaeS-145">
          <mxGeometry x="189" y="452" width="133" height="40" as="geometry" />
        </mxCell>
        <mxCell id="0HKVdMSKqpRLsOIAbaeS-150" value="RevisiLaporan" style="rounded=1;arcSize=20;strokeWidth=2" vertex="1" parent="0HKVdMSKqpRLsOIAbaeS-145">
          <mxGeometry x="59" y="615" width="114" height="40" as="geometry" />
        </mxCell>
        <mxCell id="0HKVdMSKqpRLsOIAbaeS-151" value="DistribusiLaporan" style="rounded=1;arcSize=20;strokeWidth=2" vertex="1" parent="0HKVdMSKqpRLsOIAbaeS-145">
          <mxGeometry x="263" y="615" width="140" height="40" as="geometry" />
        </mxCell>
        <mxCell id="0HKVdMSKqpRLsOIAbaeS-152" value="" style="ellipse;shape=endState;fillColor=strokeColor;" vertex="1" parent="0HKVdMSKqpRLsOIAbaeS-145">
          <mxGeometry x="326" y="755" width="14" height="14" as="geometry" />
        </mxCell>
        <mxCell id="0HKVdMSKqpRLsOIAbaeS-153" value="" style="curved=1;startArrow=none;;exitX=0.51;exitY=1;entryX=0.5;entryY=0;rounded=0;" edge="1" parent="0HKVdMSKqpRLsOIAbaeS-145" source="0HKVdMSKqpRLsOIAbaeS-146" target="0HKVdMSKqpRLsOIAbaeS-147">
          <mxGeometry relative="1" as="geometry">
            <Array as="points" />
          </mxGeometry>
        </mxCell>
        <mxCell id="0HKVdMSKqpRLsOIAbaeS-154" value="" style="curved=1;startArrow=none;;exitX=0.5;exitY=1;entryX=0.5;entryY=0;rounded=0;" edge="1" parent="0HKVdMSKqpRLsOIAbaeS-145" source="0HKVdMSKqpRLsOIAbaeS-147" target="0HKVdMSKqpRLsOIAbaeS-148">
          <mxGeometry relative="1" as="geometry">
            <Array as="points" />
          </mxGeometry>
        </mxCell>
        <mxCell id="0HKVdMSKqpRLsOIAbaeS-155" value="" style="curved=1;startArrow=none;;exitX=0.62;exitY=1;entryX=0.5;entryY=0;rounded=0;" edge="1" parent="0HKVdMSKqpRLsOIAbaeS-145" source="0HKVdMSKqpRLsOIAbaeS-148" target="0HKVdMSKqpRLsOIAbaeS-149">
          <mxGeometry relative="1" as="geometry">
            <Array as="points">
              <mxPoint x="256" y="402" />
            </Array>
          </mxGeometry>
        </mxCell>
        <mxCell id="0HKVdMSKqpRLsOIAbaeS-156" value="[Perlu Perbaikan]" style="curved=1;startArrow=none;;exitX=0.34;exitY=1;entryX=0.61;entryY=0;rounded=0;" edge="1" parent="0HKVdMSKqpRLsOIAbaeS-145" source="0HKVdMSKqpRLsOIAbaeS-149" target="0HKVdMSKqpRLsOIAbaeS-150">
          <mxGeometry relative="1" as="geometry">
            <Array as="points">
              <mxPoint x="167" y="554" />
            </Array>
          </mxGeometry>
        </mxCell>
        <mxCell id="0HKVdMSKqpRLsOIAbaeS-157" value="[Laporan Disetujui]" style="curved=1;startArrow=none;;exitX=0.64;exitY=1;entryX=0.5;entryY=0;rounded=0;" edge="1" parent="0HKVdMSKqpRLsOIAbaeS-145" source="0HKVdMSKqpRLsOIAbaeS-149" target="0HKVdMSKqpRLsOIAbaeS-151">
          <mxGeometry relative="1" as="geometry">
            <Array as="points">
              <mxPoint x="333" y="554" />
            </Array>
          </mxGeometry>
        </mxCell>
        <mxCell id="0HKVdMSKqpRLsOIAbaeS-158" value="" style="curved=1;startArrow=none;;exitX=0.41;exitY=0;entryX=0.2;entryY=1;rounded=0;" edge="1" parent="0HKVdMSKqpRLsOIAbaeS-145" source="0HKVdMSKqpRLsOIAbaeS-150" target="0HKVdMSKqpRLsOIAbaeS-148">
          <mxGeometry relative="1" as="geometry">
            <Array as="points">
              <mxPoint x="75" y="554" />
              <mxPoint x="75" y="402" />
            </Array>
          </mxGeometry>
        </mxCell>
        <mxCell id="0HKVdMSKqpRLsOIAbaeS-159" value="" style="curved=1;startArrow=none;;exitX=0.5;exitY=1;entryX=0.51;entryY=0;rounded=0;" edge="1" parent="0HKVdMSKqpRLsOIAbaeS-145" source="0HKVdMSKqpRLsOIAbaeS-151" target="0HKVdMSKqpRLsOIAbaeS-152">
          <mxGeometry relative="1" as="geometry">
            <Array as="points" />
          </mxGeometry>
        </mxCell>
        <mxCell id="0HKVdMSKqpRLsOIAbaeS-160" value="" style="ellipse;shape=endState;fillColor=strokeColor;" vertex="1" parent="0HKVdMSKqpRLsOIAbaeS-76">
          <mxGeometry x="499" y="4309" width="14" height="14" as="geometry" />
        </mxCell>
        <mxCell id="0HKVdMSKqpRLsOIAbaeS-161" value="" style="curved=1;startArrow=none;;exitX=0;exitY=0.77;entryX=0.5;entryY=-0.01;rounded=0;" edge="1" parent="0HKVdMSKqpRLsOIAbaeS-76" source="0HKVdMSKqpRLsOIAbaeS-78" target="0HKVdMSKqpRLsOIAbaeS-79">
          <mxGeometry relative="1" as="geometry">
            <Array as="points">
              <mxPoint x="232" y="1568" />
            </Array>
          </mxGeometry>
        </mxCell>
        <mxCell id="0HKVdMSKqpRLsOIAbaeS-162" value="" style="curved=1;startArrow=none;;exitX=0.5;exitY=0.99;entryX=0.5;entryY=-0.01;rounded=0;" edge="1" parent="0HKVdMSKqpRLsOIAbaeS-76" source="0HKVdMSKqpRLsOIAbaeS-78" target="0HKVdMSKqpRLsOIAbaeS-80">
          <mxGeometry relative="1" as="geometry">
            <Array as="points" />
          </mxGeometry>
        </mxCell>
        <mxCell id="0HKVdMSKqpRLsOIAbaeS-163" value="" style="curved=1;startArrow=none;;exitX=1;exitY=0.77;entryX=0.5;entryY=-0.01;rounded=0;" edge="1" parent="0HKVdMSKqpRLsOIAbaeS-76" source="0HKVdMSKqpRLsOIAbaeS-78" target="0HKVdMSKqpRLsOIAbaeS-81">
          <mxGeometry relative="1" as="geometry">
            <Array as="points">
              <mxPoint x="777" y="1568" />
            </Array>
          </mxGeometry>
        </mxCell>
        <mxCell id="0HKVdMSKqpRLsOIAbaeS-164" value="" style="curved=1;startArrow=none;;exitX=0.5;exitY=0.99;entryX=0;entryY=0.21;rounded=0;" edge="1" parent="0HKVdMSKqpRLsOIAbaeS-76" source="0HKVdMSKqpRLsOIAbaeS-79" target="0HKVdMSKqpRLsOIAbaeS-82">
          <mxGeometry relative="1" as="geometry">
            <Array as="points">
              <mxPoint x="232" y="1683" />
            </Array>
          </mxGeometry>
        </mxCell>
        <mxCell id="0HKVdMSKqpRLsOIAbaeS-165" value="" style="curved=1;startArrow=none;;exitX=0.5;exitY=0.99;entryX=0.5;entryY=-0.01;rounded=0;" edge="1" parent="0HKVdMSKqpRLsOIAbaeS-76" source="0HKVdMSKqpRLsOIAbaeS-80" target="0HKVdMSKqpRLsOIAbaeS-82">
          <mxGeometry relative="1" as="geometry">
            <Array as="points" />
          </mxGeometry>
        </mxCell>
        <mxCell id="0HKVdMSKqpRLsOIAbaeS-166" value="" style="curved=1;startArrow=none;;exitX=0.5;exitY=0.99;entryX=1;entryY=0.21;rounded=0;" edge="1" parent="0HKVdMSKqpRLsOIAbaeS-76" source="0HKVdMSKqpRLsOIAbaeS-81" target="0HKVdMSKqpRLsOIAbaeS-82">
          <mxGeometry relative="1" as="geometry">
            <Array as="points">
              <mxPoint x="777" y="1683" />
            </Array>
          </mxGeometry>
        </mxCell>
        <mxCell id="0HKVdMSKqpRLsOIAbaeS-167" value="" style="curved=1;startArrow=none;;exitX=0.5;exitY=0.99;entryX=0.5;entryY=-0.01;rounded=0;" edge="1" parent="0HKVdMSKqpRLsOIAbaeS-76" source="0HKVdMSKqpRLsOIAbaeS-82" target="0HKVdMSKqpRLsOIAbaeS-83">
          <mxGeometry relative="1" as="geometry">
            <Array as="points" />
          </mxGeometry>
        </mxCell>
        <mxCell id="0HKVdMSKqpRLsOIAbaeS-168" value="[Sumber Daya Terbatas]" style="curved=1;startArrow=none;;exitX=0.06;exitY=0.99;entryX=0.5;entryY=-0.01;rounded=0;" edge="1" parent="0HKVdMSKqpRLsOIAbaeS-76" source="0HKVdMSKqpRLsOIAbaeS-83" target="0HKVdMSKqpRLsOIAbaeS-84">
          <mxGeometry relative="1" as="geometry">
            <Array as="points">
              <mxPoint x="243" y="1925" />
            </Array>
          </mxGeometry>
        </mxCell>
        <mxCell id="0HKVdMSKqpRLsOIAbaeS-169" value="[Sumber Daya Cukup]" style="curved=1;startArrow=none;;exitX=0.94;exitY=0.99;entryX=0.5;entryY=-0.01;rounded=0;" edge="1" parent="0HKVdMSKqpRLsOIAbaeS-76" source="0HKVdMSKqpRLsOIAbaeS-83" target="0HKVdMSKqpRLsOIAbaeS-85">
          <mxGeometry relative="1" as="geometry">
            <Array as="points">
              <mxPoint x="765" y="1925" />
            </Array>
          </mxGeometry>
        </mxCell>
        <mxCell id="0HKVdMSKqpRLsOIAbaeS-170" value="" style="curved=1;startArrow=none;;exitX=0.48;exitY=0.96;entryX=0.5;entryY=0;rounded=0;" edge="1" parent="0HKVdMSKqpRLsOIAbaeS-76" source="0HKVdMSKqpRLsOIAbaeS-77" target="0HKVdMSKqpRLsOIAbaeS-86">
          <mxGeometry relative="1" as="geometry">
            <Array as="points" />
          </mxGeometry>
        </mxCell>
        <mxCell id="0HKVdMSKqpRLsOIAbaeS-171" value="" style="curved=1;startArrow=none;;exitX=0.5;exitY=1;entryX=0.5;entryY=-0.01;rounded=0;" edge="1" parent="0HKVdMSKqpRLsOIAbaeS-76" source="0HKVdMSKqpRLsOIAbaeS-86" target="0HKVdMSKqpRLsOIAbaeS-78">
          <mxGeometry relative="1" as="geometry">
            <Array as="points" />
          </mxGeometry>
        </mxCell>
        <mxCell id="0HKVdMSKqpRLsOIAbaeS-172" value="" style="curved=1;startArrow=none;;exitX=0.5;exitY=0.99;entryX=0.1;entryY=0;rounded=0;" edge="1" parent="0HKVdMSKqpRLsOIAbaeS-76" source="0HKVdMSKqpRLsOIAbaeS-84" target="0HKVdMSKqpRLsOIAbaeS-116">
          <mxGeometry relative="1" as="geometry">
            <Array as="points">
              <mxPoint x="243" y="2051" />
            </Array>
          </mxGeometry>
        </mxCell>
        <mxCell id="0HKVdMSKqpRLsOIAbaeS-173" value="" style="curved=1;startArrow=none;;exitX=0.5;exitY=0.99;entryX=0.89;entryY=0;rounded=0;" edge="1" parent="0HKVdMSKqpRLsOIAbaeS-76" source="0HKVdMSKqpRLsOIAbaeS-85" target="0HKVdMSKqpRLsOIAbaeS-116">
          <mxGeometry relative="1" as="geometry">
            <Array as="points">
              <mxPoint x="765" y="2051" />
            </Array>
          </mxGeometry>
        </mxCell>
        <mxCell id="0HKVdMSKqpRLsOIAbaeS-174" value="" style="curved=1;startArrow=none;;exitX=0.5;exitY=1;entryX=0.5;entryY=0;rounded=0;" edge="1" parent="0HKVdMSKqpRLsOIAbaeS-76" source="0HKVdMSKqpRLsOIAbaeS-116" target="0HKVdMSKqpRLsOIAbaeS-145">
          <mxGeometry relative="1" as="geometry">
            <Array as="points" />
          </mxGeometry>
        </mxCell>
        <mxCell id="0HKVdMSKqpRLsOIAbaeS-175" value="" style="curved=1;startArrow=none;;exitX=0.5;exitY=1;entryX=0.48;entryY=-0.04;rounded=0;" edge="1" parent="0HKVdMSKqpRLsOIAbaeS-76" source="0HKVdMSKqpRLsOIAbaeS-145" target="0HKVdMSKqpRLsOIAbaeS-160">
          <mxGeometry relative="1" as="geometry">
            <Array as="points" />
          </mxGeometry>
        </mxCell>
        <mxCell id="0HKVdMSKqpRLsOIAbaeS-176" value="TAHAP 3: MANAJEMEN OPERASIONAL" style="swimlane;fontStyle=1;align=center;verticalAlign=middle;startSize=25;container=0;collapsible=0;rounded=1;arcSize=14;dropTarget=0;verticalAlign=top;" vertex="1" parent="1">
          <mxGeometry x="2591" y="3755" width="2933" height="3859" as="geometry" />
        </mxCell>
        <mxCell id="0HKVdMSKqpRLsOIAbaeS-177" value="" style="ellipse;fillColor=strokeColor;" vertex="1" parent="0HKVdMSKqpRLsOIAbaeS-176">
          <mxGeometry x="759" y="46" width="14" height="14" as="geometry" />
        </mxCell>
        <mxCell id="0HKVdMSKqpRLsOIAbaeS-178" value="ForkOperasional" style="rounded=1;arcSize=20;strokeWidth=2" vertex="1" parent="0HKVdMSKqpRLsOIAbaeS-176">
          <mxGeometry x="700" y="135" width="132" height="40" as="geometry" />
        </mxCell>
        <mxCell id="0HKVdMSKqpRLsOIAbaeS-179" value="" style="ellipse;fillColor=strokeColor;" vertex="1" parent="0HKVdMSKqpRLsOIAbaeS-176">
          <mxGeometry x="352" y="896" width="14" height="14" as="geometry" />
        </mxCell>
        <mxCell id="0HKVdMSKqpRLsOIAbaeS-180" value="PenilaianRisiko" style="rounded=1;arcSize=20;strokeWidth=2" vertex="1" parent="0HKVdMSKqpRLsOIAbaeS-176">
          <mxGeometry x="288" y="1594" width="123" height="40" as="geometry" />
        </mxCell>
        <mxCell id="0HKVdMSKqpRLsOIAbaeS-181" value="ForkKeamanan" style="rounded=1;arcSize=20;strokeWidth=2" vertex="1" parent="0HKVdMSKqpRLsOIAbaeS-176">
          <mxGeometry x="289" y="1709" width="121" height="40" as="geometry" />
        </mxCell>
        <mxCell id="0HKVdMSKqpRLsOIAbaeS-182" value="KeamananFisik" style="rounded=1;arcSize=20;strokeWidth=2" vertex="1" parent="0HKVdMSKqpRLsOIAbaeS-176">
          <mxGeometry x="599" y="1824" width="122" height="40" as="geometry" />
        </mxCell>
        <mxCell id="0HKVdMSKqpRLsOIAbaeS-183" value="KeamananDigital" style="rounded=1;arcSize=20;strokeWidth=2" vertex="1" parent="0HKVdMSKqpRLsOIAbaeS-176">
          <mxGeometry x="281" y="1824" width="136" height="40" as="geometry" />
        </mxCell>
        <mxCell id="0HKVdMSKqpRLsOIAbaeS-184" value="KeamananPersonel" style="rounded=1;arcSize=20;strokeWidth=2" vertex="1" parent="0HKVdMSKqpRLsOIAbaeS-176">
          <mxGeometry x="63" y="2755" width="150" height="40" as="geometry" />
        </mxCell>
        <mxCell id="0HKVdMSKqpRLsOIAbaeS-185" value="DecisionFisik" style="rounded=1;arcSize=20;strokeWidth=2" vertex="1" parent="0HKVdMSKqpRLsOIAbaeS-176">
          <mxGeometry x="606" y="1939" width="107" height="40" as="geometry" />
        </mxCell>
        <mxCell id="0HKVdMSKqpRLsOIAbaeS-186" value="UpgradeSistem" style="rounded=1;arcSize=20;strokeWidth=2" vertex="1" parent="0HKVdMSKqpRLsOIAbaeS-176">
          <mxGeometry x="1790" y="2755" width="123" height="40" as="geometry" />
        </mxCell>
        <mxCell id="0HKVdMSKqpRLsOIAbaeS-187" value="MaintainSistem" style="rounded=1;arcSize=20;strokeWidth=2" vertex="1" parent="0HKVdMSKqpRLsOIAbaeS-176">
          <mxGeometry x="573" y="2755" width="124" height="40" as="geometry" />
        </mxCell>
        <mxCell id="0HKVdMSKqpRLsOIAbaeS-188" value="JoinKeamanan" style="rounded=1;arcSize=20;strokeWidth=2" vertex="1" parent="0HKVdMSKqpRLsOIAbaeS-176">
          <mxGeometry x="410" y="3547" width="119" height="40" as="geometry" />
        </mxCell>
        <mxCell id="0HKVdMSKqpRLsOIAbaeS-189" value="DecisionDigital" style="rounded=1;arcSize=20;strokeWidth=2" vertex="1" parent="0HKVdMSKqpRLsOIAbaeS-176">
          <mxGeometry x="288" y="1939" width="122" height="40" as="geometry" />
        </mxCell>
        <mxCell id="0HKVdMSKqpRLsOIAbaeS-190" value="InvestasiTI" style="rounded=1;arcSize=20;strokeWidth=2" vertex="1" parent="0HKVdMSKqpRLsOIAbaeS-176">
          <mxGeometry x="424" y="2755" width="92" height="40" as="geometry" />
        </mxCell>
        <mxCell id="0HKVdMSKqpRLsOIAbaeS-191" value="AuditRutin" style="rounded=1;arcSize=20;strokeWidth=2" vertex="1" parent="0HKVdMSKqpRLsOIAbaeS-176">
          <mxGeometry x="263" y="2755" width="91" height="40" as="geometry" />
        </mxCell>
        <mxCell id="0HKVdMSKqpRLsOIAbaeS-192" value="ImplementasiKeamanan" style="rounded=1;arcSize=20;strokeWidth=2" vertex="1" parent="0HKVdMSKqpRLsOIAbaeS-176">
          <mxGeometry x="377" y="3662" width="186" height="40" as="geometry" />
        </mxCell>
        <mxCell id="0HKVdMSKqpRLsOIAbaeS-193" value="" style="ellipse;shape=endState;fillColor=strokeColor;" vertex="1" parent="0HKVdMSKqpRLsOIAbaeS-176">
          <mxGeometry x="463" y="3777" width="14" height="14" as="geometry" />
        </mxCell>
        <mxCell id="0HKVdMSKqpRLsOIAbaeS-194" value="JoinOperasional" style="rounded=1;arcSize=20;strokeWidth=2" vertex="1" parent="0HKVdMSKqpRLsOIAbaeS-176">
          <mxGeometry x="1227" y="1594" width="130" height="40" as="geometry" />
        </mxCell>
        <mxCell id="0HKVdMSKqpRLsOIAbaeS-195" value="DecisionLanjut" style="rounded=1;arcSize=20;strokeWidth=2" vertex="1" parent="0HKVdMSKqpRLsOIAbaeS-176">
          <mxGeometry x="1231" y="1939" width="122" height="40" as="geometry" />
        </mxCell>
        <mxCell id="0HKVdMSKqpRLsOIAbaeS-196" value="" style="ellipse;fillColor=strokeColor;" vertex="1" parent="0HKVdMSKqpRLsOIAbaeS-176">
          <mxGeometry x="2364" y="896" width="14" height="14" as="geometry" />
        </mxCell>
        <mxCell id="0HKVdMSKqpRLsOIAbaeS-197" value="AuditAset" style="rounded=1;arcSize=20;strokeWidth=2" vertex="1" parent="0HKVdMSKqpRLsOIAbaeS-176">
          <mxGeometry x="2329" y="1594" width="85" height="40" as="geometry" />
        </mxCell>
        <mxCell id="0HKVdMSKqpRLsOIAbaeS-198" value="ForkInfrastruktur" style="rounded=1;arcSize=20;strokeWidth=2" vertex="1" parent="0HKVdMSKqpRLsOIAbaeS-176">
          <mxGeometry x="2302" y="1709" width="138" height="40" as="geometry" />
        </mxCell>
        <mxCell id="0HKVdMSKqpRLsOIAbaeS-199" value="EvaluasiGedung" style="rounded=1;arcSize=20;strokeWidth=2" vertex="1" parent="0HKVdMSKqpRLsOIAbaeS-176">
          <mxGeometry x="2662" y="1824" width="128" height="40" as="geometry" />
        </mxCell>
        <mxCell id="0HKVdMSKqpRLsOIAbaeS-200" value="EvaluasiPeralatan" style="rounded=1;arcSize=20;strokeWidth=2" vertex="1" parent="0HKVdMSKqpRLsOIAbaeS-176">
          <mxGeometry x="2300" y="1824" width="142" height="40" as="geometry" />
        </mxCell>
        <mxCell id="0HKVdMSKqpRLsOIAbaeS-201" value="EvaluasiTeknologi" style="rounded=1;arcSize=20;strokeWidth=2" vertex="1" parent="0HKVdMSKqpRLsOIAbaeS-176">
          <mxGeometry x="1972" y="1824" width="141" height="40" as="geometry" />
        </mxCell>
        <mxCell id="0HKVdMSKqpRLsOIAbaeS-202" value="DecisionGedung" style="rounded=1;arcSize=20;strokeWidth=2" vertex="1" parent="0HKVdMSKqpRLsOIAbaeS-176">
          <mxGeometry x="2661" y="1939" width="129" height="40" as="geometry" />
        </mxCell>
        <mxCell id="0HKVdMSKqpRLsOIAbaeS-203" value="RenovasiGedung" style="rounded=1;arcSize=20;strokeWidth=2" vertex="1" parent="0HKVdMSKqpRLsOIAbaeS-176">
          <mxGeometry x="2753" y="2755" width="132" height="40" as="geometry" />
        </mxCell>
        <mxCell id="0HKVdMSKqpRLsOIAbaeS-204" value="MaintainGedung" style="rounded=1;arcSize=20;strokeWidth=2" vertex="1" parent="0HKVdMSKqpRLsOIAbaeS-176">
          <mxGeometry x="2572" y="2755" width="131" height="40" as="geometry" />
        </mxCell>
        <mxCell id="0HKVdMSKqpRLsOIAbaeS-205" value="JoinInfrastruktur" style="rounded=1;arcSize=20;strokeWidth=2" vertex="1" parent="0HKVdMSKqpRLsOIAbaeS-176">
          <mxGeometry x="2306" y="3547" width="136" height="40" as="geometry" />
        </mxCell>
        <mxCell id="0HKVdMSKqpRLsOIAbaeS-206" value="DecisionPeralatan" style="rounded=1;arcSize=20;strokeWidth=2" vertex="1" parent="0HKVdMSKqpRLsOIAbaeS-176">
          <mxGeometry x="2300" y="1939" width="144" height="40" as="geometry" />
        </mxCell>
        <mxCell id="0HKVdMSKqpRLsOIAbaeS-207" value="PembelianBaru" style="rounded=1;arcSize=20;strokeWidth=2" vertex="1" parent="0HKVdMSKqpRLsOIAbaeS-176">
          <mxGeometry x="2399" y="2755" width="123" height="40" as="geometry" />
        </mxCell>
        <mxCell id="0HKVdMSKqpRLsOIAbaeS-208" value="PerbaikanRutin" style="rounded=1;arcSize=20;strokeWidth=2" vertex="1" parent="0HKVdMSKqpRLsOIAbaeS-176">
          <mxGeometry x="2226" y="2755" width="123" height="40" as="geometry" />
        </mxCell>
        <mxCell id="0HKVdMSKqpRLsOIAbaeS-209" value="DecisionTeknologi" style="rounded=1;arcSize=20;strokeWidth=2" vertex="1" parent="0HKVdMSKqpRLsOIAbaeS-176">
          <mxGeometry x="1971" y="1939" width="143" height="40" as="geometry" />
        </mxCell>
        <mxCell id="0HKVdMSKqpRLsOIAbaeS-210" value="OptimalisasiSistem" style="rounded=1;arcSize=20;strokeWidth=2" vertex="1" parent="0HKVdMSKqpRLsOIAbaeS-176">
          <mxGeometry x="2025" y="2755" width="151" height="40" as="geometry" />
        </mxCell>
        <mxCell id="0HKVdMSKqpRLsOIAbaeS-211" value="BudgetingPemeliharaan" style="rounded=1;arcSize=20;strokeWidth=2" vertex="1" parent="0HKVdMSKqpRLsOIAbaeS-176">
          <mxGeometry x="2282" y="3662" width="184" height="40" as="geometry" />
        </mxCell>
        <mxCell id="0HKVdMSKqpRLsOIAbaeS-212" value="" style="ellipse;shape=endState;fillColor=strokeColor;" vertex="1" parent="0HKVdMSKqpRLsOIAbaeS-176">
          <mxGeometry x="2367" y="3777" width="14" height="14" as="geometry" />
        </mxCell>
        <mxCell id="0HKVdMSKqpRLsOIAbaeS-213" value="ForkFinal3" style="rounded=1;arcSize=20;strokeWidth=2" vertex="1" parent="0HKVdMSKqpRLsOIAbaeS-176">
          <mxGeometry x="1247" y="3547" width="91" height="40" as="geometry" />
        </mxCell>
        <mxCell id="0HKVdMSKqpRLsOIAbaeS-214" value="IntegrasiFinalOperasional" style="rounded=1;arcSize=20;strokeWidth=2" vertex="1" parent="0HKVdMSKqpRLsOIAbaeS-176">
          <mxGeometry x="1193" y="3662" width="197" height="40" as="geometry" />
        </mxCell>
        <mxCell id="0HKVdMSKqpRLsOIAbaeS-215" value="" style="ellipse;shape=endState;fillColor=strokeColor;" vertex="1" parent="0HKVdMSKqpRLsOIAbaeS-176">
          <mxGeometry x="1285" y="3777" width="14" height="14" as="geometry" />
        </mxCell>
        <mxCell id="0HKVdMSKqpRLsOIAbaeS-216" value="TataKelolaAdministrasi" style="swimlane;fontStyle=1;align=center;verticalAlign=middle;startSize=25;container=0;collapsible=0;rounded=1;arcSize=14;dropTarget=0;verticalAlign=top;" vertex="1" parent="0HKVdMSKqpRLsOIAbaeS-176">
          <mxGeometry x="982" y="287" width="619" height="1232" as="geometry" />
        </mxCell>
        <mxCell id="0HKVdMSKqpRLsOIAbaeS-217" value="" style="ellipse;fillColor=strokeColor;" vertex="1" parent="0HKVdMSKqpRLsOIAbaeS-216">
          <mxGeometry x="292" y="58" width="14" height="14" as="geometry" />
        </mxCell>
        <mxCell id="0HKVdMSKqpRLsOIAbaeS-218" value="DesainStruktur" style="rounded=1;arcSize=20;strokeWidth=2" vertex="1" parent="0HKVdMSKqpRLsOIAbaeS-216">
          <mxGeometry x="238" y="172" width="121" height="40" as="geometry" />
        </mxCell>
        <mxCell id="0HKVdMSKqpRLsOIAbaeS-219" value="DecisionStruktur" style="rounded=1;arcSize=20;strokeWidth=2" vertex="1" parent="0HKVdMSKqpRLsOIAbaeS-216">
          <mxGeometry x="232" y="312" width="134" height="40" as="geometry" />
        </mxCell>
        <mxCell id="0HKVdMSKqpRLsOIAbaeS-220" value="RestrukturisasiOrganisasi" style="rounded=1;arcSize=20;strokeWidth=2" vertex="1" parent="0HKVdMSKqpRLsOIAbaeS-216">
          <mxGeometry x="43" y="475" width="194" height="40" as="geometry" />
        </mxCell>
        <mxCell id="0HKVdMSKqpRLsOIAbaeS-221" value="OptimalisasiStruktur" style="rounded=1;arcSize=20;strokeWidth=2" vertex="1" parent="0HKVdMSKqpRLsOIAbaeS-216">
          <mxGeometry x="429" y="475" width="162" height="40" as="geometry" />
        </mxCell>
        <mxCell id="0HKVdMSKqpRLsOIAbaeS-222" value="ForkAdministrasi" style="rounded=1;arcSize=20;strokeWidth=2" vertex="1" parent="0HKVdMSKqpRLsOIAbaeS-216">
          <mxGeometry x="231" y="615" width="135" height="40" as="geometry" />
        </mxCell>
        <mxCell id="0HKVdMSKqpRLsOIAbaeS-223" value="SistemKepatuhan" style="rounded=1;arcSize=20;strokeWidth=2" vertex="1" parent="0HKVdMSKqpRLsOIAbaeS-216">
          <mxGeometry x="44" y="755" width="139" height="40" as="geometry" />
        </mxCell>
        <mxCell id="0HKVdMSKqpRLsOIAbaeS-224" value="ProsedurOperasi" style="rounded=1;arcSize=20;strokeWidth=2" vertex="1" parent="0HKVdMSKqpRLsOIAbaeS-216">
          <mxGeometry x="233" y="755" width="132" height="40" as="geometry" />
        </mxCell>
        <mxCell id="0HKVdMSKqpRLsOIAbaeS-225" value="ManajemenDokumen" style="rounded=1;arcSize=20;strokeWidth=2" vertex="1" parent="0HKVdMSKqpRLsOIAbaeS-216">
          <mxGeometry x="428" y="755" width="164" height="40" as="geometry" />
        </mxCell>
        <mxCell id="0HKVdMSKqpRLsOIAbaeS-226" value="JoinAdministrasi" style="rounded=1;arcSize=20;strokeWidth=2" vertex="1" parent="0HKVdMSKqpRLsOIAbaeS-216">
          <mxGeometry x="245" y="895" width="134" height="40" as="geometry" />
        </mxCell>
        <mxCell id="0HKVdMSKqpRLsOIAbaeS-227" value="AuditAdministrasi" style="rounded=1;arcSize=20;strokeWidth=2" vertex="1" parent="0HKVdMSKqpRLsOIAbaeS-216">
          <mxGeometry x="241" y="1035" width="142" height="40" as="geometry" />
        </mxCell>
        <mxCell id="0HKVdMSKqpRLsOIAbaeS-228" value="" style="ellipse;shape=endState;fillColor=strokeColor;" vertex="1" parent="0HKVdMSKqpRLsOIAbaeS-216">
          <mxGeometry x="305" y="1175" width="14" height="14" as="geometry" />
        </mxCell>
        <mxCell id="0HKVdMSKqpRLsOIAbaeS-229" value="" style="curved=1;startArrow=none;;exitX=0.48;exitY=1;entryX=0.5;entryY=0;rounded=0;" edge="1" parent="0HKVdMSKqpRLsOIAbaeS-216" source="0HKVdMSKqpRLsOIAbaeS-217" target="0HKVdMSKqpRLsOIAbaeS-218">
          <mxGeometry relative="1" as="geometry">
            <Array as="points" />
          </mxGeometry>
        </mxCell>
        <mxCell id="0HKVdMSKqpRLsOIAbaeS-230" value="" style="curved=1;startArrow=none;;exitX=0.5;exitY=1;entryX=0.5;entryY=0;rounded=0;" edge="1" parent="0HKVdMSKqpRLsOIAbaeS-216" source="0HKVdMSKqpRLsOIAbaeS-218" target="0HKVdMSKqpRLsOIAbaeS-219">
          <mxGeometry relative="1" as="geometry">
            <Array as="points" />
          </mxGeometry>
        </mxCell>
        <mxCell id="0HKVdMSKqpRLsOIAbaeS-231" value="[Performa Rendah]" style="curved=1;startArrow=none;;exitX=0.21;exitY=1;entryX=0.5;entryY=0;rounded=0;" edge="1" parent="0HKVdMSKqpRLsOIAbaeS-216" source="0HKVdMSKqpRLsOIAbaeS-219" target="0HKVdMSKqpRLsOIAbaeS-220">
          <mxGeometry relative="1" as="geometry">
            <Array as="points">
              <mxPoint x="140" y="414" />
            </Array>
          </mxGeometry>
        </mxCell>
        <mxCell id="0HKVdMSKqpRLsOIAbaeS-232" value="[Performa Baik]" style="curved=1;startArrow=none;;exitX=0.89;exitY=1;entryX=0.5;entryY=0;rounded=0;" edge="1" parent="0HKVdMSKqpRLsOIAbaeS-216" source="0HKVdMSKqpRLsOIAbaeS-219" target="0HKVdMSKqpRLsOIAbaeS-221">
          <mxGeometry relative="1" as="geometry">
            <Array as="points">
              <mxPoint x="510" y="414" />
            </Array>
          </mxGeometry>
        </mxCell>
        <mxCell id="0HKVdMSKqpRLsOIAbaeS-233" value="" style="curved=1;startArrow=none;;exitX=0.5;exitY=1;entryX=0.17;entryY=0;rounded=0;" edge="1" parent="0HKVdMSKqpRLsOIAbaeS-216" source="0HKVdMSKqpRLsOIAbaeS-220" target="0HKVdMSKqpRLsOIAbaeS-222">
          <mxGeometry relative="1" as="geometry">
            <Array as="points">
              <mxPoint x="140" y="565" />
            </Array>
          </mxGeometry>
        </mxCell>
        <mxCell id="0HKVdMSKqpRLsOIAbaeS-234" value="" style="curved=1;startArrow=none;;exitX=0.5;exitY=1;entryX=0.95;entryY=0;rounded=0;" edge="1" parent="0HKVdMSKqpRLsOIAbaeS-216" source="0HKVdMSKqpRLsOIAbaeS-221" target="0HKVdMSKqpRLsOIAbaeS-222">
          <mxGeometry relative="1" as="geometry">
            <Array as="points">
              <mxPoint x="510" y="565" />
            </Array>
          </mxGeometry>
        </mxCell>
        <mxCell id="0HKVdMSKqpRLsOIAbaeS-235" value="" style="curved=1;startArrow=none;;exitX=0.11;exitY=1;entryX=0.5;entryY=0;rounded=0;" edge="1" parent="0HKVdMSKqpRLsOIAbaeS-216" source="0HKVdMSKqpRLsOIAbaeS-222" target="0HKVdMSKqpRLsOIAbaeS-223">
          <mxGeometry relative="1" as="geometry">
            <Array as="points">
              <mxPoint x="113" y="705" />
            </Array>
          </mxGeometry>
        </mxCell>
        <mxCell id="0HKVdMSKqpRLsOIAbaeS-236" value="" style="curved=1;startArrow=none;;exitX=0.5;exitY=1;entryX=0.5;entryY=0;rounded=0;" edge="1" parent="0HKVdMSKqpRLsOIAbaeS-216" source="0HKVdMSKqpRLsOIAbaeS-222" target="0HKVdMSKqpRLsOIAbaeS-224">
          <mxGeometry relative="1" as="geometry">
            <Array as="points" />
          </mxGeometry>
        </mxCell>
        <mxCell id="0HKVdMSKqpRLsOIAbaeS-237" value="" style="curved=1;startArrow=none;;exitX=0.95;exitY=1;entryX=0.5;entryY=0;rounded=0;" edge="1" parent="0HKVdMSKqpRLsOIAbaeS-216" source="0HKVdMSKqpRLsOIAbaeS-222" target="0HKVdMSKqpRLsOIAbaeS-225">
          <mxGeometry relative="1" as="geometry">
            <Array as="points">
              <mxPoint x="510" y="705" />
            </Array>
          </mxGeometry>
        </mxCell>
        <mxCell id="0HKVdMSKqpRLsOIAbaeS-238" value="" style="curved=1;startArrow=none;;exitX=0.5;exitY=1;entryX=0.07;entryY=0;rounded=0;" edge="1" parent="0HKVdMSKqpRLsOIAbaeS-216" source="0HKVdMSKqpRLsOIAbaeS-223" target="0HKVdMSKqpRLsOIAbaeS-226">
          <mxGeometry relative="1" as="geometry">
            <Array as="points">
              <mxPoint x="113" y="845" />
            </Array>
          </mxGeometry>
        </mxCell>
        <mxCell id="0HKVdMSKqpRLsOIAbaeS-239" value="" style="curved=1;startArrow=none;;exitX=0.5;exitY=1;entryX=0.47;entryY=0;rounded=0;" edge="1" parent="0HKVdMSKqpRLsOIAbaeS-216" source="0HKVdMSKqpRLsOIAbaeS-224" target="0HKVdMSKqpRLsOIAbaeS-226">
          <mxGeometry relative="1" as="geometry">
            <Array as="points">
              <mxPoint x="299" y="845" />
            </Array>
          </mxGeometry>
        </mxCell>
        <mxCell id="0HKVdMSKqpRLsOIAbaeS-240" value="" style="curved=1;startArrow=none;;exitX=0.5;exitY=1;entryX=0.92;entryY=0;rounded=0;" edge="1" parent="0HKVdMSKqpRLsOIAbaeS-216" source="0HKVdMSKqpRLsOIAbaeS-225" target="0HKVdMSKqpRLsOIAbaeS-226">
          <mxGeometry relative="1" as="geometry">
            <Array as="points">
              <mxPoint x="510" y="845" />
            </Array>
          </mxGeometry>
        </mxCell>
        <mxCell id="0HKVdMSKqpRLsOIAbaeS-241" value="" style="curved=1;startArrow=none;;exitX=0.5;exitY=1;entryX=0.5;entryY=0;rounded=0;" edge="1" parent="0HKVdMSKqpRLsOIAbaeS-216" source="0HKVdMSKqpRLsOIAbaeS-226" target="0HKVdMSKqpRLsOIAbaeS-227">
          <mxGeometry relative="1" as="geometry">
            <Array as="points" />
          </mxGeometry>
        </mxCell>
        <mxCell id="0HKVdMSKqpRLsOIAbaeS-242" value="" style="curved=1;startArrow=none;;exitX=0.5;exitY=1;entryX=0.47;entryY=0;rounded=0;" edge="1" parent="0HKVdMSKqpRLsOIAbaeS-216" source="0HKVdMSKqpRLsOIAbaeS-227" target="0HKVdMSKqpRLsOIAbaeS-228">
          <mxGeometry relative="1" as="geometry">
            <Array as="points" />
          </mxGeometry>
        </mxCell>
        <mxCell id="0HKVdMSKqpRLsOIAbaeS-243" value="ManajemenTalenSDM" style="swimlane;fontStyle=1;align=center;verticalAlign=middle;startSize=25;container=0;collapsible=0;rounded=1;arcSize=14;dropTarget=0;verticalAlign=top;" vertex="1" parent="0HKVdMSKqpRLsOIAbaeS-176">
          <mxGeometry x="884" y="2077" width="816" height="1395" as="geometry" />
        </mxCell>
        <mxCell id="0HKVdMSKqpRLsOIAbaeS-244" value="" style="ellipse;fillColor=strokeColor;" vertex="1" parent="0HKVdMSKqpRLsOIAbaeS-243">
          <mxGeometry x="419" y="58" width="14" height="14" as="geometry" />
        </mxCell>
        <mxCell id="0HKVdMSKqpRLsOIAbaeS-245" value="PerencanaanTenagaKerja" style="rounded=1;arcSize=20;strokeWidth=2" vertex="1" parent="0HKVdMSKqpRLsOIAbaeS-243">
          <mxGeometry x="329" y="172" width="195" height="40" as="geometry" />
        </mxCell>
        <mxCell id="0HKVdMSKqpRLsOIAbaeS-246" value="DecisionSDM" style="rounded=1;arcSize=20;strokeWidth=2" vertex="1" parent="0HKVdMSKqpRLsOIAbaeS-243">
          <mxGeometry x="374" y="312" width="104" height="40" as="geometry" />
        </mxCell>
        <mxCell id="0HKVdMSKqpRLsOIAbaeS-247" value="RekrutmenBaru" style="rounded=1;arcSize=20;strokeWidth=2" vertex="1" parent="0HKVdMSKqpRLsOIAbaeS-243">
          <mxGeometry x="70" y="475" width="126" height="40" as="geometry" />
        </mxCell>
        <mxCell id="0HKVdMSKqpRLsOIAbaeS-248" value="OptimalisasiKaryawan" style="rounded=1;arcSize=20;strokeWidth=2" vertex="1" parent="0HKVdMSKqpRLsOIAbaeS-243">
          <mxGeometry x="345" y="475" width="173" height="40" as="geometry" />
        </mxCell>
        <mxCell id="0HKVdMSKqpRLsOIAbaeS-249" value="Rasionalisasi" style="rounded=1;arcSize=20;strokeWidth=2" vertex="1" parent="0HKVdMSKqpRLsOIAbaeS-243">
          <mxGeometry x="656" y="475" width="106" height="40" as="geometry" />
        </mxCell>
        <mxCell id="0HKVdMSKqpRLsOIAbaeS-250" value="PelatihanOnboarding" style="rounded=1;arcSize=20;strokeWidth=2" vertex="1" parent="0HKVdMSKqpRLsOIAbaeS-243">
          <mxGeometry x="51" y="615" width="165" height="40" as="geometry" />
        </mxCell>
        <mxCell id="0HKVdMSKqpRLsOIAbaeS-251" value="PelatihanLanjutan" style="rounded=1;arcSize=20;strokeWidth=2" vertex="1" parent="0HKVdMSKqpRLsOIAbaeS-243">
          <mxGeometry x="358" y="615" width="146" height="40" as="geometry" />
        </mxCell>
        <mxCell id="0HKVdMSKqpRLsOIAbaeS-252" value="RealokasiFungsi" style="rounded=1;arcSize=20;strokeWidth=2" vertex="1" parent="0HKVdMSKqpRLsOIAbaeS-243">
          <mxGeometry x="645" y="615" width="128" height="40" as="geometry" />
        </mxCell>
        <mxCell id="0HKVdMSKqpRLsOIAbaeS-253" value="EvaluasiKinerja" style="rounded=1;arcSize=20;strokeWidth=2" vertex="1" parent="0HKVdMSKqpRLsOIAbaeS-243">
          <mxGeometry x="369" y="755" width="125" height="40" as="geometry" />
        </mxCell>
        <mxCell id="0HKVdMSKqpRLsOIAbaeS-254" value="DecisionKinerja" style="rounded=1;arcSize=20;strokeWidth=2" vertex="1" parent="0HKVdMSKqpRLsOIAbaeS-243">
          <mxGeometry x="368" y="895" width="127" height="40" as="geometry" />
        </mxCell>
        <mxCell id="0HKVdMSKqpRLsOIAbaeS-255" value="PromosiKaryawan" style="rounded=1;arcSize=20;strokeWidth=2" vertex="1" parent="0HKVdMSKqpRLsOIAbaeS-243">
          <mxGeometry x="43" y="1058" width="141" height="40" as="geometry" />
        </mxCell>
        <mxCell id="0HKVdMSKqpRLsOIAbaeS-256" value="PembinaanKaryawan" style="rounded=1;arcSize=20;strokeWidth=2" vertex="1" parent="0HKVdMSKqpRLsOIAbaeS-243">
          <mxGeometry x="337" y="1058" width="163" height="40" as="geometry" />
        </mxCell>
        <mxCell id="0HKVdMSKqpRLsOIAbaeS-257" value="PembetulanKinerja" style="rounded=1;arcSize=20;strokeWidth=2" vertex="1" parent="0HKVdMSKqpRLsOIAbaeS-243">
          <mxGeometry x="637" y="1058" width="152" height="40" as="geometry" />
        </mxCell>
        <mxCell id="0HKVdMSKqpRLsOIAbaeS-258" value="ReviewKebutuhan" style="rounded=1;arcSize=20;strokeWidth=2" vertex="1" parent="0HKVdMSKqpRLsOIAbaeS-243">
          <mxGeometry x="357" y="1198" width="143" height="40" as="geometry" />
        </mxCell>
        <mxCell id="0HKVdMSKqpRLsOIAbaeS-259" value="" style="ellipse;shape=endState;fillColor=strokeColor;" vertex="1" parent="0HKVdMSKqpRLsOIAbaeS-243">
          <mxGeometry x="422" y="1338" width="14" height="14" as="geometry" />
        </mxCell>
        <mxCell id="0HKVdMSKqpRLsOIAbaeS-260" value="" style="curved=1;startArrow=none;;exitX=0.52;exitY=1;entryX=0.5;entryY=0;rounded=0;" edge="1" parent="0HKVdMSKqpRLsOIAbaeS-243" source="0HKVdMSKqpRLsOIAbaeS-244" target="0HKVdMSKqpRLsOIAbaeS-245">
          <mxGeometry relative="1" as="geometry">
            <Array as="points" />
          </mxGeometry>
        </mxCell>
        <mxCell id="0HKVdMSKqpRLsOIAbaeS-261" value="" style="curved=1;startArrow=none;;exitX=0.5;exitY=1;entryX=0.5;entryY=0;rounded=0;" edge="1" parent="0HKVdMSKqpRLsOIAbaeS-243" source="0HKVdMSKqpRLsOIAbaeS-245" target="0HKVdMSKqpRLsOIAbaeS-246">
          <mxGeometry relative="1" as="geometry">
            <Array as="points" />
          </mxGeometry>
        </mxCell>
        <mxCell id="0HKVdMSKqpRLsOIAbaeS-262" value="[Kekurangan Tenaga]" style="curved=1;startArrow=none;;exitX=0;exitY=0.86;entryX=0.5;entryY=0;rounded=0;" edge="1" parent="0HKVdMSKqpRLsOIAbaeS-243" source="0HKVdMSKqpRLsOIAbaeS-246" target="0HKVdMSKqpRLsOIAbaeS-247">
          <mxGeometry relative="1" as="geometry">
            <Array as="points">
              <mxPoint x="133" y="414" />
            </Array>
          </mxGeometry>
        </mxCell>
        <mxCell id="0HKVdMSKqpRLsOIAbaeS-263" value="[Jumlah Cukup]" style="curved=1;startArrow=none;;exitX=0.51;exitY=1;entryX=0.5;entryY=0;rounded=0;" edge="1" parent="0HKVdMSKqpRLsOIAbaeS-243" source="0HKVdMSKqpRLsOIAbaeS-246" target="0HKVdMSKqpRLsOIAbaeS-248">
          <mxGeometry relative="1" as="geometry">
            <Array as="points">
              <mxPoint x="431" y="414" />
            </Array>
          </mxGeometry>
        </mxCell>
        <mxCell id="0HKVdMSKqpRLsOIAbaeS-264" value="[Kelebihan Tenaga]" style="curved=1;startArrow=none;;exitX=1;exitY=0.88;entryX=0.5;entryY=0;rounded=0;" edge="1" parent="0HKVdMSKqpRLsOIAbaeS-243" source="0HKVdMSKqpRLsOIAbaeS-246" target="0HKVdMSKqpRLsOIAbaeS-249">
          <mxGeometry relative="1" as="geometry">
            <Array as="points">
              <mxPoint x="709" y="414" />
            </Array>
          </mxGeometry>
        </mxCell>
        <mxCell id="0HKVdMSKqpRLsOIAbaeS-265" value="" style="curved=1;startArrow=none;;exitX=0.5;exitY=1;entryX=0.5;entryY=0;rounded=0;" edge="1" parent="0HKVdMSKqpRLsOIAbaeS-243" source="0HKVdMSKqpRLsOIAbaeS-247" target="0HKVdMSKqpRLsOIAbaeS-250">
          <mxGeometry relative="1" as="geometry">
            <Array as="points" />
          </mxGeometry>
        </mxCell>
        <mxCell id="0HKVdMSKqpRLsOIAbaeS-266" value="" style="curved=1;startArrow=none;;exitX=0.5;exitY=1;entryX=0.5;entryY=0;rounded=0;" edge="1" parent="0HKVdMSKqpRLsOIAbaeS-243" source="0HKVdMSKqpRLsOIAbaeS-248" target="0HKVdMSKqpRLsOIAbaeS-251">
          <mxGeometry relative="1" as="geometry">
            <Array as="points" />
          </mxGeometry>
        </mxCell>
        <mxCell id="0HKVdMSKqpRLsOIAbaeS-267" value="" style="curved=1;startArrow=none;;exitX=0.5;exitY=1;entryX=0.5;entryY=0;rounded=0;" edge="1" parent="0HKVdMSKqpRLsOIAbaeS-243" source="0HKVdMSKqpRLsOIAbaeS-249" target="0HKVdMSKqpRLsOIAbaeS-252">
          <mxGeometry relative="1" as="geometry">
            <Array as="points" />
          </mxGeometry>
        </mxCell>
        <mxCell id="0HKVdMSKqpRLsOIAbaeS-268" value="" style="curved=1;startArrow=none;;exitX=0.5;exitY=1;entryX=0;entryY=0.13;rounded=0;" edge="1" parent="0HKVdMSKqpRLsOIAbaeS-243" source="0HKVdMSKqpRLsOIAbaeS-250" target="0HKVdMSKqpRLsOIAbaeS-253">
          <mxGeometry relative="1" as="geometry">
            <Array as="points">
              <mxPoint x="133" y="705" />
            </Array>
          </mxGeometry>
        </mxCell>
        <mxCell id="0HKVdMSKqpRLsOIAbaeS-269" value="" style="curved=1;startArrow=none;;exitX=0.5;exitY=1;entryX=0.5;entryY=0;rounded=0;" edge="1" parent="0HKVdMSKqpRLsOIAbaeS-243" source="0HKVdMSKqpRLsOIAbaeS-251" target="0HKVdMSKqpRLsOIAbaeS-253">
          <mxGeometry relative="1" as="geometry">
            <Array as="points" />
          </mxGeometry>
        </mxCell>
        <mxCell id="0HKVdMSKqpRLsOIAbaeS-270" value="" style="curved=1;startArrow=none;;exitX=0.5;exitY=1;entryX=1;entryY=0.11;rounded=0;" edge="1" parent="0HKVdMSKqpRLsOIAbaeS-243" source="0HKVdMSKqpRLsOIAbaeS-252" target="0HKVdMSKqpRLsOIAbaeS-253">
          <mxGeometry relative="1" as="geometry">
            <Array as="points">
              <mxPoint x="709" y="705" />
            </Array>
          </mxGeometry>
        </mxCell>
        <mxCell id="0HKVdMSKqpRLsOIAbaeS-271" value="" style="curved=1;startArrow=none;;exitX=0.5;exitY=1;entryX=0.5;entryY=0;rounded=0;" edge="1" parent="0HKVdMSKqpRLsOIAbaeS-243" source="0HKVdMSKqpRLsOIAbaeS-253" target="0HKVdMSKqpRLsOIAbaeS-254">
          <mxGeometry relative="1" as="geometry">
            <Array as="points" />
          </mxGeometry>
        </mxCell>
        <mxCell id="0HKVdMSKqpRLsOIAbaeS-272" value="[Kinerja Unggul]" style="curved=1;startArrow=none;;exitX=0;exitY=0.91;entryX=0.5;entryY=0;rounded=0;" edge="1" parent="0HKVdMSKqpRLsOIAbaeS-243" source="0HKVdMSKqpRLsOIAbaeS-254" target="0HKVdMSKqpRLsOIAbaeS-255">
          <mxGeometry relative="1" as="geometry">
            <Array as="points">
              <mxPoint x="114" y="997" />
            </Array>
          </mxGeometry>
        </mxCell>
        <mxCell id="0HKVdMSKqpRLsOIAbaeS-273" value="[Kinerja Standar]" style="curved=1;startArrow=none;;exitX=0.47;exitY=1;entryX=0.5;entryY=0;rounded=0;" edge="1" parent="0HKVdMSKqpRLsOIAbaeS-243" source="0HKVdMSKqpRLsOIAbaeS-254" target="0HKVdMSKqpRLsOIAbaeS-256">
          <mxGeometry relative="1" as="geometry">
            <Array as="points">
              <mxPoint x="418" y="997" />
            </Array>
          </mxGeometry>
        </mxCell>
        <mxCell id="0HKVdMSKqpRLsOIAbaeS-274" value="[Kinerja Kurang]" style="curved=1;startArrow=none;;exitX=1;exitY=0.96;entryX=0.5;entryY=0;rounded=0;" edge="1" parent="0HKVdMSKqpRLsOIAbaeS-243" source="0HKVdMSKqpRLsOIAbaeS-254" target="0HKVdMSKqpRLsOIAbaeS-257">
          <mxGeometry relative="1" as="geometry">
            <Array as="points">
              <mxPoint x="713" y="997" />
            </Array>
          </mxGeometry>
        </mxCell>
        <mxCell id="0HKVdMSKqpRLsOIAbaeS-275" value="" style="curved=1;startArrow=none;;exitX=0.5;exitY=1;entryX=0;entryY=0.1;rounded=0;" edge="1" parent="0HKVdMSKqpRLsOIAbaeS-243" source="0HKVdMSKqpRLsOIAbaeS-255" target="0HKVdMSKqpRLsOIAbaeS-258">
          <mxGeometry relative="1" as="geometry">
            <Array as="points">
              <mxPoint x="114" y="1148" />
            </Array>
          </mxGeometry>
        </mxCell>
        <mxCell id="0HKVdMSKqpRLsOIAbaeS-276" value="" style="curved=1;startArrow=none;;exitX=0.5;exitY=1;entryX=0.48;entryY=0;rounded=0;" edge="1" parent="0HKVdMSKqpRLsOIAbaeS-243" source="0HKVdMSKqpRLsOIAbaeS-256" target="0HKVdMSKqpRLsOIAbaeS-258">
          <mxGeometry relative="1" as="geometry">
            <Array as="points">
              <mxPoint x="418" y="1148" />
            </Array>
          </mxGeometry>
        </mxCell>
        <mxCell id="0HKVdMSKqpRLsOIAbaeS-277" value="" style="curved=1;startArrow=none;;exitX=0.5;exitY=1;entryX=1;entryY=0.06;rounded=0;" edge="1" parent="0HKVdMSKqpRLsOIAbaeS-243" source="0HKVdMSKqpRLsOIAbaeS-257" target="0HKVdMSKqpRLsOIAbaeS-258">
          <mxGeometry relative="1" as="geometry">
            <Array as="points">
              <mxPoint x="713" y="1148" />
            </Array>
          </mxGeometry>
        </mxCell>
        <mxCell id="0HKVdMSKqpRLsOIAbaeS-278" value="" style="curved=1;startArrow=none;;exitX=0.5;exitY=1;entryX=0.48;entryY=0;rounded=0;" edge="1" parent="0HKVdMSKqpRLsOIAbaeS-243" source="0HKVdMSKqpRLsOIAbaeS-258" target="0HKVdMSKqpRLsOIAbaeS-259">
          <mxGeometry relative="1" as="geometry">
            <Array as="points" />
          </mxGeometry>
        </mxCell>
        <mxCell id="0HKVdMSKqpRLsOIAbaeS-279" value="PerencanaanKeamanan" style="swimlane;fontStyle=1;align=center;verticalAlign=middle;startSize=25;container=0;collapsible=0;rounded=1;arcSize=14;dropTarget=0;" vertex="1" parent="0HKVdMSKqpRLsOIAbaeS-176">
          <mxGeometry x="28" y="250" width="821" height="3579" as="geometry" />
        </mxCell>
        <mxCell id="0HKVdMSKqpRLsOIAbaeS-280" value="PengelolaanInfrastruktur" style="swimlane;fontStyle=1;align=center;verticalAlign=middle;startSize=25;container=0;collapsible=0;rounded=1;arcSize=14;dropTarget=0;" vertex="1" parent="0HKVdMSKqpRLsOIAbaeS-176">
          <mxGeometry x="1735" y="250" width="1186" height="3579" as="geometry" />
        </mxCell>
        <mxCell id="0HKVdMSKqpRLsOIAbaeS-281" value="" style="curved=1;startArrow=none;;exitX=0.49;exitY=0.96;entryX=0.5;entryY=-0.01;rounded=0;" edge="1" parent="0HKVdMSKqpRLsOIAbaeS-176" source="0HKVdMSKqpRLsOIAbaeS-177" target="0HKVdMSKqpRLsOIAbaeS-178">
          <mxGeometry relative="1" as="geometry">
            <Array as="points" />
          </mxGeometry>
        </mxCell>
        <mxCell id="0HKVdMSKqpRLsOIAbaeS-282" value="" style="curved=1;startArrow=none;;exitX=0.5;exitY=1;entryX=0.5;entryY=0;rounded=0;" edge="1" parent="0HKVdMSKqpRLsOIAbaeS-176" source="0HKVdMSKqpRLsOIAbaeS-179" target="0HKVdMSKqpRLsOIAbaeS-180">
          <mxGeometry relative="1" as="geometry">
            <Array as="points">
              <mxPoint x="349" y="1557" />
            </Array>
          </mxGeometry>
        </mxCell>
        <mxCell id="0HKVdMSKqpRLsOIAbaeS-283" value="" style="curved=1;startArrow=none;;exitX=0.5;exitY=1;entryX=0.5;entryY=0;rounded=0;" edge="1" parent="0HKVdMSKqpRLsOIAbaeS-176" source="0HKVdMSKqpRLsOIAbaeS-180" target="0HKVdMSKqpRLsOIAbaeS-181">
          <mxGeometry relative="1" as="geometry">
            <Array as="points" />
          </mxGeometry>
        </mxCell>
        <mxCell id="0HKVdMSKqpRLsOIAbaeS-284" value="" style="curved=1;startArrow=none;;exitX=1;exitY=0.78;entryX=0.5;entryY=0;rounded=0;" edge="1" parent="0HKVdMSKqpRLsOIAbaeS-176" source="0HKVdMSKqpRLsOIAbaeS-181" target="0HKVdMSKqpRLsOIAbaeS-182">
          <mxGeometry relative="1" as="geometry">
            <Array as="points">
              <mxPoint x="660" y="1787" />
            </Array>
          </mxGeometry>
        </mxCell>
        <mxCell id="0HKVdMSKqpRLsOIAbaeS-285" value="" style="curved=1;startArrow=none;;exitX=0.5;exitY=1;entryX=0.5;entryY=0;rounded=0;" edge="1" parent="0HKVdMSKqpRLsOIAbaeS-176" source="0HKVdMSKqpRLsOIAbaeS-181" target="0HKVdMSKqpRLsOIAbaeS-183">
          <mxGeometry relative="1" as="geometry">
            <Array as="points" />
          </mxGeometry>
        </mxCell>
        <mxCell id="0HKVdMSKqpRLsOIAbaeS-286" value="" style="curved=1;startArrow=none;;exitX=0;exitY=0.91;entryX=0.5;entryY=-0.01;rounded=0;" edge="1" parent="0HKVdMSKqpRLsOIAbaeS-176" source="0HKVdMSKqpRLsOIAbaeS-181" target="0HKVdMSKqpRLsOIAbaeS-184">
          <mxGeometry relative="1" as="geometry">
            <Array as="points">
              <mxPoint x="138" y="1787" />
            </Array>
          </mxGeometry>
        </mxCell>
        <mxCell id="0HKVdMSKqpRLsOIAbaeS-287" value="" style="curved=1;startArrow=none;;exitX=0.5;exitY=1;entryX=0.5;entryY=0;rounded=0;" edge="1" parent="0HKVdMSKqpRLsOIAbaeS-176" source="0HKVdMSKqpRLsOIAbaeS-182" target="0HKVdMSKqpRLsOIAbaeS-185">
          <mxGeometry relative="1" as="geometry">
            <Array as="points" />
          </mxGeometry>
        </mxCell>
        <mxCell id="0HKVdMSKqpRLsOIAbaeS-288" value="[Risiko Tinggi]" style="curved=1;startArrow=none;;exitX=0.79;exitY=1;entryX=0.26;entryY=-0.01;rounded=0;" edge="1" parent="0HKVdMSKqpRLsOIAbaeS-176" source="0HKVdMSKqpRLsOIAbaeS-185" target="0HKVdMSKqpRLsOIAbaeS-186">
          <mxGeometry relative="1" as="geometry">
            <Array as="points">
              <mxPoint x="764" y="2028" />
            </Array>
          </mxGeometry>
        </mxCell>
        <mxCell id="0HKVdMSKqpRLsOIAbaeS-289" value="[Risiko Rendah]" style="curved=1;startArrow=none;;exitX=0.43;exitY=1;entryX=0.5;entryY=-0.01;rounded=0;" edge="1" parent="0HKVdMSKqpRLsOIAbaeS-176" source="0HKVdMSKqpRLsOIAbaeS-185" target="0HKVdMSKqpRLsOIAbaeS-187">
          <mxGeometry relative="1" as="geometry">
            <Array as="points">
              <mxPoint x="635" y="2028" />
            </Array>
          </mxGeometry>
        </mxCell>
        <mxCell id="0HKVdMSKqpRLsOIAbaeS-290" value="" style="curved=1;startArrow=none;;exitX=0.48;exitY=0.99;entryX=1;entryY=0.44;rounded=0;" edge="1" parent="0HKVdMSKqpRLsOIAbaeS-176" source="0HKVdMSKqpRLsOIAbaeS-186" target="0HKVdMSKqpRLsOIAbaeS-188">
          <mxGeometry relative="1" as="geometry">
            <Array as="points">
              <mxPoint x="1797" y="3510" />
            </Array>
          </mxGeometry>
        </mxCell>
        <mxCell id="0HKVdMSKqpRLsOIAbaeS-291" value="" style="curved=1;startArrow=none;;exitX=0.5;exitY=0.99;entryX=0.99;entryY=0;rounded=0;" edge="1" parent="0HKVdMSKqpRLsOIAbaeS-176" source="0HKVdMSKqpRLsOIAbaeS-187" target="0HKVdMSKqpRLsOIAbaeS-188">
          <mxGeometry relative="1" as="geometry">
            <Array as="points">
              <mxPoint x="635" y="3510" />
            </Array>
          </mxGeometry>
        </mxCell>
        <mxCell id="0HKVdMSKqpRLsOIAbaeS-292" value="" style="curved=1;startArrow=none;;exitX=0.5;exitY=1;entryX=0.5;entryY=0;rounded=0;" edge="1" parent="0HKVdMSKqpRLsOIAbaeS-176" source="0HKVdMSKqpRLsOIAbaeS-183" target="0HKVdMSKqpRLsOIAbaeS-189">
          <mxGeometry relative="1" as="geometry">
            <Array as="points" />
          </mxGeometry>
        </mxCell>
        <mxCell id="0HKVdMSKqpRLsOIAbaeS-293" value="[Kerentanan Terdeteksi]" style="curved=1;startArrow=none;;exitX=0.79;exitY=1;entryX=0.5;entryY=-0.01;rounded=0;" edge="1" parent="0HKVdMSKqpRLsOIAbaeS-176" source="0HKVdMSKqpRLsOIAbaeS-189" target="0HKVdMSKqpRLsOIAbaeS-190">
          <mxGeometry relative="1" as="geometry">
            <Array as="points">
              <mxPoint x="470" y="2028" />
            </Array>
          </mxGeometry>
        </mxCell>
        <mxCell id="0HKVdMSKqpRLsOIAbaeS-294" value="[Sistem Aman]" style="curved=1;startArrow=none;;exitX=0.4;exitY=1;entryX=0.5;entryY=-0.01;rounded=0;" edge="1" parent="0HKVdMSKqpRLsOIAbaeS-176" source="0HKVdMSKqpRLsOIAbaeS-189" target="0HKVdMSKqpRLsOIAbaeS-191">
          <mxGeometry relative="1" as="geometry">
            <Array as="points">
              <mxPoint x="308" y="2028" />
            </Array>
          </mxGeometry>
        </mxCell>
        <mxCell id="0HKVdMSKqpRLsOIAbaeS-295" value="" style="curved=1;startArrow=none;;exitX=0.5;exitY=0.99;entryX=0.5;entryY=0;rounded=0;" edge="1" parent="0HKVdMSKqpRLsOIAbaeS-176" source="0HKVdMSKqpRLsOIAbaeS-190" target="0HKVdMSKqpRLsOIAbaeS-188">
          <mxGeometry relative="1" as="geometry">
            <Array as="points" />
          </mxGeometry>
        </mxCell>
        <mxCell id="0HKVdMSKqpRLsOIAbaeS-296" value="" style="curved=1;startArrow=none;;exitX=0.5;exitY=0.99;entryX=0.03;entryY=0;rounded=0;" edge="1" parent="0HKVdMSKqpRLsOIAbaeS-176" source="0HKVdMSKqpRLsOIAbaeS-191" target="0HKVdMSKqpRLsOIAbaeS-188">
          <mxGeometry relative="1" as="geometry">
            <Array as="points">
              <mxPoint x="308" y="3510" />
            </Array>
          </mxGeometry>
        </mxCell>
        <mxCell id="0HKVdMSKqpRLsOIAbaeS-297" value="" style="curved=1;startArrow=none;;exitX=0.5;exitY=0.99;entryX=0;entryY=0.24;rounded=0;" edge="1" parent="0HKVdMSKqpRLsOIAbaeS-176" source="0HKVdMSKqpRLsOIAbaeS-184" target="0HKVdMSKqpRLsOIAbaeS-188">
          <mxGeometry relative="1" as="geometry">
            <Array as="points">
              <mxPoint x="138" y="3510" />
            </Array>
          </mxGeometry>
        </mxCell>
        <mxCell id="0HKVdMSKqpRLsOIAbaeS-298" value="" style="curved=1;startArrow=none;;exitX=0.5;exitY=1;entryX=0.5;entryY=0;rounded=0;" edge="1" parent="0HKVdMSKqpRLsOIAbaeS-176" source="0HKVdMSKqpRLsOIAbaeS-188" target="0HKVdMSKqpRLsOIAbaeS-192">
          <mxGeometry relative="1" as="geometry">
            <Array as="points" />
          </mxGeometry>
        </mxCell>
        <mxCell id="0HKVdMSKqpRLsOIAbaeS-299" value="" style="curved=1;startArrow=none;;exitX=0.5;exitY=1;entryX=0.49;entryY=0;rounded=0;" edge="1" parent="0HKVdMSKqpRLsOIAbaeS-176" source="0HKVdMSKqpRLsOIAbaeS-192" target="0HKVdMSKqpRLsOIAbaeS-193">
          <mxGeometry relative="1" as="geometry">
            <Array as="points" />
          </mxGeometry>
        </mxCell>
        <mxCell id="0HKVdMSKqpRLsOIAbaeS-300" value="" style="curved=1;startArrow=none;;exitX=0.5;exitY=1;entryX=0.5;entryY=0;rounded=0;" edge="1" parent="0HKVdMSKqpRLsOIAbaeS-176" source="0HKVdMSKqpRLsOIAbaeS-194" target="0HKVdMSKqpRLsOIAbaeS-195">
          <mxGeometry relative="1" as="geometry">
            <Array as="points" />
          </mxGeometry>
        </mxCell>
        <mxCell id="0HKVdMSKqpRLsOIAbaeS-301" value="" style="curved=1;startArrow=none;;exitX=0.52;exitY=1;entryX=0.5;entryY=0;rounded=0;" edge="1" parent="0HKVdMSKqpRLsOIAbaeS-176" source="0HKVdMSKqpRLsOIAbaeS-196" target="0HKVdMSKqpRLsOIAbaeS-197">
          <mxGeometry relative="1" as="geometry">
            <Array as="points" />
          </mxGeometry>
        </mxCell>
        <mxCell id="0HKVdMSKqpRLsOIAbaeS-302" value="" style="curved=1;startArrow=none;;exitX=0.5;exitY=1;entryX=0.5;entryY=0;rounded=0;" edge="1" parent="0HKVdMSKqpRLsOIAbaeS-176" source="0HKVdMSKqpRLsOIAbaeS-197" target="0HKVdMSKqpRLsOIAbaeS-198">
          <mxGeometry relative="1" as="geometry">
            <Array as="points" />
          </mxGeometry>
        </mxCell>
        <mxCell id="0HKVdMSKqpRLsOIAbaeS-303" value="" style="curved=1;startArrow=none;;exitX=1;exitY=0.78;entryX=0.5;entryY=0;rounded=0;" edge="1" parent="0HKVdMSKqpRLsOIAbaeS-176" source="0HKVdMSKqpRLsOIAbaeS-198" target="0HKVdMSKqpRLsOIAbaeS-199">
          <mxGeometry relative="1" as="geometry">
            <Array as="points">
              <mxPoint x="2726" y="1787" />
            </Array>
          </mxGeometry>
        </mxCell>
        <mxCell id="0HKVdMSKqpRLsOIAbaeS-304" value="" style="curved=1;startArrow=none;;exitX=0.5;exitY=1;entryX=0.5;entryY=0;rounded=0;" edge="1" parent="0HKVdMSKqpRLsOIAbaeS-176" source="0HKVdMSKqpRLsOIAbaeS-198" target="0HKVdMSKqpRLsOIAbaeS-200">
          <mxGeometry relative="1" as="geometry">
            <Array as="points" />
          </mxGeometry>
        </mxCell>
        <mxCell id="0HKVdMSKqpRLsOIAbaeS-305" value="" style="curved=1;startArrow=none;;exitX=0;exitY=0.8;entryX=0.5;entryY=0;rounded=0;" edge="1" parent="0HKVdMSKqpRLsOIAbaeS-176" source="0HKVdMSKqpRLsOIAbaeS-198" target="0HKVdMSKqpRLsOIAbaeS-201">
          <mxGeometry relative="1" as="geometry">
            <Array as="points">
              <mxPoint x="2042" y="1787" />
            </Array>
          </mxGeometry>
        </mxCell>
        <mxCell id="0HKVdMSKqpRLsOIAbaeS-306" value="" style="curved=1;startArrow=none;;exitX=0.5;exitY=1;entryX=0.5;entryY=0;rounded=0;" edge="1" parent="0HKVdMSKqpRLsOIAbaeS-176" source="0HKVdMSKqpRLsOIAbaeS-199" target="0HKVdMSKqpRLsOIAbaeS-202">
          <mxGeometry relative="1" as="geometry">
            <Array as="points" />
          </mxGeometry>
        </mxCell>
        <mxCell id="0HKVdMSKqpRLsOIAbaeS-307" value="[Kondisi Buruk]" style="curved=1;startArrow=none;;exitX=0.71;exitY=1;entryX=0.5;entryY=-0.01;rounded=0;" edge="1" parent="0HKVdMSKqpRLsOIAbaeS-176" source="0HKVdMSKqpRLsOIAbaeS-202" target="0HKVdMSKqpRLsOIAbaeS-203">
          <mxGeometry relative="1" as="geometry">
            <Array as="points">
              <mxPoint x="2819" y="2028" />
            </Array>
          </mxGeometry>
        </mxCell>
        <mxCell id="0HKVdMSKqpRLsOIAbaeS-308" value="[Kondisi Baik]" style="curved=1;startArrow=none;;exitX=0.3;exitY=1;entryX=0.5;entryY=-0.01;rounded=0;" edge="1" parent="0HKVdMSKqpRLsOIAbaeS-176" source="0HKVdMSKqpRLsOIAbaeS-202" target="0HKVdMSKqpRLsOIAbaeS-204">
          <mxGeometry relative="1" as="geometry">
            <Array as="points">
              <mxPoint x="2637" y="2028" />
            </Array>
          </mxGeometry>
        </mxCell>
        <mxCell id="0HKVdMSKqpRLsOIAbaeS-309" value="" style="curved=1;startArrow=none;;exitX=0.5;exitY=0.99;entryX=1;entryY=0.28;rounded=0;" edge="1" parent="0HKVdMSKqpRLsOIAbaeS-176" source="0HKVdMSKqpRLsOIAbaeS-203" target="0HKVdMSKqpRLsOIAbaeS-205">
          <mxGeometry relative="1" as="geometry">
            <Array as="points">
              <mxPoint x="2819" y="3510" />
            </Array>
          </mxGeometry>
        </mxCell>
        <mxCell id="0HKVdMSKqpRLsOIAbaeS-310" value="" style="curved=1;startArrow=none;;exitX=0.5;exitY=0.99;entryX=1;entryY=0.13;rounded=0;" edge="1" parent="0HKVdMSKqpRLsOIAbaeS-176" source="0HKVdMSKqpRLsOIAbaeS-204" target="0HKVdMSKqpRLsOIAbaeS-205">
          <mxGeometry relative="1" as="geometry">
            <Array as="points">
              <mxPoint x="2637" y="3510" />
            </Array>
          </mxGeometry>
        </mxCell>
        <mxCell id="0HKVdMSKqpRLsOIAbaeS-311" value="" style="curved=1;startArrow=none;;exitX=0.5;exitY=1;entryX=0.5;entryY=0;rounded=0;" edge="1" parent="0HKVdMSKqpRLsOIAbaeS-176" source="0HKVdMSKqpRLsOIAbaeS-200" target="0HKVdMSKqpRLsOIAbaeS-206">
          <mxGeometry relative="1" as="geometry">
            <Array as="points" />
          </mxGeometry>
        </mxCell>
        <mxCell id="0HKVdMSKqpRLsOIAbaeS-312" value="[Usang/Rusak]" style="curved=1;startArrow=none;;exitX=0.67;exitY=1;entryX=0.5;entryY=-0.01;rounded=0;" edge="1" parent="0HKVdMSKqpRLsOIAbaeS-176" source="0HKVdMSKqpRLsOIAbaeS-206" target="0HKVdMSKqpRLsOIAbaeS-207">
          <mxGeometry relative="1" as="geometry">
            <Array as="points">
              <mxPoint x="2460" y="2028" />
            </Array>
          </mxGeometry>
        </mxCell>
        <mxCell id="0HKVdMSKqpRLsOIAbaeS-313" value="[Masih Layak]" style="curved=1;startArrow=none;;exitX=0.33;exitY=1;entryX=0.5;entryY=-0.01;rounded=0;" edge="1" parent="0HKVdMSKqpRLsOIAbaeS-176" source="0HKVdMSKqpRLsOIAbaeS-206" target="0HKVdMSKqpRLsOIAbaeS-208">
          <mxGeometry relative="1" as="geometry">
            <Array as="points">
              <mxPoint x="2287" y="2028" />
            </Array>
          </mxGeometry>
        </mxCell>
        <mxCell id="0HKVdMSKqpRLsOIAbaeS-314" value="" style="curved=1;startArrow=none;;exitX=0.5;exitY=0.99;entryX=0.72;entryY=0;rounded=0;" edge="1" parent="0HKVdMSKqpRLsOIAbaeS-176" source="0HKVdMSKqpRLsOIAbaeS-207" target="0HKVdMSKqpRLsOIAbaeS-205">
          <mxGeometry relative="1" as="geometry">
            <Array as="points">
              <mxPoint x="2460" y="3510" />
            </Array>
          </mxGeometry>
        </mxCell>
        <mxCell id="0HKVdMSKqpRLsOIAbaeS-315" value="" style="curved=1;startArrow=none;;exitX=0.5;exitY=0.99;entryX=0.28;entryY=0;rounded=0;" edge="1" parent="0HKVdMSKqpRLsOIAbaeS-176" source="0HKVdMSKqpRLsOIAbaeS-208" target="0HKVdMSKqpRLsOIAbaeS-205">
          <mxGeometry relative="1" as="geometry">
            <Array as="points">
              <mxPoint x="2287" y="3510" />
            </Array>
          </mxGeometry>
        </mxCell>
        <mxCell id="0HKVdMSKqpRLsOIAbaeS-316" value="" style="curved=1;startArrow=none;;exitX=0.5;exitY=1;entryX=0.5;entryY=0;rounded=0;" edge="1" parent="0HKVdMSKqpRLsOIAbaeS-176" source="0HKVdMSKqpRLsOIAbaeS-201" target="0HKVdMSKqpRLsOIAbaeS-209">
          <mxGeometry relative="1" as="geometry">
            <Array as="points" />
          </mxGeometry>
        </mxCell>
        <mxCell id="0HKVdMSKqpRLsOIAbaeS-317" value="[Tertinggal]" style="curved=1;startArrow=none;;exitX=0.39;exitY=1;entryX=0.53;entryY=-0.01;rounded=0;" edge="1" parent="0HKVdMSKqpRLsOIAbaeS-176" source="0HKVdMSKqpRLsOIAbaeS-209" target="0HKVdMSKqpRLsOIAbaeS-186">
          <mxGeometry relative="1" as="geometry">
            <Array as="points">
              <mxPoint x="1989" y="2028" />
            </Array>
          </mxGeometry>
        </mxCell>
        <mxCell id="0HKVdMSKqpRLsOIAbaeS-318" value="[Up-to-Date]" style="curved=1;startArrow=none;;exitX=0.62;exitY=1;entryX=0.5;entryY=-0.01;rounded=0;" edge="1" parent="0HKVdMSKqpRLsOIAbaeS-176" source="0HKVdMSKqpRLsOIAbaeS-209" target="0HKVdMSKqpRLsOIAbaeS-210">
          <mxGeometry relative="1" as="geometry">
            <Array as="points">
              <mxPoint x="2100" y="2028" />
            </Array>
          </mxGeometry>
        </mxCell>
        <mxCell id="0HKVdMSKqpRLsOIAbaeS-319" value="" style="curved=1;startArrow=none;;exitX=0.57;exitY=0.99;entryX=0.01;entryY=0;rounded=0;" edge="1" parent="0HKVdMSKqpRLsOIAbaeS-176" source="0HKVdMSKqpRLsOIAbaeS-186" target="0HKVdMSKqpRLsOIAbaeS-205">
          <mxGeometry relative="1" as="geometry">
            <Array as="points">
              <mxPoint x="2182" y="3510" />
            </Array>
          </mxGeometry>
        </mxCell>
        <mxCell id="0HKVdMSKqpRLsOIAbaeS-320" value="" style="curved=1;startArrow=none;;exitX=0.5;exitY=0.99;entryX=0;entryY=0.16;rounded=0;" edge="1" parent="0HKVdMSKqpRLsOIAbaeS-176" source="0HKVdMSKqpRLsOIAbaeS-210" target="0HKVdMSKqpRLsOIAbaeS-205">
          <mxGeometry relative="1" as="geometry">
            <Array as="points">
              <mxPoint x="2089" y="3510" />
            </Array>
          </mxGeometry>
        </mxCell>
        <mxCell id="0HKVdMSKqpRLsOIAbaeS-321" value="" style="curved=1;startArrow=none;;exitX=0.5;exitY=1;entryX=0.5;entryY=0;rounded=0;" edge="1" parent="0HKVdMSKqpRLsOIAbaeS-176" source="0HKVdMSKqpRLsOIAbaeS-205" target="0HKVdMSKqpRLsOIAbaeS-211">
          <mxGeometry relative="1" as="geometry">
            <Array as="points" />
          </mxGeometry>
        </mxCell>
        <mxCell id="0HKVdMSKqpRLsOIAbaeS-322" value="" style="curved=1;startArrow=none;;exitX=0.5;exitY=1;entryX=0.48;entryY=0;rounded=0;" edge="1" parent="0HKVdMSKqpRLsOIAbaeS-176" source="0HKVdMSKqpRLsOIAbaeS-211" target="0HKVdMSKqpRLsOIAbaeS-212">
          <mxGeometry relative="1" as="geometry">
            <Array as="points" />
          </mxGeometry>
        </mxCell>
        <mxCell id="0HKVdMSKqpRLsOIAbaeS-323" value="" style="curved=1;startArrow=none;;exitX=0.49;exitY=1;entryX=0.5;entryY=0;rounded=0;" edge="1" parent="0HKVdMSKqpRLsOIAbaeS-176" source="0HKVdMSKqpRLsOIAbaeS-213" target="0HKVdMSKqpRLsOIAbaeS-214">
          <mxGeometry relative="1" as="geometry">
            <Array as="points" />
          </mxGeometry>
        </mxCell>
        <mxCell id="0HKVdMSKqpRLsOIAbaeS-324" value="" style="curved=1;startArrow=none;;exitX=0.5;exitY=1;entryX=0.48;entryY=0;rounded=0;" edge="1" parent="0HKVdMSKqpRLsOIAbaeS-176" source="0HKVdMSKqpRLsOIAbaeS-214" target="0HKVdMSKqpRLsOIAbaeS-215">
          <mxGeometry relative="1" as="geometry">
            <Array as="points" />
          </mxGeometry>
        </mxCell>
        <mxCell id="0HKVdMSKqpRLsOIAbaeS-325" value="" style="curved=1;startArrow=none;;rounded=0;" edge="1" parent="0HKVdMSKqpRLsOIAbaeS-176" source="0HKVdMSKqpRLsOIAbaeS-178" target="0HKVdMSKqpRLsOIAbaeS-279">
          <mxGeometry relative="1" as="geometry">
            <Array as="points" />
          </mxGeometry>
        </mxCell>
        <mxCell id="0HKVdMSKqpRLsOIAbaeS-326" value="" style="curved=1;startArrow=none;;exitX=1;exitY=0.67;entryX=0.5;entryY=0;rounded=0;" edge="1" parent="0HKVdMSKqpRLsOIAbaeS-176" source="0HKVdMSKqpRLsOIAbaeS-178" target="0HKVdMSKqpRLsOIAbaeS-216">
          <mxGeometry relative="1" as="geometry">
            <Array as="points">
              <mxPoint x="1292" y="212" />
            </Array>
          </mxGeometry>
        </mxCell>
        <mxCell id="0HKVdMSKqpRLsOIAbaeS-327" value="" style="curved=1;startArrow=none;;rounded=0;" edge="1" parent="0HKVdMSKqpRLsOIAbaeS-176" source="0HKVdMSKqpRLsOIAbaeS-279" target="0HKVdMSKqpRLsOIAbaeS-194">
          <mxGeometry relative="1" as="geometry">
            <Array as="points" />
          </mxGeometry>
        </mxCell>
        <mxCell id="0HKVdMSKqpRLsOIAbaeS-328" value="" style="curved=1;startArrow=none;;exitX=0.5;exitY=1;entryX=0.5;entryY=0;rounded=0;" edge="1" parent="0HKVdMSKqpRLsOIAbaeS-176" source="0HKVdMSKqpRLsOIAbaeS-216" target="0HKVdMSKqpRLsOIAbaeS-194">
          <mxGeometry relative="1" as="geometry">
            <Array as="points" />
          </mxGeometry>
        </mxCell>
        <mxCell id="0HKVdMSKqpRLsOIAbaeS-329" value="[Prioritas SDM]" style="curved=1;startArrow=none;;exitX=0.5;exitY=1;entryX=0.5;entryY=0;rounded=0;" edge="1" parent="0HKVdMSKqpRLsOIAbaeS-176" source="0HKVdMSKqpRLsOIAbaeS-195" target="0HKVdMSKqpRLsOIAbaeS-243">
          <mxGeometry relative="1" as="geometry">
            <Array as="points" />
          </mxGeometry>
        </mxCell>
        <mxCell id="0HKVdMSKqpRLsOIAbaeS-330" value="[Prioritas Infrastruktur]" style="curved=1;startArrow=none;;rounded=0;" edge="1" parent="0HKVdMSKqpRLsOIAbaeS-176" source="0HKVdMSKqpRLsOIAbaeS-195" target="0HKVdMSKqpRLsOIAbaeS-280">
          <mxGeometry relative="1" as="geometry">
            <Array as="points" />
          </mxGeometry>
        </mxCell>
        <mxCell id="0HKVdMSKqpRLsOIAbaeS-331" value="" style="curved=1;startArrow=none;;exitX=0.5;exitY=1;entryX=0.49;entryY=0;rounded=0;" edge="1" parent="0HKVdMSKqpRLsOIAbaeS-176" source="0HKVdMSKqpRLsOIAbaeS-243" target="0HKVdMSKqpRLsOIAbaeS-213">
          <mxGeometry relative="1" as="geometry">
            <Array as="points" />
          </mxGeometry>
        </mxCell>
        <mxCell id="0HKVdMSKqpRLsOIAbaeS-332" value="" style="curved=1;startArrow=none;;rounded=0;" edge="1" parent="0HKVdMSKqpRLsOIAbaeS-176" source="0HKVdMSKqpRLsOIAbaeS-280" target="0HKVdMSKqpRLsOIAbaeS-213">
          <mxGeometry relative="1" as="geometry">
            <Array as="points" />
          </mxGeometry>
        </mxCell>
        <mxCell id="0HKVdMSKqpRLsOIAbaeS-333" value="TAHAP 4: STRATEGIS PEMASARAN" style="swimlane;fontStyle=1;align=center;verticalAlign=middle;startSize=25;container=0;collapsible=0;rounded=1;arcSize=14;dropTarget=0;" vertex="1" parent="1">
          <mxGeometry x="6732" y="1467" width="5060" height="5765" as="geometry" />
        </mxCell>
        <mxCell id="0HKVdMSKqpRLsOIAbaeS-334" value="" style="ellipse;fillColor=strokeColor;" vertex="1" parent="1">
          <mxGeometry x="6806" y="1926" width="14" height="14" as="geometry" />
        </mxCell>
        <mxCell id="0HKVdMSKqpRLsOIAbaeS-335" value="PerencanaanStrategis" style="swimlane;fontStyle=1;align=center;verticalAlign=middle;startSize=25;container=0;collapsible=0;rounded=1;arcSize=14;dropTarget=0;verticalAlign=top;" vertex="1" parent="1">
          <mxGeometry x="7055" y="1896" width="762" height="1122" as="geometry" />
        </mxCell>
        <mxCell id="0HKVdMSKqpRLsOIAbaeS-336" value="" style="ellipse;fillColor=strokeColor;" vertex="1" parent="0HKVdMSKqpRLsOIAbaeS-335">
          <mxGeometry x="391" y="46" width="14" height="14" as="geometry" />
        </mxCell>
        <mxCell id="0HKVdMSKqpRLsOIAbaeS-337" value="AnalisaPasar" style="rounded=1;arcSize=20;strokeWidth=2" vertex="1" parent="0HKVdMSKqpRLsOIAbaeS-335">
          <mxGeometry x="345" y="135" width="104" height="40" as="geometry" />
        </mxCell>
        <mxCell id="0HKVdMSKqpRLsOIAbaeS-338" value="AnalisaPesaing" style="rounded=1;arcSize=20;strokeWidth=2" vertex="1" parent="0HKVdMSKqpRLsOIAbaeS-335">
          <mxGeometry x="338" y="250" width="120" height="40" as="geometry" />
        </mxCell>
        <mxCell id="0HKVdMSKqpRLsOIAbaeS-339" value="DecisionPosisi" style="rounded=1;arcSize=20;strokeWidth=2" vertex="1" parent="0HKVdMSKqpRLsOIAbaeS-335">
          <mxGeometry x="340" y="365" width="114" height="40" as="geometry" />
        </mxCell>
        <mxCell id="0HKVdMSKqpRLsOIAbaeS-340" value="StrategiPremium" style="rounded=1;arcSize=20;strokeWidth=2" vertex="1" parent="0HKVdMSKqpRLsOIAbaeS-335">
          <mxGeometry x="43" y="503" width="135" height="40" as="geometry" />
        </mxCell>
        <mxCell id="0HKVdMSKqpRLsOIAbaeS-341" value="StrategiUmum" style="rounded=1;arcSize=20;strokeWidth=2" vertex="1" parent="0HKVdMSKqpRLsOIAbaeS-335">
          <mxGeometry x="328" y="503" width="118" height="40" as="geometry" />
        </mxCell>
        <mxCell id="0HKVdMSKqpRLsOIAbaeS-342" value="StrategiEkonomi" style="rounded=1;arcSize=20;strokeWidth=2" vertex="1" parent="0HKVdMSKqpRLsOIAbaeS-335">
          <mxGeometry x="602" y="503" width="133" height="40" as="geometry" />
        </mxCell>
        <mxCell id="0HKVdMSKqpRLsOIAbaeS-343" value="ForkStrategi" style="rounded=1;arcSize=20;strokeWidth=2" vertex="1" parent="0HKVdMSKqpRLsOIAbaeS-335">
          <mxGeometry x="345" y="618" width="104" height="40" as="geometry" />
        </mxCell>
        <mxCell id="0HKVdMSKqpRLsOIAbaeS-344" value="DefinisiTargetAudience" style="rounded=1;arcSize=20;strokeWidth=2" vertex="1" parent="0HKVdMSKqpRLsOIAbaeS-335">
          <mxGeometry x="43" y="733" width="180" height="40" as="geometry" />
        </mxCell>
        <mxCell id="0HKVdMSKqpRLsOIAbaeS-345" value="AlokasiBudget" style="rounded=1;arcSize=20;strokeWidth=2" vertex="1" parent="0HKVdMSKqpRLsOIAbaeS-335">
          <mxGeometry x="339" y="733" width="116" height="40" as="geometry" />
        </mxCell>
        <mxCell id="0HKVdMSKqpRLsOIAbaeS-346" value="PerencanaanKanal" style="rounded=1;arcSize=20;strokeWidth=2" vertex="1" parent="0HKVdMSKqpRLsOIAbaeS-335">
          <mxGeometry x="582" y="733" width="147" height="40" as="geometry" />
        </mxCell>
        <mxCell id="0HKVdMSKqpRLsOIAbaeS-347" value="JoinStrategi" style="rounded=1;arcSize=20;strokeWidth=2" vertex="1" parent="0HKVdMSKqpRLsOIAbaeS-335">
          <mxGeometry x="345" y="848" width="102" height="40" as="geometry" />
        </mxCell>
        <mxCell id="0HKVdMSKqpRLsOIAbaeS-348" value="StrategiKomprehensif" style="rounded=1;arcSize=20;strokeWidth=2" vertex="1" parent="0HKVdMSKqpRLsOIAbaeS-335">
          <mxGeometry x="311" y="963" width="170" height="40" as="geometry" />
        </mxCell>
        <mxCell id="0HKVdMSKqpRLsOIAbaeS-349" value="" style="ellipse;shape=endState;fillColor=strokeColor;" vertex="1" parent="0HKVdMSKqpRLsOIAbaeS-335">
          <mxGeometry x="389" y="1078" width="14" height="14" as="geometry" />
        </mxCell>
        <mxCell id="0HKVdMSKqpRLsOIAbaeS-350" value="" style="curved=1;startArrow=none;;exitX=0.47;exitY=0.96;entryX=0.51;entryY=-0.01;rounded=0;" edge="1" parent="0HKVdMSKqpRLsOIAbaeS-335" source="0HKVdMSKqpRLsOIAbaeS-336" target="0HKVdMSKqpRLsOIAbaeS-337">
          <mxGeometry relative="1" as="geometry">
            <Array as="points" />
          </mxGeometry>
        </mxCell>
        <mxCell id="0HKVdMSKqpRLsOIAbaeS-351" value="" style="curved=1;startArrow=none;;exitX=0.51;exitY=0.99;entryX=0.5;entryY=-0.01;rounded=0;" edge="1" parent="0HKVdMSKqpRLsOIAbaeS-335" source="0HKVdMSKqpRLsOIAbaeS-337" target="0HKVdMSKqpRLsOIAbaeS-338">
          <mxGeometry relative="1" as="geometry">
            <Array as="points" />
          </mxGeometry>
        </mxCell>
        <mxCell id="0HKVdMSKqpRLsOIAbaeS-352" value="" style="curved=1;startArrow=none;;exitX=0.5;exitY=0.99;entryX=0.51;entryY=-0.01;rounded=0;" edge="1" parent="0HKVdMSKqpRLsOIAbaeS-335" source="0HKVdMSKqpRLsOIAbaeS-338" target="0HKVdMSKqpRLsOIAbaeS-339">
          <mxGeometry relative="1" as="geometry">
            <Array as="points" />
          </mxGeometry>
        </mxCell>
        <mxCell id="0HKVdMSKqpRLsOIAbaeS-353" value="[Target High-End]" style="curved=1;startArrow=none;;exitX=0;exitY=0.83;entryX=0.5;entryY=-0.01;rounded=0;" edge="1" parent="0HKVdMSKqpRLsOIAbaeS-335" source="0HKVdMSKqpRLsOIAbaeS-339" target="0HKVdMSKqpRLsOIAbaeS-340">
          <mxGeometry relative="1" as="geometry">
            <Array as="points">
              <mxPoint x="111" y="454" />
            </Array>
          </mxGeometry>
        </mxCell>
        <mxCell id="0HKVdMSKqpRLsOIAbaeS-354" value="[Target Mid-Market]" style="curved=1;startArrow=none;;exitX=0.48;exitY=0.99;entryX=0.5;entryY=-0.01;rounded=0;" edge="1" parent="0HKVdMSKqpRLsOIAbaeS-335" source="0HKVdMSKqpRLsOIAbaeS-339" target="0HKVdMSKqpRLsOIAbaeS-341">
          <mxGeometry relative="1" as="geometry">
            <Array as="points">
              <mxPoint x="387" y="454" />
            </Array>
          </mxGeometry>
        </mxCell>
        <mxCell id="0HKVdMSKqpRLsOIAbaeS-355" value="[Target Budget]" style="curved=1;startArrow=none;;exitX=1.01;exitY=0.85;entryX=0.5;entryY=-0.01;rounded=0;" edge="1" parent="0HKVdMSKqpRLsOIAbaeS-335" source="0HKVdMSKqpRLsOIAbaeS-339" target="0HKVdMSKqpRLsOIAbaeS-342">
          <mxGeometry relative="1" as="geometry">
            <Array as="points">
              <mxPoint x="668" y="454" />
            </Array>
          </mxGeometry>
        </mxCell>
        <mxCell id="0HKVdMSKqpRLsOIAbaeS-356" value="" style="curved=1;startArrow=none;;exitX=0.5;exitY=0.99;entryX=0;entryY=0.23;rounded=0;" edge="1" parent="0HKVdMSKqpRLsOIAbaeS-335" source="0HKVdMSKqpRLsOIAbaeS-340" target="0HKVdMSKqpRLsOIAbaeS-343">
          <mxGeometry relative="1" as="geometry">
            <Array as="points">
              <mxPoint x="111" y="580" />
            </Array>
          </mxGeometry>
        </mxCell>
        <mxCell id="0HKVdMSKqpRLsOIAbaeS-357" value="" style="curved=1;startArrow=none;;exitX=0.5;exitY=0.99;entryX=0.47;entryY=-0.01;rounded=0;" edge="1" parent="0HKVdMSKqpRLsOIAbaeS-335" source="0HKVdMSKqpRLsOIAbaeS-341" target="0HKVdMSKqpRLsOIAbaeS-343">
          <mxGeometry relative="1" as="geometry">
            <Array as="points">
              <mxPoint x="387" y="580" />
            </Array>
          </mxGeometry>
        </mxCell>
        <mxCell id="0HKVdMSKqpRLsOIAbaeS-358" value="" style="curved=1;startArrow=none;;exitX=0.5;exitY=0.99;entryX=1;entryY=0.21;rounded=0;" edge="1" parent="0HKVdMSKqpRLsOIAbaeS-335" source="0HKVdMSKqpRLsOIAbaeS-342" target="0HKVdMSKqpRLsOIAbaeS-343">
          <mxGeometry relative="1" as="geometry">
            <Array as="points">
              <mxPoint x="668" y="580" />
            </Array>
          </mxGeometry>
        </mxCell>
        <mxCell id="0HKVdMSKqpRLsOIAbaeS-359" value="" style="curved=1;startArrow=none;;exitX=0;exitY=0.77;entryX=0.5;entryY=-0.01;rounded=0;" edge="1" parent="0HKVdMSKqpRLsOIAbaeS-335" source="0HKVdMSKqpRLsOIAbaeS-343" target="0HKVdMSKqpRLsOIAbaeS-344">
          <mxGeometry relative="1" as="geometry">
            <Array as="points">
              <mxPoint x="133" y="695" />
            </Array>
          </mxGeometry>
        </mxCell>
        <mxCell id="0HKVdMSKqpRLsOIAbaeS-360" value="" style="curved=1;startArrow=none;;exitX=0.5;exitY=0.99;entryX=0.5;entryY=-0.01;rounded=0;" edge="1" parent="0HKVdMSKqpRLsOIAbaeS-335" source="0HKVdMSKqpRLsOIAbaeS-343" target="0HKVdMSKqpRLsOIAbaeS-345">
          <mxGeometry relative="1" as="geometry">
            <Array as="points" />
          </mxGeometry>
        </mxCell>
        <mxCell id="0HKVdMSKqpRLsOIAbaeS-361" value="" style="curved=1;startArrow=none;;exitX=1;exitY=0.78;entryX=0.5;entryY=-0.01;rounded=0;" edge="1" parent="0HKVdMSKqpRLsOIAbaeS-335" source="0HKVdMSKqpRLsOIAbaeS-343" target="0HKVdMSKqpRLsOIAbaeS-346">
          <mxGeometry relative="1" as="geometry">
            <Array as="points">
              <mxPoint x="655" y="695" />
            </Array>
          </mxGeometry>
        </mxCell>
        <mxCell id="0HKVdMSKqpRLsOIAbaeS-362" value="" style="curved=1;startArrow=none;;exitX=0.5;exitY=0.99;entryX=0;entryY=0.21;rounded=0;" edge="1" parent="0HKVdMSKqpRLsOIAbaeS-335" source="0HKVdMSKqpRLsOIAbaeS-344" target="0HKVdMSKqpRLsOIAbaeS-347">
          <mxGeometry relative="1" as="geometry">
            <Array as="points">
              <mxPoint x="133" y="810" />
            </Array>
          </mxGeometry>
        </mxCell>
        <mxCell id="0HKVdMSKqpRLsOIAbaeS-363" value="" style="curved=1;startArrow=none;;exitX=0.5;exitY=0.99;entryX=0.5;entryY=-0.01;rounded=0;" edge="1" parent="0HKVdMSKqpRLsOIAbaeS-335" source="0HKVdMSKqpRLsOIAbaeS-345" target="0HKVdMSKqpRLsOIAbaeS-347">
          <mxGeometry relative="1" as="geometry">
            <Array as="points">
              <mxPoint x="397" y="810" />
            </Array>
          </mxGeometry>
        </mxCell>
        <mxCell id="0HKVdMSKqpRLsOIAbaeS-364" value="" style="curved=1;startArrow=none;;exitX=0.5;exitY=0.99;entryX=1;entryY=0.21;rounded=0;" edge="1" parent="0HKVdMSKqpRLsOIAbaeS-335" source="0HKVdMSKqpRLsOIAbaeS-346" target="0HKVdMSKqpRLsOIAbaeS-347">
          <mxGeometry relative="1" as="geometry">
            <Array as="points">
              <mxPoint x="655" y="810" />
            </Array>
          </mxGeometry>
        </mxCell>
        <mxCell id="0HKVdMSKqpRLsOIAbaeS-365" value="" style="curved=1;startArrow=none;;exitX=0.5;exitY=0.99;entryX=0.5;entryY=-0.01;rounded=0;" edge="1" parent="0HKVdMSKqpRLsOIAbaeS-335" source="0HKVdMSKqpRLsOIAbaeS-347" target="0HKVdMSKqpRLsOIAbaeS-348">
          <mxGeometry relative="1" as="geometry">
            <Array as="points" />
          </mxGeometry>
        </mxCell>
        <mxCell id="0HKVdMSKqpRLsOIAbaeS-366" value="" style="curved=1;startArrow=none;;exitX=0.5;exitY=0.99;entryX=0.48;entryY=-0.04;rounded=0;" edge="1" parent="0HKVdMSKqpRLsOIAbaeS-335" source="0HKVdMSKqpRLsOIAbaeS-348" target="0HKVdMSKqpRLsOIAbaeS-349">
          <mxGeometry relative="1" as="geometry">
            <Array as="points" />
          </mxGeometry>
        </mxCell>
        <mxCell id="0HKVdMSKqpRLsOIAbaeS-367" value="ForkKampanye" style="rounded=1;arcSize=20;strokeWidth=2" vertex="1" parent="1">
          <mxGeometry x="7956" y="2437" width="121" height="40" as="geometry" />
        </mxCell>
        <mxCell id="0HKVdMSKqpRLsOIAbaeS-368" value="KampanyeTraditional" style="rounded=1;arcSize=20;strokeWidth=2" vertex="1" parent="1">
          <mxGeometry x="8165" y="1772" width="167" height="40" as="geometry" />
        </mxCell>
        <mxCell id="0HKVdMSKqpRLsOIAbaeS-369" value="KampanyeDigital" style="rounded=1;arcSize=20;strokeWidth=2" vertex="1" parent="1">
          <mxGeometry x="8180" y="2482" width="136" height="40" as="geometry" />
        </mxCell>
        <mxCell id="0HKVdMSKqpRLsOIAbaeS-370" value="KampanyeKomunitas" style="rounded=1;arcSize=20;strokeWidth=2" vertex="1" parent="1">
          <mxGeometry x="8166" y="2572" width="163" height="40" as="geometry" />
        </mxCell>
        <mxCell id="0HKVdMSKqpRLsOIAbaeS-371" value="JoinKampanye" style="rounded=1;arcSize=20;strokeWidth=2" vertex="1" parent="1">
          <mxGeometry x="8427" y="2437" width="119" height="40" as="geometry" />
        </mxCell>
        <mxCell id="0HKVdMSKqpRLsOIAbaeS-372" value="" style="ellipse;fillColor=strokeColor;" vertex="1" parent="1">
          <mxGeometry x="8010" y="5128" width="14" height="14" as="geometry" />
        </mxCell>
        <mxCell id="0HKVdMSKqpRLsOIAbaeS-373" value="ReviewProposal" style="rounded=1;arcSize=20;strokeWidth=2" vertex="1" parent="1">
          <mxGeometry x="8185" y="5115" width="127" height="40" as="geometry" />
        </mxCell>
        <mxCell id="0HKVdMSKqpRLsOIAbaeS-374" value="DecisionProposal" style="rounded=1;arcSize=20;strokeWidth=2" vertex="1" parent="1">
          <mxGeometry x="8419" y="5086" width="135" height="40" as="geometry" />
        </mxCell>
        <mxCell id="0HKVdMSKqpRLsOIAbaeS-375" value="RevisiKonten" style="rounded=1;arcSize=20;strokeWidth=2" vertex="1" parent="1">
          <mxGeometry x="8750" y="5160" width="107" height="40" as="geometry" />
        </mxCell>
        <mxCell id="0HKVdMSKqpRLsOIAbaeS-376" value="DecisionBudget" style="rounded=1;arcSize=20;strokeWidth=2" vertex="1" parent="1">
          <mxGeometry x="9224" y="5070" width="125" height="40" as="geometry" />
        </mxCell>
        <mxCell id="0HKVdMSKqpRLsOIAbaeS-377" value="AdjustmentBudget" style="rounded=1;arcSize=20;strokeWidth=2" vertex="1" parent="1">
          <mxGeometry x="9718" y="5098" width="149" height="40" as="geometry" />
        </mxCell>
        <mxCell id="0HKVdMSKqpRLsOIAbaeS-378" value="FinalApproval" style="rounded=1;arcSize=20;strokeWidth=2" vertex="1" parent="1">
          <mxGeometry x="9736" y="5188" width="114" height="40" as="geometry" />
        </mxCell>
        <mxCell id="0HKVdMSKqpRLsOIAbaeS-379" value="" style="ellipse;shape=endState;fillColor=strokeColor;" vertex="1" parent="1">
          <mxGeometry x="9989" y="5201" width="14" height="14" as="geometry" />
        </mxCell>
        <mxCell id="0HKVdMSKqpRLsOIAbaeS-380" value="PeluncuranKampanye" style="rounded=1;arcSize=20;strokeWidth=2" vertex="1" parent="1">
          <mxGeometry x="9203" y="6698" width="169" height="40" as="geometry" />
        </mxCell>
        <mxCell id="0HKVdMSKqpRLsOIAbaeS-381" value="ForkMonitoring" style="rounded=1;arcSize=20;strokeWidth=2" vertex="1" parent="1">
          <mxGeometry x="9731" y="6698" width="123" height="40" as="geometry" />
        </mxCell>
        <mxCell id="0HKVdMSKqpRLsOIAbaeS-382" value="MonitoringHarian" style="rounded=1;arcSize=20;strokeWidth=2" vertex="1" parent="1">
          <mxGeometry x="9927" y="6653" width="139" height="40" as="geometry" />
        </mxCell>
        <mxCell id="0HKVdMSKqpRLsOIAbaeS-383" value="MonitoringMingguan" style="rounded=1;arcSize=20;strokeWidth=2" vertex="1" parent="1">
          <mxGeometry x="9917" y="6743" width="158" height="40" as="geometry" />
        </mxCell>
        <mxCell id="0HKVdMSKqpRLsOIAbaeS-384" value="MonitoringBulanan" style="rounded=1;arcSize=20;strokeWidth=2" vertex="1" parent="1">
          <mxGeometry x="9922" y="6972" width="149" height="40" as="geometry" />
        </mxCell>
        <mxCell id="0HKVdMSKqpRLsOIAbaeS-385" value="JoinMonitoring" style="rounded=1;arcSize=20;strokeWidth=2" vertex="1" parent="1">
          <mxGeometry x="10154" y="6788" width="121" height="40" as="geometry" />
        </mxCell>
        <mxCell id="0HKVdMSKqpRLsOIAbaeS-386" value="EvaluasiEfektivitas" style="swimlane;fontStyle=1;align=center;verticalAlign=middle;startSize=25;container=0;collapsible=0;rounded=1;arcSize=14;dropTarget=0;verticalAlign=top;" vertex="1" parent="1">
          <mxGeometry x="10330" y="6420" width="657" height="777" as="geometry" />
        </mxCell>
        <mxCell id="0HKVdMSKqpRLsOIAbaeS-387" value="" style="ellipse;fillColor=strokeColor;" vertex="1" parent="0HKVdMSKqpRLsOIAbaeS-386">
          <mxGeometry x="328" y="46" width="14" height="14" as="geometry" />
        </mxCell>
        <mxCell id="0HKVdMSKqpRLsOIAbaeS-388" value="AnalisaMetrik" style="rounded=1;arcSize=20;strokeWidth=2" vertex="1" parent="0HKVdMSKqpRLsOIAbaeS-386">
          <mxGeometry x="279" y="135" width="112" height="40" as="geometry" />
        </mxCell>
        <mxCell id="0HKVdMSKqpRLsOIAbaeS-389" value="DecisionKampanye" style="rounded=1;arcSize=20;strokeWidth=2" vertex="1" parent="0HKVdMSKqpRLsOIAbaeS-386">
          <mxGeometry x="260" y="250" width="149" height="40" as="geometry" />
        </mxCell>
        <mxCell id="0HKVdMSKqpRLsOIAbaeS-390" value="PerbaikanKampanye" style="rounded=1;arcSize=20;strokeWidth=2" vertex="1" parent="0HKVdMSKqpRLsOIAbaeS-386">
          <mxGeometry x="43" y="388" width="160" height="40" as="geometry" />
        </mxCell>
        <mxCell id="0HKVdMSKqpRLsOIAbaeS-391" value="PenguatanKampanye" style="rounded=1;arcSize=20;strokeWidth=2" vertex="1" parent="0HKVdMSKqpRLsOIAbaeS-386">
          <mxGeometry x="253" y="388" width="164" height="40" as="geometry" />
        </mxCell>
        <mxCell id="0HKVdMSKqpRLsOIAbaeS-392" value="PerluasanKampanye" style="rounded=1;arcSize=20;strokeWidth=2" vertex="1" parent="0HKVdMSKqpRLsOIAbaeS-386">
          <mxGeometry x="467" y="388" width="158" height="40" as="geometry" />
        </mxCell>
        <mxCell id="0HKVdMSKqpRLsOIAbaeS-393" value="RevisiStrategi" style="rounded=1;arcSize=20;strokeWidth=2" vertex="1" parent="0HKVdMSKqpRLsOIAbaeS-386">
          <mxGeometry x="66" y="503" width="113" height="40" as="geometry" />
        </mxCell>
        <mxCell id="0HKVdMSKqpRLsOIAbaeS-394" value="OptimalisasiAlokasi" style="rounded=1;arcSize=20;strokeWidth=2" vertex="1" parent="0HKVdMSKqpRLsOIAbaeS-386">
          <mxGeometry x="258" y="503" width="154" height="40" as="geometry" />
        </mxCell>
        <mxCell id="0HKVdMSKqpRLsOIAbaeS-395" value="PerencanaanEkspansi" style="rounded=1;arcSize=20;strokeWidth=2" vertex="1" parent="0HKVdMSKqpRLsOIAbaeS-386">
          <mxGeometry x="462" y="503" width="167" height="40" as="geometry" />
        </mxCell>
        <mxCell id="0HKVdMSKqpRLsOIAbaeS-396" value="ReevaluasiTarget" style="rounded=1;arcSize=20;strokeWidth=2" vertex="1" parent="0HKVdMSKqpRLsOIAbaeS-386">
          <mxGeometry x="267" y="618" width="136" height="40" as="geometry" />
        </mxCell>
        <mxCell id="0HKVdMSKqpRLsOIAbaeS-397" value="" style="ellipse;shape=endState;fillColor=strokeColor;" vertex="1" parent="0HKVdMSKqpRLsOIAbaeS-386">
          <mxGeometry x="328" y="733" width="14" height="14" as="geometry" />
        </mxCell>
        <mxCell id="0HKVdMSKqpRLsOIAbaeS-398" value="" style="curved=1;startArrow=none;;exitX=0.48;exitY=0.96;entryX=0.5;entryY=-0.01;rounded=0;" edge="1" parent="0HKVdMSKqpRLsOIAbaeS-386" source="0HKVdMSKqpRLsOIAbaeS-387" target="0HKVdMSKqpRLsOIAbaeS-388">
          <mxGeometry relative="1" as="geometry">
            <Array as="points" />
          </mxGeometry>
        </mxCell>
        <mxCell id="0HKVdMSKqpRLsOIAbaeS-399" value="" style="curved=1;startArrow=none;;exitX=0.5;exitY=0.99;entryX=0.5;entryY=-0.01;rounded=0;" edge="1" parent="0HKVdMSKqpRLsOIAbaeS-386" source="0HKVdMSKqpRLsOIAbaeS-388" target="0HKVdMSKqpRLsOIAbaeS-389">
          <mxGeometry relative="1" as="geometry">
            <Array as="points" />
          </mxGeometry>
        </mxCell>
        <mxCell id="0HKVdMSKqpRLsOIAbaeS-400" value="[ROI Rendah]" style="curved=1;startArrow=none;;exitX=0.09;exitY=0.99;entryX=0.5;entryY=-0.01;rounded=0;" edge="1" parent="0HKVdMSKqpRLsOIAbaeS-386" source="0HKVdMSKqpRLsOIAbaeS-389" target="0HKVdMSKqpRLsOIAbaeS-390">
          <mxGeometry relative="1" as="geometry">
            <Array as="points">
              <mxPoint x="123" y="339" />
            </Array>
          </mxGeometry>
        </mxCell>
        <mxCell id="0HKVdMSKqpRLsOIAbaeS-401" value="[ROI Baik]" style="curved=1;startArrow=none;;exitX=0.5;exitY=0.99;entryX=0.5;entryY=-0.01;rounded=0;" edge="1" parent="0HKVdMSKqpRLsOIAbaeS-386" source="0HKVdMSKqpRLsOIAbaeS-389" target="0HKVdMSKqpRLsOIAbaeS-391">
          <mxGeometry relative="1" as="geometry">
            <Array as="points" />
          </mxGeometry>
        </mxCell>
        <mxCell id="0HKVdMSKqpRLsOIAbaeS-402" value="[ROI Sangat Baik]" style="curved=1;startArrow=none;;exitX=0.91;exitY=0.99;entryX=0.5;entryY=-0.01;rounded=0;" edge="1" parent="0HKVdMSKqpRLsOIAbaeS-386" source="0HKVdMSKqpRLsOIAbaeS-389" target="0HKVdMSKqpRLsOIAbaeS-392">
          <mxGeometry relative="1" as="geometry">
            <Array as="points">
              <mxPoint x="546" y="339" />
            </Array>
          </mxGeometry>
        </mxCell>
        <mxCell id="0HKVdMSKqpRLsOIAbaeS-403" value="" style="curved=1;startArrow=none;;exitX=0.5;exitY=0.99;entryX=0.5;entryY=-0.01;rounded=0;" edge="1" parent="0HKVdMSKqpRLsOIAbaeS-386" source="0HKVdMSKqpRLsOIAbaeS-390" target="0HKVdMSKqpRLsOIAbaeS-393">
          <mxGeometry relative="1" as="geometry">
            <Array as="points" />
          </mxGeometry>
        </mxCell>
        <mxCell id="0HKVdMSKqpRLsOIAbaeS-404" value="" style="curved=1;startArrow=none;;exitX=0.5;exitY=0.99;entryX=0.5;entryY=-0.01;rounded=0;" edge="1" parent="0HKVdMSKqpRLsOIAbaeS-386" source="0HKVdMSKqpRLsOIAbaeS-391" target="0HKVdMSKqpRLsOIAbaeS-394">
          <mxGeometry relative="1" as="geometry">
            <Array as="points" />
          </mxGeometry>
        </mxCell>
        <mxCell id="0HKVdMSKqpRLsOIAbaeS-405" value="" style="curved=1;startArrow=none;;exitX=0.5;exitY=0.99;entryX=0.5;entryY=-0.01;rounded=0;" edge="1" parent="0HKVdMSKqpRLsOIAbaeS-386" source="0HKVdMSKqpRLsOIAbaeS-392" target="0HKVdMSKqpRLsOIAbaeS-395">
          <mxGeometry relative="1" as="geometry">
            <Array as="points" />
          </mxGeometry>
        </mxCell>
        <mxCell id="0HKVdMSKqpRLsOIAbaeS-406" value="" style="curved=1;startArrow=none;;exitX=0.5;exitY=0.99;entryX=0;entryY=0.03;rounded=0;" edge="1" parent="0HKVdMSKqpRLsOIAbaeS-386" source="0HKVdMSKqpRLsOIAbaeS-393" target="0HKVdMSKqpRLsOIAbaeS-396">
          <mxGeometry relative="1" as="geometry">
            <Array as="points">
              <mxPoint x="123" y="580" />
            </Array>
          </mxGeometry>
        </mxCell>
        <mxCell id="0HKVdMSKqpRLsOIAbaeS-407" value="" style="curved=1;startArrow=none;;exitX=0.5;exitY=0.99;entryX=0.5;entryY=-0.01;rounded=0;" edge="1" parent="0HKVdMSKqpRLsOIAbaeS-386" source="0HKVdMSKqpRLsOIAbaeS-394" target="0HKVdMSKqpRLsOIAbaeS-396">
          <mxGeometry relative="1" as="geometry">
            <Array as="points" />
          </mxGeometry>
        </mxCell>
        <mxCell id="0HKVdMSKqpRLsOIAbaeS-408" value="" style="curved=1;startArrow=none;;exitX=0.5;exitY=0.99;entryX=1;entryY=0.02;rounded=0;" edge="1" parent="0HKVdMSKqpRLsOIAbaeS-386" source="0HKVdMSKqpRLsOIAbaeS-395" target="0HKVdMSKqpRLsOIAbaeS-396">
          <mxGeometry relative="1" as="geometry">
            <Array as="points">
              <mxPoint x="546" y="580" />
            </Array>
          </mxGeometry>
        </mxCell>
        <mxCell id="0HKVdMSKqpRLsOIAbaeS-409" value="" style="curved=1;startArrow=none;;exitX=0.5;exitY=0.99;entryX=0.48;entryY=-0.04;rounded=0;" edge="1" parent="0HKVdMSKqpRLsOIAbaeS-386" source="0HKVdMSKqpRLsOIAbaeS-396" target="0HKVdMSKqpRLsOIAbaeS-397">
          <mxGeometry relative="1" as="geometry">
            <Array as="points" />
          </mxGeometry>
        </mxCell>
        <mxCell id="0HKVdMSKqpRLsOIAbaeS-410" value="LaporanAkhir" style="swimlane;fontStyle=1;align=center;verticalAlign=middle;startSize=25;container=0;collapsible=0;rounded=1;arcSize=14;dropTarget=0;verticalAlign=top;" vertex="1" parent="1">
          <mxGeometry x="11036" y="6420" width="667" height="777" as="geometry" />
        </mxCell>
        <mxCell id="0HKVdMSKqpRLsOIAbaeS-411" value="" style="ellipse;fillColor=strokeColor;" vertex="1" parent="0HKVdMSKqpRLsOIAbaeS-410">
          <mxGeometry x="341" y="46" width="14" height="14" as="geometry" />
        </mxCell>
        <mxCell id="0HKVdMSKqpRLsOIAbaeS-412" value="KompilasiData" style="rounded=1;arcSize=20;strokeWidth=2" vertex="1" parent="0HKVdMSKqpRLsOIAbaeS-410">
          <mxGeometry x="289" y="135" width="117" height="40" as="geometry" />
        </mxCell>
        <mxCell id="0HKVdMSKqpRLsOIAbaeS-413" value="AnalisaROI" style="rounded=1;arcSize=20;strokeWidth=2" vertex="1" parent="0HKVdMSKqpRLsOIAbaeS-410">
          <mxGeometry x="302" y="250" width="91" height="40" as="geometry" />
        </mxCell>
        <mxCell id="0HKVdMSKqpRLsOIAbaeS-414" value="DecisionProyek" style="rounded=1;arcSize=20;strokeWidth=2" vertex="1" parent="0HKVdMSKqpRLsOIAbaeS-410">
          <mxGeometry x="287" y="365" width="123" height="40" as="geometry" />
        </mxCell>
        <mxCell id="0HKVdMSKqpRLsOIAbaeS-415" value="PenghentianKampanye" style="rounded=1;arcSize=20;strokeWidth=2" vertex="1" parent="0HKVdMSKqpRLsOIAbaeS-410">
          <mxGeometry x="43" y="503" width="178" height="40" as="geometry" />
        </mxCell>
        <mxCell id="0HKVdMSKqpRLsOIAbaeS-416" value="PelanjutanKampanye" style="rounded=1;arcSize=20;strokeWidth=2" vertex="1" parent="0HKVdMSKqpRLsOIAbaeS-410">
          <mxGeometry x="271" y="503" width="166" height="40" as="geometry" />
        </mxCell>
        <mxCell id="0HKVdMSKqpRLsOIAbaeS-417" value="ReplikasiKampanye" style="rounded=1;arcSize=20;strokeWidth=2" vertex="1" parent="0HKVdMSKqpRLsOIAbaeS-410">
          <mxGeometry x="487" y="503" width="153" height="40" as="geometry" />
        </mxCell>
        <mxCell id="0HKVdMSKqpRLsOIAbaeS-418" value="DokumentasiPelajaran" style="rounded=1;arcSize=20;strokeWidth=2" vertex="1" parent="0HKVdMSKqpRLsOIAbaeS-410">
          <mxGeometry x="266" y="618" width="175" height="40" as="geometry" />
        </mxCell>
        <mxCell id="0HKVdMSKqpRLsOIAbaeS-419" value="" style="ellipse;shape=endState;fillColor=strokeColor;" vertex="1" parent="0HKVdMSKqpRLsOIAbaeS-410">
          <mxGeometry x="347" y="733" width="14" height="14" as="geometry" />
        </mxCell>
        <mxCell id="0HKVdMSKqpRLsOIAbaeS-420" value="" style="curved=1;startArrow=none;;exitX=0.5;exitY=0.96;entryX=0.5;entryY=-0.01;rounded=0;" edge="1" parent="0HKVdMSKqpRLsOIAbaeS-410" source="0HKVdMSKqpRLsOIAbaeS-411" target="0HKVdMSKqpRLsOIAbaeS-412">
          <mxGeometry relative="1" as="geometry">
            <Array as="points" />
          </mxGeometry>
        </mxCell>
        <mxCell id="0HKVdMSKqpRLsOIAbaeS-421" value="" style="curved=1;startArrow=none;;exitX=0.5;exitY=0.99;entryX=0.51;entryY=-0.01;rounded=0;" edge="1" parent="0HKVdMSKqpRLsOIAbaeS-410" source="0HKVdMSKqpRLsOIAbaeS-412" target="0HKVdMSKqpRLsOIAbaeS-413">
          <mxGeometry relative="1" as="geometry">
            <Array as="points" />
          </mxGeometry>
        </mxCell>
        <mxCell id="0HKVdMSKqpRLsOIAbaeS-422" value="" style="curved=1;startArrow=none;;exitX=0.51;exitY=0.99;entryX=0.5;entryY=-0.01;rounded=0;" edge="1" parent="0HKVdMSKqpRLsOIAbaeS-410" source="0HKVdMSKqpRLsOIAbaeS-413" target="0HKVdMSKqpRLsOIAbaeS-414">
          <mxGeometry relative="1" as="geometry">
            <Array as="points" />
          </mxGeometry>
        </mxCell>
        <mxCell id="0HKVdMSKqpRLsOIAbaeS-423" value="[Hasil Buruk]" style="curved=1;startArrow=none;;exitX=0;exitY=0.98;entryX=0.5;entryY=-0.01;rounded=0;" edge="1" parent="0HKVdMSKqpRLsOIAbaeS-410" source="0HKVdMSKqpRLsOIAbaeS-414" target="0HKVdMSKqpRLsOIAbaeS-415">
          <mxGeometry relative="1" as="geometry">
            <Array as="points">
              <mxPoint x="132" y="454" />
            </Array>
          </mxGeometry>
        </mxCell>
        <mxCell id="0HKVdMSKqpRLsOIAbaeS-424" value="[Hasil Baik]" style="curved=1;startArrow=none;;exitX=0.51;exitY=0.99;entryX=0.5;entryY=-0.01;rounded=0;" edge="1" parent="0HKVdMSKqpRLsOIAbaeS-410" source="0HKVdMSKqpRLsOIAbaeS-414" target="0HKVdMSKqpRLsOIAbaeS-416">
          <mxGeometry relative="1" as="geometry">
            <Array as="points">
              <mxPoint x="354" y="454" />
            </Array>
          </mxGeometry>
        </mxCell>
        <mxCell id="0HKVdMSKqpRLsOIAbaeS-425" value="[Hasil Sangat Baik]" style="curved=1;startArrow=none;;exitX=1;exitY=0.98;entryX=0.5;entryY=-0.01;rounded=0;" edge="1" parent="0HKVdMSKqpRLsOIAbaeS-410" source="0HKVdMSKqpRLsOIAbaeS-414" target="0HKVdMSKqpRLsOIAbaeS-417">
          <mxGeometry relative="1" as="geometry">
            <Array as="points">
              <mxPoint x="563" y="454" />
            </Array>
          </mxGeometry>
        </mxCell>
        <mxCell id="0HKVdMSKqpRLsOIAbaeS-426" value="" style="curved=1;startArrow=none;;exitX=0.5;exitY=0.99;entryX=0.06;entryY=-0.01;rounded=0;" edge="1" parent="0HKVdMSKqpRLsOIAbaeS-410" source="0HKVdMSKqpRLsOIAbaeS-415" target="0HKVdMSKqpRLsOIAbaeS-418">
          <mxGeometry relative="1" as="geometry">
            <Array as="points">
              <mxPoint x="132" y="580" />
            </Array>
          </mxGeometry>
        </mxCell>
        <mxCell id="0HKVdMSKqpRLsOIAbaeS-427" value="" style="curved=1;startArrow=none;;exitX=0.5;exitY=0.99;entryX=0.5;entryY=-0.01;rounded=0;" edge="1" parent="0HKVdMSKqpRLsOIAbaeS-410" source="0HKVdMSKqpRLsOIAbaeS-416" target="0HKVdMSKqpRLsOIAbaeS-418">
          <mxGeometry relative="1" as="geometry">
            <Array as="points" />
          </mxGeometry>
        </mxCell>
        <mxCell id="0HKVdMSKqpRLsOIAbaeS-428" value="" style="curved=1;startArrow=none;;exitX=0.5;exitY=0.99;entryX=0.92;entryY=-0.01;rounded=0;" edge="1" parent="0HKVdMSKqpRLsOIAbaeS-410" source="0HKVdMSKqpRLsOIAbaeS-417" target="0HKVdMSKqpRLsOIAbaeS-418">
          <mxGeometry relative="1" as="geometry">
            <Array as="points">
              <mxPoint x="563" y="580" />
            </Array>
          </mxGeometry>
        </mxCell>
        <mxCell id="0HKVdMSKqpRLsOIAbaeS-429" value="" style="curved=1;startArrow=none;;exitX=0.5;exitY=0.99;entryX=0.48;entryY=-0.04;rounded=0;" edge="1" parent="0HKVdMSKqpRLsOIAbaeS-410" source="0HKVdMSKqpRLsOIAbaeS-418" target="0HKVdMSKqpRLsOIAbaeS-419">
          <mxGeometry relative="1" as="geometry">
            <Array as="points" />
          </mxGeometry>
        </mxCell>
        <mxCell id="0HKVdMSKqpRLsOIAbaeS-430" value="" style="ellipse;shape=endState;fillColor=strokeColor;" vertex="1" parent="1">
          <mxGeometry x="11753" y="6801" width="14" height="14" as="geometry" />
        </mxCell>
        <mxCell id="0HKVdMSKqpRLsOIAbaeS-431" value="" style="ellipse;fillColor=strokeColor;" vertex="1" parent="1">
          <mxGeometry x="20" y="1571" width="14" height="14" as="geometry" />
        </mxCell>
        <mxCell id="0HKVdMSKqpRLsOIAbaeS-432" value="DecisionAwal" style="rounded=1;arcSize=20;strokeWidth=2" vertex="1" parent="1">
          <mxGeometry x="84" y="1558" width="109" height="40" as="geometry" />
        </mxCell>
        <mxCell id="0HKVdMSKqpRLsOIAbaeS-433" value="DecisionLanjutan1" style="rounded=1;arcSize=20;strokeWidth=2" vertex="1" parent="1">
          <mxGeometry x="628" y="6224" width="147" height="40" as="geometry" />
        </mxCell>
        <mxCell id="0HKVdMSKqpRLsOIAbaeS-434" value="DecisionLanjutan2" style="rounded=1;arcSize=20;strokeWidth=2" vertex="1" parent="1">
          <mxGeometry x="2221" y="4028" width="147" height="40" as="geometry" />
        </mxCell>
        <mxCell id="0HKVdMSKqpRLsOIAbaeS-435" value="DecisionLanjutan3" style="rounded=1;arcSize=20;strokeWidth=2" vertex="1" parent="1">
          <mxGeometry x="6054" y="6239" width="147" height="40" as="geometry" />
        </mxCell>
        <mxCell id="0HKVdMSKqpRLsOIAbaeS-436" value="DecisionFinal" style="rounded=1;arcSize=20;strokeWidth=2" vertex="1" parent="1">
          <mxGeometry x="7380" y="1392" width="110" height="40" as="geometry" />
        </mxCell>
        <mxCell id="0HKVdMSKqpRLsOIAbaeS-437" value="" style="ellipse;shape=endState;fillColor=strokeColor;" vertex="1" parent="1">
          <mxGeometry x="8010" y="1405" width="14" height="14" as="geometry" />
        </mxCell>
        <mxCell id="0HKVdMSKqpRLsOIAbaeS-438" value="" style="curved=1;startArrow=none;;exitX=0.97;exitY=0.05;entryX=0;entryY=0.5;rounded=0;" edge="1" parent="1" source="0HKVdMSKqpRLsOIAbaeS-2" target="0HKVdMSKqpRLsOIAbaeS-3">
          <mxGeometry relative="1" as="geometry">
            <Array as="points">
              <mxPoint x="534" y="1092" />
            </Array>
          </mxGeometry>
        </mxCell>
        <mxCell id="0HKVdMSKqpRLsOIAbaeS-439" value="[Tren Pasar Naik]" style="curved=1;startArrow=none;;exitX=0.54;exitY=0;entryX=0;entryY=0.49;rounded=0;" edge="1" parent="1" source="0HKVdMSKqpRLsOIAbaeS-14" target="0HKVdMSKqpRLsOIAbaeS-15">
          <mxGeometry relative="1" as="geometry">
            <Array as="points">
              <mxPoint x="6962" y="465" />
            </Array>
          </mxGeometry>
        </mxCell>
        <mxCell id="0HKVdMSKqpRLsOIAbaeS-440" value="[Tren Pasar Stabil]" style="curved=1;startArrow=none;;exitX=1;exitY=0.5;entryX=0;entryY=0.5;rounded=0;" edge="1" parent="1" source="0HKVdMSKqpRLsOIAbaeS-14" target="0HKVdMSKqpRLsOIAbaeS-16">
          <mxGeometry relative="1" as="geometry">
            <Array as="points" />
          </mxGeometry>
        </mxCell>
        <mxCell id="0HKVdMSKqpRLsOIAbaeS-441" value="[Tren Pasar Turun]" style="curved=1;startArrow=none;;exitX=0.79;exitY=1;entryX=0;entryY=0.5;rounded=0;" edge="1" parent="1" source="0HKVdMSKqpRLsOIAbaeS-14" target="0HKVdMSKqpRLsOIAbaeS-17">
          <mxGeometry relative="1" as="geometry">
            <Array as="points">
              <mxPoint x="6962" y="1182" />
            </Array>
          </mxGeometry>
        </mxCell>
        <mxCell id="0HKVdMSKqpRLsOIAbaeS-442" value="" style="curved=1;startArrow=none;;exitX=1;exitY=0.49;entryX=0.48;entryY=0;rounded=0;" edge="1" parent="1" source="0HKVdMSKqpRLsOIAbaeS-15" target="0HKVdMSKqpRLsOIAbaeS-18">
          <mxGeometry relative="1" as="geometry">
            <Array as="points">
              <mxPoint x="7931" y="465" />
            </Array>
          </mxGeometry>
        </mxCell>
        <mxCell id="0HKVdMSKqpRLsOIAbaeS-443" value="" style="curved=1;startArrow=none;;exitX=1;exitY=0.5;entryX=0;entryY=0.5;rounded=0;" edge="1" parent="1" source="0HKVdMSKqpRLsOIAbaeS-16" target="0HKVdMSKqpRLsOIAbaeS-18">
          <mxGeometry relative="1" as="geometry">
            <Array as="points" />
          </mxGeometry>
        </mxCell>
        <mxCell id="0HKVdMSKqpRLsOIAbaeS-444" value="" style="curved=1;startArrow=none;;exitX=1;exitY=0.5;entryX=0.31;entryY=1;rounded=0;" edge="1" parent="1" source="0HKVdMSKqpRLsOIAbaeS-17" target="0HKVdMSKqpRLsOIAbaeS-18">
          <mxGeometry relative="1" as="geometry">
            <Array as="points">
              <mxPoint x="7931" y="1182" />
            </Array>
          </mxGeometry>
        </mxCell>
        <mxCell id="0HKVdMSKqpRLsOIAbaeS-445" value="" style="curved=1;startArrow=none;;exitX=1;exitY=0.42;entryX=0;entryY=0.49;rounded=0;" edge="1" parent="1" source="0HKVdMSKqpRLsOIAbaeS-18" target="0HKVdMSKqpRLsOIAbaeS-19">
          <mxGeometry relative="1" as="geometry">
            <Array as="points">
              <mxPoint x="8102" y="1087" />
            </Array>
          </mxGeometry>
        </mxCell>
        <mxCell id="0HKVdMSKqpRLsOIAbaeS-446" value="" style="curved=1;startArrow=none;;exitX=0.71;exitY=1;entryX=0;entryY=0.49;rounded=0;" edge="1" parent="1" source="0HKVdMSKqpRLsOIAbaeS-18" target="0HKVdMSKqpRLsOIAbaeS-20">
          <mxGeometry relative="1" as="geometry">
            <Array as="points">
              <mxPoint x="8102" y="1177" />
            </Array>
          </mxGeometry>
        </mxCell>
        <mxCell id="0HKVdMSKqpRLsOIAbaeS-447" value="" style="curved=1;startArrow=none;;exitX=1;exitY=0.49;entryX=0.07;entryY=-0.01;rounded=0;" edge="1" parent="1" source="0HKVdMSKqpRLsOIAbaeS-19" target="0HKVdMSKqpRLsOIAbaeS-21">
          <mxGeometry relative="1" as="geometry">
            <Array as="points">
              <mxPoint x="8394" y="1087" />
            </Array>
          </mxGeometry>
        </mxCell>
        <mxCell id="0HKVdMSKqpRLsOIAbaeS-448" value="" style="curved=1;startArrow=none;;exitX=1;exitY=0.49;entryX=0.07;entryY=0.99;rounded=0;" edge="1" parent="1" source="0HKVdMSKqpRLsOIAbaeS-20" target="0HKVdMSKqpRLsOIAbaeS-21">
          <mxGeometry relative="1" as="geometry">
            <Array as="points">
              <mxPoint x="8394" y="1177" />
            </Array>
          </mxGeometry>
        </mxCell>
        <mxCell id="0HKVdMSKqpRLsOIAbaeS-449" value="" style="curved=1;startArrow=none;;exitX=1;exitY=0.49;entryX=0.49;entryY=0.01;rounded=0;" edge="1" parent="1" source="0HKVdMSKqpRLsOIAbaeS-21" target="0HKVdMSKqpRLsOIAbaeS-22">
          <mxGeometry relative="1" as="geometry">
            <Array as="points">
              <mxPoint x="8646" y="1132" />
            </Array>
          </mxGeometry>
        </mxCell>
        <mxCell id="0HKVdMSKqpRLsOIAbaeS-450" value="[Budget Ditolak]" style="curved=1;startArrow=none;;exitX=1;exitY=0.18;entryX=0.49;entryY=1.01;rounded=0;" edge="1" parent="1" source="0HKVdMSKqpRLsOIAbaeS-22" target="0HKVdMSKqpRLsOIAbaeS-41">
          <mxGeometry relative="1" as="geometry">
            <Array as="points">
              <mxPoint x="8960" y="5059" />
            </Array>
          </mxGeometry>
        </mxCell>
        <mxCell id="0HKVdMSKqpRLsOIAbaeS-451" value="" style="curved=1;startArrow=none;;exitX=0;exitY=0.51;entryX=0.75;entryY=0;rounded=0;" edge="1" parent="1" source="0HKVdMSKqpRLsOIAbaeS-41" target="0HKVdMSKqpRLsOIAbaeS-18">
          <mxGeometry relative="1" as="geometry">
            <Array as="points">
              <mxPoint x="8102" y="1019" />
            </Array>
          </mxGeometry>
        </mxCell>
        <mxCell id="0HKVdMSKqpRLsOIAbaeS-452" value="" style="curved=1;startArrow=none;;exitX=0.55;exitY=-0.01;entryX=0;entryY=0.49;rounded=0;" edge="1" parent="1" source="0HKVdMSKqpRLsOIAbaeS-42" target="0HKVdMSKqpRLsOIAbaeS-43">
          <mxGeometry relative="1" as="geometry">
            <Array as="points">
              <mxPoint x="9892" y="290" />
            </Array>
          </mxGeometry>
        </mxCell>
        <mxCell id="0HKVdMSKqpRLsOIAbaeS-453" value="" style="curved=1;startArrow=none;;exitX=1;exitY=0.49;entryX=0;entryY=0.49;rounded=0;" edge="1" parent="1" source="0HKVdMSKqpRLsOIAbaeS-42" target="0HKVdMSKqpRLsOIAbaeS-44">
          <mxGeometry relative="1" as="geometry">
            <Array as="points" />
          </mxGeometry>
        </mxCell>
        <mxCell id="0HKVdMSKqpRLsOIAbaeS-454" value="" style="curved=1;startArrow=none;;exitX=0.55;exitY=0.99;entryX=0;entryY=0.51;rounded=0;" edge="1" parent="1" source="0HKVdMSKqpRLsOIAbaeS-42" target="0HKVdMSKqpRLsOIAbaeS-45">
          <mxGeometry relative="1" as="geometry">
            <Array as="points">
              <mxPoint x="9892" y="899" />
            </Array>
          </mxGeometry>
        </mxCell>
        <mxCell id="0HKVdMSKqpRLsOIAbaeS-455" value="" style="curved=1;startArrow=none;;exitX=1;exitY=0.49;entryX=0.45;entryY=-0.01;rounded=0;" edge="1" parent="1" source="0HKVdMSKqpRLsOIAbaeS-43" target="0HKVdMSKqpRLsOIAbaeS-46">
          <mxGeometry relative="1" as="geometry">
            <Array as="points">
              <mxPoint x="10125" y="290" />
            </Array>
          </mxGeometry>
        </mxCell>
        <mxCell id="0HKVdMSKqpRLsOIAbaeS-456" value="" style="curved=1;startArrow=none;;exitX=1;exitY=0.49;entryX=0;entryY=0.49;rounded=0;" edge="1" parent="1" source="0HKVdMSKqpRLsOIAbaeS-44" target="0HKVdMSKqpRLsOIAbaeS-46">
          <mxGeometry relative="1" as="geometry">
            <Array as="points" />
          </mxGeometry>
        </mxCell>
        <mxCell id="0HKVdMSKqpRLsOIAbaeS-457" value="" style="curved=1;startArrow=none;;exitX=1;exitY=0.51;entryX=0.45;entryY=0.99;rounded=0;" edge="1" parent="1" source="0HKVdMSKqpRLsOIAbaeS-45" target="0HKVdMSKqpRLsOIAbaeS-46">
          <mxGeometry relative="1" as="geometry">
            <Array as="points">
              <mxPoint x="10125" y="899" />
            </Array>
          </mxGeometry>
        </mxCell>
        <mxCell id="0HKVdMSKqpRLsOIAbaeS-458" value="" style="curved=1;startArrow=none;;exitX=1;exitY=0.49;entryX=0;entryY=0.49;rounded=0;" edge="1" parent="1" source="0HKVdMSKqpRLsOIAbaeS-46" target="0HKVdMSKqpRLsOIAbaeS-47">
          <mxGeometry relative="1" as="geometry">
            <Array as="points" />
          </mxGeometry>
        </mxCell>
        <mxCell id="0HKVdMSKqpRLsOIAbaeS-459" value="" style="curved=1;startArrow=none;;exitX=0.52;exitY=-0.01;entryX=0;entryY=0.51;rounded=0;" edge="1" parent="1" source="0HKVdMSKqpRLsOIAbaeS-367" target="0HKVdMSKqpRLsOIAbaeS-368">
          <mxGeometry relative="1" as="geometry">
            <Array as="points">
              <mxPoint x="8102" y="1792" />
            </Array>
          </mxGeometry>
        </mxCell>
        <mxCell id="0HKVdMSKqpRLsOIAbaeS-460" value="" style="curved=1;startArrow=none;;exitX=0.82;exitY=0.99;entryX=0;entryY=0.49;rounded=0;" edge="1" parent="1" source="0HKVdMSKqpRLsOIAbaeS-367" target="0HKVdMSKqpRLsOIAbaeS-369">
          <mxGeometry relative="1" as="geometry">
            <Array as="points">
              <mxPoint x="8102" y="2502" />
            </Array>
          </mxGeometry>
        </mxCell>
        <mxCell id="0HKVdMSKqpRLsOIAbaeS-461" value="" style="curved=1;startArrow=none;;exitX=0.61;exitY=0.99;entryX=0;entryY=0.49;rounded=0;" edge="1" parent="1" source="0HKVdMSKqpRLsOIAbaeS-367" target="0HKVdMSKqpRLsOIAbaeS-370">
          <mxGeometry relative="1" as="geometry">
            <Array as="points">
              <mxPoint x="8102" y="2592" />
            </Array>
          </mxGeometry>
        </mxCell>
        <mxCell id="0HKVdMSKqpRLsOIAbaeS-462" value="" style="curved=1;startArrow=none;;exitX=1;exitY=0.51;entryX=0.48;entryY=-0.01;rounded=0;" edge="1" parent="1" source="0HKVdMSKqpRLsOIAbaeS-368" target="0HKVdMSKqpRLsOIAbaeS-371">
          <mxGeometry relative="1" as="geometry">
            <Array as="points">
              <mxPoint x="8394" y="1792" />
            </Array>
          </mxGeometry>
        </mxCell>
        <mxCell id="0HKVdMSKqpRLsOIAbaeS-463" value="" style="curved=1;startArrow=none;;exitX=1;exitY=0.49;entryX=0.15;entryY=0.99;rounded=0;" edge="1" parent="1" source="0HKVdMSKqpRLsOIAbaeS-369" target="0HKVdMSKqpRLsOIAbaeS-371">
          <mxGeometry relative="1" as="geometry">
            <Array as="points">
              <mxPoint x="8394" y="2502" />
            </Array>
          </mxGeometry>
        </mxCell>
        <mxCell id="0HKVdMSKqpRLsOIAbaeS-464" value="" style="curved=1;startArrow=none;;exitX=1;exitY=0.49;entryX=0.39;entryY=0.99;rounded=0;" edge="1" parent="1" source="0HKVdMSKqpRLsOIAbaeS-370" target="0HKVdMSKqpRLsOIAbaeS-371">
          <mxGeometry relative="1" as="geometry">
            <Array as="points">
              <mxPoint x="8394" y="2592" />
            </Array>
          </mxGeometry>
        </mxCell>
        <mxCell id="0HKVdMSKqpRLsOIAbaeS-465" value="" style="curved=1;startArrow=none;;exitX=0.99;exitY=0.52;entryX=0;entryY=0.51;rounded=0;" edge="1" parent="1" source="0HKVdMSKqpRLsOIAbaeS-372" target="0HKVdMSKqpRLsOIAbaeS-373">
          <mxGeometry relative="1" as="geometry">
            <Array as="points" />
          </mxGeometry>
        </mxCell>
        <mxCell id="0HKVdMSKqpRLsOIAbaeS-466" value="" style="curved=1;startArrow=none;;exitX=0.99;exitY=0.19;entryX=0;entryY=0.5;rounded=0;" edge="1" parent="1" source="0HKVdMSKqpRLsOIAbaeS-373" target="0HKVdMSKqpRLsOIAbaeS-374">
          <mxGeometry relative="1" as="geometry">
            <Array as="points">
              <mxPoint x="8394" y="5106" />
            </Array>
          </mxGeometry>
        </mxCell>
        <mxCell id="0HKVdMSKqpRLsOIAbaeS-467" value="[Perlu Perbaikan]" style="curved=1;startArrow=none;;exitX=1;exitY=0.98;entryX=0;entryY=0.26;rounded=0;" edge="1" parent="1" source="0HKVdMSKqpRLsOIAbaeS-374" target="0HKVdMSKqpRLsOIAbaeS-375">
          <mxGeometry relative="1" as="geometry">
            <Array as="points">
              <mxPoint x="8646" y="5151" />
            </Array>
          </mxGeometry>
        </mxCell>
        <mxCell id="0HKVdMSKqpRLsOIAbaeS-468" value="[Konten Disetujui]" style="curved=1;startArrow=none;;exitX=0.95;exitY=0;entryX=0;entryY=0.12;rounded=0;" edge="1" parent="1" source="0HKVdMSKqpRLsOIAbaeS-374" target="0HKVdMSKqpRLsOIAbaeS-22">
          <mxGeometry relative="1" as="geometry">
            <Array as="points">
              <mxPoint x="8646" y="5053" />
            </Array>
          </mxGeometry>
        </mxCell>
        <mxCell id="0HKVdMSKqpRLsOIAbaeS-469" value="" style="curved=1;startArrow=none;;exitX=0;exitY=0.66;entryX=0.86;entryY=1.01;rounded=0;" edge="1" parent="1" source="0HKVdMSKqpRLsOIAbaeS-375" target="0HKVdMSKqpRLsOIAbaeS-373">
          <mxGeometry relative="1" as="geometry">
            <Array as="points">
              <mxPoint x="8646" y="5198" />
              <mxPoint x="8394" y="5198" />
            </Array>
          </mxGeometry>
        </mxCell>
        <mxCell id="0HKVdMSKqpRLsOIAbaeS-470" value="" style="curved=1;startArrow=none;;exitX=1;exitY=0.51;entryX=0;entryY=0.51;rounded=0;" edge="1" parent="1" source="0HKVdMSKqpRLsOIAbaeS-22" target="0HKVdMSKqpRLsOIAbaeS-376">
          <mxGeometry relative="1" as="geometry">
            <Array as="points" />
          </mxGeometry>
        </mxCell>
        <mxCell id="0HKVdMSKqpRLsOIAbaeS-471" value="[Melebihi Anggaran]" style="curved=1;startArrow=none;;exitX=1;exitY=0.51;entryX=0;entryY=0.2;rounded=0;" edge="1" parent="1" source="0HKVdMSKqpRLsOIAbaeS-376" target="0HKVdMSKqpRLsOIAbaeS-377">
          <mxGeometry relative="1" as="geometry">
            <Array as="points">
              <mxPoint x="9620" y="5090" />
            </Array>
          </mxGeometry>
        </mxCell>
        <mxCell id="0HKVdMSKqpRLsOIAbaeS-472" value="[Sesuai Anggaran]" style="curved=1;startArrow=none;;exitX=0.96;exitY=1.01;entryX=0;entryY=0.49;rounded=0;" edge="1" parent="1" source="0HKVdMSKqpRLsOIAbaeS-376" target="0HKVdMSKqpRLsOIAbaeS-378">
          <mxGeometry relative="1" as="geometry">
            <Array as="points">
              <mxPoint x="9620" y="5208" />
            </Array>
          </mxGeometry>
        </mxCell>
        <mxCell id="0HKVdMSKqpRLsOIAbaeS-473" value="" style="curved=1;startArrow=none;;exitX=0;exitY=0.81;entryX=0.92;entryY=1.01;rounded=0;" edge="1" parent="1" source="0HKVdMSKqpRLsOIAbaeS-377" target="0HKVdMSKqpRLsOIAbaeS-22">
          <mxGeometry relative="1" as="geometry">
            <Array as="points">
              <mxPoint x="9620" y="5147" />
              <mxPoint x="8960" y="5147" />
            </Array>
          </mxGeometry>
        </mxCell>
        <mxCell id="0HKVdMSKqpRLsOIAbaeS-474" value="" style="curved=1;startArrow=none;;exitX=1;exitY=0.49;entryX=0.01;entryY=0.49;rounded=0;" edge="1" parent="1" source="0HKVdMSKqpRLsOIAbaeS-378" target="0HKVdMSKqpRLsOIAbaeS-379">
          <mxGeometry relative="1" as="geometry">
            <Array as="points" />
          </mxGeometry>
        </mxCell>
        <mxCell id="0HKVdMSKqpRLsOIAbaeS-475" value="" style="curved=1;startArrow=none;;exitX=1;exitY=0.5;entryX=0;entryY=0.5;rounded=0;" edge="1" parent="1" source="0HKVdMSKqpRLsOIAbaeS-380" target="0HKVdMSKqpRLsOIAbaeS-381">
          <mxGeometry relative="1" as="geometry">
            <Array as="points" />
          </mxGeometry>
        </mxCell>
        <mxCell id="0HKVdMSKqpRLsOIAbaeS-476" value="" style="curved=1;startArrow=none;;exitX=0.86;exitY=0;entryX=0;entryY=0.5;rounded=0;" edge="1" parent="1" source="0HKVdMSKqpRLsOIAbaeS-381" target="0HKVdMSKqpRLsOIAbaeS-382">
          <mxGeometry relative="1" as="geometry">
            <Array as="points">
              <mxPoint x="9892" y="6673" />
            </Array>
          </mxGeometry>
        </mxCell>
        <mxCell id="0HKVdMSKqpRLsOIAbaeS-477" value="" style="curved=1;startArrow=none;;exitX=0.86;exitY=1;entryX=0;entryY=0.5;rounded=0;" edge="1" parent="1" source="0HKVdMSKqpRLsOIAbaeS-381" target="0HKVdMSKqpRLsOIAbaeS-383">
          <mxGeometry relative="1" as="geometry">
            <Array as="points">
              <mxPoint x="9892" y="6763" />
            </Array>
          </mxGeometry>
        </mxCell>
        <mxCell id="0HKVdMSKqpRLsOIAbaeS-478" value="" style="curved=1;startArrow=none;;exitX=0.56;exitY=1;entryX=0;entryY=0.51;rounded=0;" edge="1" parent="1" source="0HKVdMSKqpRLsOIAbaeS-381" target="0HKVdMSKqpRLsOIAbaeS-384">
          <mxGeometry relative="1" as="geometry">
            <Array as="points">
              <mxPoint x="9892" y="6992" />
            </Array>
          </mxGeometry>
        </mxCell>
        <mxCell id="0HKVdMSKqpRLsOIAbaeS-479" value="" style="curved=1;startArrow=none;;exitX=1;exitY=0.5;entryX=0.39;entryY=0;rounded=0;" edge="1" parent="1" source="0HKVdMSKqpRLsOIAbaeS-382" target="0HKVdMSKqpRLsOIAbaeS-385">
          <mxGeometry relative="1" as="geometry">
            <Array as="points">
              <mxPoint x="10125" y="6673" />
            </Array>
          </mxGeometry>
        </mxCell>
        <mxCell id="0HKVdMSKqpRLsOIAbaeS-480" value="" style="curved=1;startArrow=none;;exitX=1;exitY=0.5;entryX=0.17;entryY=0;rounded=0;" edge="1" parent="1" source="0HKVdMSKqpRLsOIAbaeS-383" target="0HKVdMSKqpRLsOIAbaeS-385">
          <mxGeometry relative="1" as="geometry">
            <Array as="points">
              <mxPoint x="10125" y="6763" />
            </Array>
          </mxGeometry>
        </mxCell>
        <mxCell id="0HKVdMSKqpRLsOIAbaeS-481" value="" style="curved=1;startArrow=none;;exitX=1;exitY=0.51;entryX=0.42;entryY=1;rounded=0;" edge="1" parent="1" source="0HKVdMSKqpRLsOIAbaeS-384" target="0HKVdMSKqpRLsOIAbaeS-385">
          <mxGeometry relative="1" as="geometry">
            <Array as="points">
              <mxPoint x="10125" y="6992" />
            </Array>
          </mxGeometry>
        </mxCell>
        <mxCell id="0HKVdMSKqpRLsOIAbaeS-482" value="" style="curved=1;startArrow=none;;exitX=1;exitY=0.53;entryX=0;entryY=0.51;rounded=0;" edge="1" parent="1" source="0HKVdMSKqpRLsOIAbaeS-431" target="0HKVdMSKqpRLsOIAbaeS-432">
          <mxGeometry relative="1" as="geometry">
            <Array as="points" />
          </mxGeometry>
        </mxCell>
        <mxCell id="0HKVdMSKqpRLsOIAbaeS-483" value="[Selesai]" style="curved=1;startArrow=none;;exitX=1.01;exitY=0.5;entryX=-0.01;entryY=0.49;rounded=0;" edge="1" parent="1" source="0HKVdMSKqpRLsOIAbaeS-436" target="0HKVdMSKqpRLsOIAbaeS-437">
          <mxGeometry relative="1" as="geometry">
            <Array as="points" />
          </mxGeometry>
        </mxCell>
        <mxCell id="0HKVdMSKqpRLsOIAbaeS-484" value="" style="curved=1;startArrow=none;;exitX=1;exitY=0.5;entryX=0;entryY=0.5;rounded=0;" edge="1" parent="1" source="0HKVdMSKqpRLsOIAbaeS-3" target="0HKVdMSKqpRLsOIAbaeS-4">
          <mxGeometry relative="1" as="geometry">
            <Array as="points" />
          </mxGeometry>
        </mxCell>
        <mxCell id="0HKVdMSKqpRLsOIAbaeS-485" value="" style="curved=1;startArrow=none;;exitX=1;exitY=0.5;entryX=0;entryY=0.5;rounded=0;" edge="1" parent="1" source="0HKVdMSKqpRLsOIAbaeS-4" target="0HKVdMSKqpRLsOIAbaeS-14">
          <mxGeometry relative="1" as="geometry">
            <Array as="points" />
          </mxGeometry>
        </mxCell>
        <mxCell id="0HKVdMSKqpRLsOIAbaeS-486" value="[Budget Disetujui]" style="curved=1;startArrow=none;;exitX=0.82;exitY=0.01;entryX=0.45;entryY=1;rounded=0;" edge="1" parent="1" source="0HKVdMSKqpRLsOIAbaeS-22" target="0HKVdMSKqpRLsOIAbaeS-24">
          <mxGeometry relative="1" as="geometry">
            <Array as="points">
              <mxPoint x="8960" y="5016" />
            </Array>
          </mxGeometry>
        </mxCell>
        <mxCell id="0HKVdMSKqpRLsOIAbaeS-487" value="" style="curved=1;startArrow=none;;exitX=1;exitY=0.5;entryX=0;entryY=0.49;rounded=0;" edge="1" parent="1" source="0HKVdMSKqpRLsOIAbaeS-24" target="0HKVdMSKqpRLsOIAbaeS-42">
          <mxGeometry relative="1" as="geometry">
            <Array as="points" />
          </mxGeometry>
        </mxCell>
        <mxCell id="0HKVdMSKqpRLsOIAbaeS-488" value="" style="curved=1;startArrow=none;;exitX=1;exitY=0.49;entryX=0;entryY=0.5;rounded=0;" edge="1" parent="1" source="0HKVdMSKqpRLsOIAbaeS-47" target="0HKVdMSKqpRLsOIAbaeS-48">
          <mxGeometry relative="1" as="geometry">
            <Array as="points" />
          </mxGeometry>
        </mxCell>
        <mxCell id="0HKVdMSKqpRLsOIAbaeS-489" value="" style="curved=1;startArrow=none;;exitX=1;exitY=0.5;entryX=-0.01;entryY=0.46;rounded=0;" edge="1" parent="1" source="0HKVdMSKqpRLsOIAbaeS-48" target="0HKVdMSKqpRLsOIAbaeS-75">
          <mxGeometry relative="1" as="geometry">
            <Array as="points" />
          </mxGeometry>
        </mxCell>
        <mxCell id="0HKVdMSKqpRLsOIAbaeS-490" value="" style="curved=1;startArrow=none;;exitX=0.66;exitY=1.02;entryX=0;entryY=0.5;rounded=0;" edge="1" parent="1" source="0HKVdMSKqpRLsOIAbaeS-334" target="0HKVdMSKqpRLsOIAbaeS-335">
          <mxGeometry relative="1" as="geometry">
            <Array as="points">
              <mxPoint x="6962" y="2457" />
            </Array>
          </mxGeometry>
        </mxCell>
        <mxCell id="0HKVdMSKqpRLsOIAbaeS-491" value="" style="curved=1;startArrow=none;;exitX=1;exitY=0.5;entryX=0;entryY=0.49;rounded=0;" edge="1" parent="1" source="0HKVdMSKqpRLsOIAbaeS-335" target="0HKVdMSKqpRLsOIAbaeS-367">
          <mxGeometry relative="1" as="geometry">
            <Array as="points" />
          </mxGeometry>
        </mxCell>
        <mxCell id="0HKVdMSKqpRLsOIAbaeS-492" value="" style="curved=1;startArrow=none;;rounded=0;" edge="1" parent="1" source="0HKVdMSKqpRLsOIAbaeS-371" target="0HKVdMSKqpRLsOIAbaeS-23">
          <mxGeometry relative="1" as="geometry">
            <Array as="points" />
          </mxGeometry>
        </mxCell>
        <mxCell id="0HKVdMSKqpRLsOIAbaeS-493" value="" style="curved=1;startArrow=none;;rounded=0;" edge="1" parent="1" source="0HKVdMSKqpRLsOIAbaeS-23" target="0HKVdMSKqpRLsOIAbaeS-380">
          <mxGeometry relative="1" as="geometry">
            <Array as="points" />
          </mxGeometry>
        </mxCell>
        <mxCell id="0HKVdMSKqpRLsOIAbaeS-494" value="" style="curved=1;startArrow=none;;exitX=1.01;exitY=0.5;entryX=0;entryY=0.5;rounded=0;" edge="1" parent="1" source="0HKVdMSKqpRLsOIAbaeS-385" target="0HKVdMSKqpRLsOIAbaeS-386">
          <mxGeometry relative="1" as="geometry">
            <Array as="points" />
          </mxGeometry>
        </mxCell>
        <mxCell id="0HKVdMSKqpRLsOIAbaeS-495" value="" style="curved=1;startArrow=none;;exitX=1;exitY=0.5;entryX=0;entryY=0.5;rounded=0;" edge="1" parent="1" source="0HKVdMSKqpRLsOIAbaeS-386" target="0HKVdMSKqpRLsOIAbaeS-410">
          <mxGeometry relative="1" as="geometry">
            <Array as="points" />
          </mxGeometry>
        </mxCell>
        <mxCell id="0HKVdMSKqpRLsOIAbaeS-496" value="" style="curved=1;startArrow=none;;exitX=1;exitY=0.5;entryX=-0.01;entryY=0.51;rounded=0;" edge="1" parent="1" source="0HKVdMSKqpRLsOIAbaeS-410" target="0HKVdMSKqpRLsOIAbaeS-430">
          <mxGeometry relative="1" as="geometry">
            <Array as="points" />
          </mxGeometry>
        </mxCell>
        <mxCell id="0HKVdMSKqpRLsOIAbaeS-497" value="[Prioritas Persediaan]" style="curved=1;startArrow=none;;rounded=0;" edge="1" parent="1" source="0HKVdMSKqpRLsOIAbaeS-432" target="0HKVdMSKqpRLsOIAbaeS-1">
          <mxGeometry relative="1" as="geometry">
            <Array as="points" />
          </mxGeometry>
        </mxCell>
        <mxCell id="0HKVdMSKqpRLsOIAbaeS-498" value="[Prioritas Layanan]" style="curved=1;startArrow=none;;exitX=0.52;exitY=1.01;entryX=0;entryY=0.3;rounded=0;" edge="1" parent="1" source="0HKVdMSKqpRLsOIAbaeS-432" target="0HKVdMSKqpRLsOIAbaeS-76">
          <mxGeometry relative="1" as="geometry">
            <Array as="points">
              <mxPoint x="297" y="2958" />
              <mxPoint x="889" y="2958" />
            </Array>
          </mxGeometry>
        </mxCell>
        <mxCell id="0HKVdMSKqpRLsOIAbaeS-499" value="[Prioritas Operasional]" style="curved=1;startArrow=none;;exitX=0.61;exitY=1.01;entryX=0.23;entryY=0;rounded=0;" edge="1" parent="1" source="0HKVdMSKqpRLsOIAbaeS-432" target="0HKVdMSKqpRLsOIAbaeS-176">
          <mxGeometry relative="1" as="geometry">
            <Array as="points">
              <mxPoint x="297" y="1836" />
              <mxPoint x="2480" y="1836" />
            </Array>
          </mxGeometry>
        </mxCell>
        <mxCell id="0HKVdMSKqpRLsOIAbaeS-500" value="[Prioritas Marketing]" style="curved=1;startArrow=none;;rounded=0;" edge="1" parent="1" source="0HKVdMSKqpRLsOIAbaeS-432" target="0HKVdMSKqpRLsOIAbaeS-333">
          <mxGeometry relative="1" as="geometry">
            <Array as="points" />
          </mxGeometry>
        </mxCell>
        <mxCell id="0HKVdMSKqpRLsOIAbaeS-501" value="" style="curved=1;startArrow=none;;rounded=0;" edge="1" parent="1" source="0HKVdMSKqpRLsOIAbaeS-1" target="0HKVdMSKqpRLsOIAbaeS-433">
          <mxGeometry relative="1" as="geometry">
            <Array as="points" />
          </mxGeometry>
        </mxCell>
        <mxCell id="0HKVdMSKqpRLsOIAbaeS-502" value="[Lanjut ke Transaksi]" style="curved=1;startArrow=none;;exitX=0.53;exitY=-0.01;entryX=0;entryY=0.7;rounded=0;" edge="1" parent="1" source="0HKVdMSKqpRLsOIAbaeS-433" target="0HKVdMSKqpRLsOIAbaeS-76">
          <mxGeometry relative="1" as="geometry">
            <Array as="points">
              <mxPoint x="889" y="5138" />
            </Array>
          </mxGeometry>
        </mxCell>
        <mxCell id="0HKVdMSKqpRLsOIAbaeS-503" value="[Lanjut ke Operasional]" style="curved=1;startArrow=none;;exitX=1;exitY=0.65;entryX=0;entryY=0.64;rounded=0;" edge="1" parent="1" source="0HKVdMSKqpRLsOIAbaeS-433" target="0HKVdMSKqpRLsOIAbaeS-176">
          <mxGeometry relative="1" as="geometry">
            <Array as="points">
              <mxPoint x="889" y="6259" />
              <mxPoint x="2480" y="6259" />
            </Array>
          </mxGeometry>
        </mxCell>
        <mxCell id="0HKVdMSKqpRLsOIAbaeS-504" value="[Lanjut ke Marketing]" style="curved=1;startArrow=none;;rounded=0;" edge="1" parent="1" source="0HKVdMSKqpRLsOIAbaeS-433" target="0HKVdMSKqpRLsOIAbaeS-333">
          <mxGeometry relative="1" as="geometry">
            <Array as="points" />
          </mxGeometry>
        </mxCell>
        <mxCell id="0HKVdMSKqpRLsOIAbaeS-505" value="" style="curved=1;startArrow=none;;exitX=1;exitY=0.5;entryX=0;entryY=0.5;rounded=0;" edge="1" parent="1" source="0HKVdMSKqpRLsOIAbaeS-76" target="0HKVdMSKqpRLsOIAbaeS-434">
          <mxGeometry relative="1" as="geometry">
            <Array as="points" />
          </mxGeometry>
        </mxCell>
        <mxCell id="0HKVdMSKqpRLsOIAbaeS-506" value="[Kembali ke Persediaan]" style="curved=1;startArrow=none;;rounded=0;" edge="1" parent="1" source="0HKVdMSKqpRLsOIAbaeS-434" target="0HKVdMSKqpRLsOIAbaeS-1">
          <mxGeometry relative="1" as="geometry">
            <Array as="points" />
          </mxGeometry>
        </mxCell>
        <mxCell id="0HKVdMSKqpRLsOIAbaeS-507" value="[Lanjut ke Operasional]" style="curved=1;startArrow=none;;exitX=0.51;exitY=1;entryX=0;entryY=0.87;rounded=0;" edge="1" parent="1" source="0HKVdMSKqpRLsOIAbaeS-434" target="0HKVdMSKqpRLsOIAbaeS-176">
          <mxGeometry relative="1" as="geometry">
            <Array as="points">
              <mxPoint x="2480" y="7236" />
            </Array>
          </mxGeometry>
        </mxCell>
        <mxCell id="0HKVdMSKqpRLsOIAbaeS-508" value="[Lanjut ke Marketing]" style="curved=1;startArrow=none;;rounded=0;" edge="1" parent="1" source="0HKVdMSKqpRLsOIAbaeS-434" target="0HKVdMSKqpRLsOIAbaeS-333">
          <mxGeometry relative="1" as="geometry">
            <Array as="points" />
          </mxGeometry>
        </mxCell>
        <mxCell id="0HKVdMSKqpRLsOIAbaeS-509" value="" style="curved=1;startArrow=none;;exitX=1;exitY=0.5;entryX=0.39;entryY=0.01;rounded=0;" edge="1" parent="1" source="0HKVdMSKqpRLsOIAbaeS-176" target="0HKVdMSKqpRLsOIAbaeS-435">
          <mxGeometry relative="1" as="geometry">
            <Array as="points">
              <mxPoint x="5629" y="5685" />
            </Array>
          </mxGeometry>
        </mxCell>
        <mxCell id="0HKVdMSKqpRLsOIAbaeS-510" value="[Kembali ke Persediaan]" style="curved=1;startArrow=none;;rounded=0;" edge="1" parent="1" source="0HKVdMSKqpRLsOIAbaeS-435" target="0HKVdMSKqpRLsOIAbaeS-1">
          <mxGeometry relative="1" as="geometry">
            <Array as="points" />
          </mxGeometry>
        </mxCell>
        <mxCell id="0HKVdMSKqpRLsOIAbaeS-511" value="[Kembali ke Transaksi]" style="curved=1;startArrow=none;;exitX=0.47;exitY=1.01;entryX=0.82;entryY=1;rounded=0;" edge="1" parent="1" source="0HKVdMSKqpRLsOIAbaeS-435" target="0HKVdMSKqpRLsOIAbaeS-76">
          <mxGeometry relative="1" as="geometry">
            <Array as="points">
              <mxPoint x="5629" y="8224" />
              <mxPoint x="2108" y="8224" />
            </Array>
          </mxGeometry>
        </mxCell>
        <mxCell id="0HKVdMSKqpRLsOIAbaeS-512" value="[Lanjut ke Marketing]" style="curved=1;startArrow=none;;rounded=0;" edge="1" parent="1" source="0HKVdMSKqpRLsOIAbaeS-435" target="0HKVdMSKqpRLsOIAbaeS-333">
          <mxGeometry relative="1" as="geometry">
            <Array as="points" />
          </mxGeometry>
        </mxCell>
        <mxCell id="0HKVdMSKqpRLsOIAbaeS-513" value="" style="curved=1;startArrow=none;;rounded=0;" edge="1" parent="1" source="0HKVdMSKqpRLsOIAbaeS-333" target="0HKVdMSKqpRLsOIAbaeS-436">
          <mxGeometry relative="1" as="geometry">
            <Array as="points" />
          </mxGeometry>
        </mxCell>
        <mxCell id="0HKVdMSKqpRLsOIAbaeS-514" value="[Mulai Siklus Baru]" style="curved=1;startArrow=none;;rounded=0;" edge="1" parent="1" source="0HKVdMSKqpRLsOIAbaeS-436" target="0HKVdMSKqpRLsOIAbaeS-1">
          <mxGeometry relative="1" as="geometry">
            <Array as="points" />
          </mxGeometry>
        </mxCell>
      </root>
    </mxGraphModel>
  </diagram>
</mxfile>
